<svg xmlns="http://www.w3.org/2000/svg" width="140" height="210" viewBox="0 0 140 210">
  <defs>
    <style>
      .cls-1 {
        fill: #001831;
      }

      .cls-1, .cls-2 {
        fill-rule: evenodd;
      }

      .cls-2 {
        fill: #fff;
      }
    </style>
  </defs>
  <path id="icon_faq" class="cls-1" d="M32.484,178.7l-0.711-.7-2.552,2.607-1.539-1.452-0.7.709L29.234,182Zm0-5-0.711-.7-2.552,2.607-1.539-1.452-0.7.709L29.234,177Zm0-5-0.711-.7-2.552,2.607-1.539-1.452-0.7.709L29.234,172ZM43,180H35v1h8v-1Zm0-5H35v1h8v-1Zm0-5H35v1h8v-1Zm4-5H23v20H47V165Zm-1,19H24V166H46v18Z"/>
  <path id="icon_guide" class="cls-1" d="M45,116H25a2,2,0,0,1-2-2V96h1v18.093a0.574,0.574,0,0,0,.508.608A0.509,0.509,0,0,0,25,114.144V94H47v20A2,2,0,0,1,45,116Zm1-21H26v20H45a1,1,0,0,0,1-1V95Zm-2,17v1H28v-1H44Zm0-3v1H28v-1H44Zm0-3v1H38v-1h6Zm-8,1H28v-4h8v4Zm-1-3H29v2h6v-2Zm9-1v1H38v-1h6Zm-5.254-2a1.093,1.093,0,0,0,1.236-1.077,1.154,1.154,0,0,0-1.07-1.087c-0.518-.165-0.6-0.275-0.6-0.436a0.3,0.3,0,0,1,.357-0.266,0.584,0.584,0,0,1,.575.406l0.642-.4a1.286,1.286,0,0,0-1.217-.791,1.063,1.063,0,0,0-1.117,1.067,1.106,1.106,0,0,0,.979,1.067c0.5,0.145.689,0.23,0.689,0.446,0,0.135-.09.285-0.452,0.285a0.7,0.7,0,0,1-.7-0.485l-0.656.4A1.31,1.31,0,0,0,38.746,101Zm2.686,0a1.094,1.094,0,0,0,1.236-1.077,1.154,1.154,0,0,0-1.07-1.087C41.08,98.671,41,98.561,41,98.4a0.3,0.3,0,0,1,.357-0.266,0.584,0.584,0,0,1,.575.406l0.642-.4a1.286,1.286,0,0,0-1.217-.791,1.063,1.063,0,0,0-1.117,1.067,1.106,1.106,0,0,0,.979,1.067c0.5,0.145.689,0.23,0.689,0.446,0,0.135-.09.285-0.452,0.285a0.7,0.7,0,0,1-.7-0.485l-0.656.4A1.31,1.31,0,0,0,41.432,101Zm-11.34-.07H29.332V97.424h1.26a1.2,1.2,0,0,1,0,2.4h-0.5v1.1Zm7.037-2.735H35.822v0.581H37.01v0.761H35.822v0.621h1.331v0.772H35.061V97.424h2.068v0.771ZM32.9,100.93H32.137V97.424h1.331A1.183,1.183,0,0,1,34,99.642L34.7,100.93H33.887l-0.628-1.153H32.9v1.153Zm-2.306-2.755h-0.5v0.9h0.5A0.454,0.454,0,0,0,30.592,98.175Zm2.877,0H32.9v0.9h0.571A0.457,0.457,0,0,0,33.468,98.175Z"/>
  <path id="icon_customer" class="cls-1" d="M43,38a1,1,0,1,1-1-1,1,1,0,0,1,1,1m-3,0a1,1,0,1,1-1-1,1,1,0,0,1,1,1m-3,0a1,1,0,1,1-1-1,1,1,0,0,1,1,1m5.415,4.946a12.469,12.469,0,0,1-3.324.482C35.626,43.428,32,41.363,32,38c0-3.128,3.14-5.672,7-5.672,3.844,0,7,2.542,7,5.672a5.063,5.063,0,0,1-1.481,3.527l0.839,2.686ZM29.042,39.571l-4.389,1.9,1.256-4.012A6.836,6.836,0,0,1,24,32.756C24,28.479,28.262,25,33.5,25c5.018,0,9.128,3.194,9.467,7.222A9.266,9.266,0,0,0,39,31.333c-4.2,0-8,2.8-8,6.672a5.418,5.418,0,0,0,.411,2.049,17.824,17.824,0,0,1-2.369-.483M47,38a6.264,6.264,0,0,0-3-5.21c0-.013,0-0.026,0-0.039C44,27.67,39.012,24,33.5,24,27.954,24,23,27.7,23,32.756a7.71,7.71,0,0,0,1.791,4.922L23.047,43.25l6.078-2.625a17.647,17.647,0,0,0,2.85.489,8.384,8.384,0,0,0,7.116,3.314A12.992,12.992,0,0,0,42.333,44l4.631,2-1.328-4.245A5.885,5.885,0,0,0,47,38"/>
  <path id="icon_faq_on" class="cls-2" d="M102.484,178.7l-0.711-.7-2.552,2.607-1.539-1.452-0.7.709L99.234,182Zm0-5-0.711-.7-2.552,2.607-1.539-1.452-0.7.709L99.234,177Zm0-5-0.711-.7-2.552,2.607-1.539-1.452-0.7.709L99.234,172ZM113,180h-8v1h8v-1Zm0-5h-8v1h8v-1Zm0-5h-8v1h8v-1Zm4-5H93v20h24V165Zm-1,19H94V166h22v18Z"/>
  <path id="icon_guide_on" class="cls-2" d="M115,116H95a2,2,0,0,1-2-2V96h1v18.093a0.574,0.574,0,0,0,.508.608A0.509,0.509,0,0,0,95,114.144V94h22v20A2,2,0,0,1,115,116Zm1-21H96v20h19a1,1,0,0,0,1-1V95Zm-2,17v1H98v-1h16Zm0-3v1H98v-1h16Zm0-3v1h-6v-1h6Zm-8,1H98v-4h8v4Zm-1-3H99v2h6v-2Zm9-1v1h-6v-1h6Zm-5.254-2a1.094,1.094,0,0,0,1.236-1.077,1.155,1.155,0,0,0-1.07-1.087c-0.518-.165-0.6-0.275-0.6-0.436a0.3,0.3,0,0,1,.357-0.266,0.584,0.584,0,0,1,.575.406l0.642-.4a1.287,1.287,0,0,0-1.217-.791,1.064,1.064,0,0,0-1.118,1.067,1.106,1.106,0,0,0,.98,1.067c0.5,0.145.689,0.23,0.689,0.446,0,0.135-.09.285-0.452,0.285a0.7,0.7,0,0,1-.7-0.485l-0.657.4A1.311,1.311,0,0,0,108.746,101Zm2.686,0a1.093,1.093,0,0,0,1.236-1.077,1.155,1.155,0,0,0-1.07-1.087c-0.518-.165-0.6-0.275-0.6-0.436a0.3,0.3,0,0,1,.357-0.266,0.584,0.584,0,0,1,.575.406l0.642-.4a1.285,1.285,0,0,0-1.217-.791,1.063,1.063,0,0,0-1.117,1.067,1.106,1.106,0,0,0,.979,1.067c0.5,0.145.69,0.23,0.69,0.446,0,0.135-.091.285-0.452,0.285a0.7,0.7,0,0,1-.7-0.485l-0.656.4A1.309,1.309,0,0,0,111.432,101Zm-11.34-.07h-0.76V97.424h1.26a1.2,1.2,0,0,1,0,2.4h-0.5v1.1Zm7.037-2.735h-1.307v0.581h1.188v0.761h-1.188v0.621h1.331v0.772h-2.092V97.424h2.068v0.771ZM102.9,100.93h-0.761V97.424h1.331A1.183,1.183,0,0,1,104,99.642l0.708,1.288h-0.818l-0.627-1.153H102.9v1.153Zm-2.306-2.755h-0.5v0.9h0.5A0.454,0.454,0,0,0,100.592,98.175Zm2.876,0H102.9v0.9h0.57A0.457,0.457,0,0,0,103.468,98.175Z"/>
  <path id="icon_customer_on" class="cls-2" d="M113,38a1,1,0,1,1-1-1,1,1,0,0,1,1,1m-3,0a1,1,0,1,1-1-1,1,1,0,0,1,1,1m-3,0a1,1,0,1,1-1-1,1,1,0,0,1,1,1m5.415,4.946a12.47,12.47,0,0,1-3.324.482C105.626,43.428,102,41.363,102,38c0-3.128,3.14-5.672,7-5.672,3.844,0,7,2.542,7,5.672a5.063,5.063,0,0,1-1.481,3.527l0.839,2.686ZM99.042,39.571l-4.389,1.9,1.256-4.012A6.836,6.836,0,0,1,94,32.756C94,28.479,98.262,25,103.5,25c5.018,0,9.128,3.194,9.467,7.222A9.266,9.266,0,0,0,109,31.333c-4.2,0-8,2.8-8,6.672a5.418,5.418,0,0,0,.411,2.049,17.822,17.822,0,0,1-2.369-.483M117,38a6.264,6.264,0,0,0-3-5.21c0-.013,0-0.026,0-0.039C114,27.67,109.012,24,103.5,24,97.954,24,93,27.7,93,32.756a7.71,7.71,0,0,0,1.791,4.922L93.047,43.25l6.078-2.625a17.648,17.648,0,0,0,2.85.489,8.384,8.384,0,0,0,7.116,3.314A12.991,12.991,0,0,0,112.333,44l4.631,2-1.328-4.245A5.886,5.886,0,0,0,117,38"/>
</svg>
