<svg xmlns="http://www.w3.org/2000/svg" width="40" height="100" viewBox="0 0 40 100">
  <defs>
    <style>
      .cls-1 {
        fill: #999591;
      }

      .cls-1, .cls-2 {
        fill-rule: evenodd;
      }

      .cls-2 {
        fill: #001831;
      }
    </style>
  </defs>
  <path id="icon_bookmark" class="cls-1" d="M10,3.342l2.14,4.415L17,8.428l-3.538,3.4,0.864,4.829L10,14.343,5.674,16.657l0.864-4.829L3,8.428l4.86-.671Z"/>
  <path id="icon_instagram" class="cls-1" d="M16.957,32.885a3.864,3.864,0,0,1-4.071,4.072C12.139,36.99,11.9,37,10,37s-2.139-.008-2.886-0.042a3.865,3.865,0,0,1-4.072-4.072C3.007,32.138,3,31.9,3,30s0.008-2.14.042-2.886a3.864,3.864,0,0,1,4.072-4.071C7.861,23.006,8.1,23,10,23s2.14,0.008,2.887.042a3.864,3.864,0,0,1,4.071,4.071C16.992,27.859,17,28.1,17,30S16.992,32.138,16.957,32.885ZM15.7,27.17a2.631,2.631,0,0,0-2.87-2.87c-0.738-.034-0.96-0.04-2.829-0.04s-2.09.006-2.828,0.04A2.63,2.63,0,0,0,4.3,27.17c-0.033.738-.041,0.959-0.041,2.828s0.008,2.09.041,2.829A2.63,2.63,0,0,0,7.171,35.7c0.737,0.033.959,0.041,2.828,0.041s2.091-.007,2.829-0.041a2.631,2.631,0,0,0,2.87-2.869c0.033-.739.04-0.96,0.04-2.829S15.731,27.908,15.7,27.17ZM13.736,27.1a0.839,0.839,0,1,1,.84-0.839A0.84,0.84,0,0,1,13.736,27.1ZM10,33.593A3.595,3.595,0,1,1,13.594,30,3.595,3.595,0,0,1,10,33.593Zm0-5.928A2.333,2.333,0,1,0,12.333,30,2.333,2.333,0,0,0,10,27.665Z"/>
  <path id="icon_blog" class="cls-1" d="M15,54H12l-1.5,1.5a1.148,1.148,0,0,1-.5.5,1.149,1.149,0,0,1-.5-0.5L8,54H5a2.124,2.124,0,0,1-2-2V46a2.125,2.125,0,0,1,2-2H15a2.125,2.125,0,0,1,2,2v6A2.124,2.124,0,0,1,15,54ZM5.8,47.344a1.062,1.062,0,0,0-.869.408V46.121s-0.89.013-.949,0v4.266H4.936V50.141a1.059,1.059,0,0,0,.789.364,1.353,1.353,0,0,0,1.31-1.413A1.517,1.517,0,0,0,5.8,47.344Zm1.524-1.361V47a0.575,0.575,0,0,1,.448.5V50.4H8.705v-2.92A1.369,1.369,0,0,0,7.329,45.983Zm3.579,1.4a1.562,1.562,0,1,0,1.557,1.562A1.56,1.56,0,0,0,10.907,47.383ZM16,47.425H15.054v0.313a0.907,0.907,0,0,0-.809-0.394,1.405,1.405,0,0,0-1.3,1.377v0.465A1.27,1.27,0,0,0,14.1,50.507a0.842,0.842,0,0,0,.929-0.4c0.007,0.976-.575.919-0.575,0.919H14.205v0.961h0.421A1.41,1.41,0,0,0,16,50.507V47.425Zm-1.477,2.147a0.629,0.629,0,1,1,.575-0.627A0.6,0.6,0,0,1,14.519,49.572Zm-3.612.014a0.643,0.643,0,1,1,.588-0.641A0.616,0.616,0,0,1,10.907,49.586Zm-5.394-.03a0.6,0.6,0,1,1,.546-0.595A0.572,0.572,0,0,1,5.513,49.556Z"/>
  <path id="icon_post" class="cls-1" d="M15,74l-5,3L5,74c-1.558-1.015-2-1.9-2-3V65a2,2,0,0,1,2-2H15a2,2,0,0,1,2,2v6C17,72.1,16.5,72.984,15,74Zm-2-7a1,1,0,0,0-2,0v1.528L8.762,66.279a1.027,1.027,0,0,0-1.46,0s0,0.009-.009.013a1,1,0,0,0-.217.329c-0.009.023-.007,0.048-0.015,0.072A0.977,0.977,0,0,0,7,67v0.013H7V71a1,1,0,0,0,2,0V69.454l2.222,2.233a1.026,1.026,0,0,0,.732.3c0.016,0,.03.009,0.046,0.009a1,1,0,0,0,1-1V67Z"/>
  <path id="icon_youtube" class="cls-1" d="M8.25,92.333V87.666L12.917,90Zm6.192-7.476c-2.1-.143-6.785-0.143-8.884,0C3.285,85.012,3.017,86.386,3,90c0.017,3.608.283,4.987,2.558,5.143,2.1,0.143,6.782.143,8.885,0C16.715,94.987,16.983,93.614,17,90,16.983,86.392,16.717,85.013,14.442,84.857Z"/>
  <path id="icon_bookmark_on" class="cls-2" d="M30,3.342l2.14,4.415L37,8.428l-3.538,3.4,0.864,4.829L30,14.343l-4.326,2.313,0.864-4.829L23,8.428l4.86-.671Z"/>
  <path id="icon_instagram_on" class="cls-2" d="M36.957,32.885a3.864,3.864,0,0,1-4.071,4.072C32.139,36.99,31.9,37,30,37s-2.139-.008-2.886-0.042a3.865,3.865,0,0,1-4.072-4.072C23.007,32.138,23,31.9,23,30s0.008-2.14.042-2.886a3.864,3.864,0,0,1,4.072-4.071C27.861,23.006,28.1,23,30,23s2.14,0.008,2.887.042a3.864,3.864,0,0,1,4.071,4.071C36.992,27.859,37,28.1,37,30S36.992,32.138,36.957,32.885ZM35.7,27.17a2.631,2.631,0,0,0-2.87-2.87c-0.738-.034-0.96-0.04-2.829-0.04s-2.09.006-2.828,0.04a2.63,2.63,0,0,0-2.87,2.87c-0.033.738-.041,0.959-0.041,2.828s0.008,2.09.041,2.829a2.63,2.63,0,0,0,2.87,2.869c0.737,0.033.959,0.041,2.828,0.041s2.091-.007,2.829-0.041a2.631,2.631,0,0,0,2.87-2.869c0.033-.739.04-0.96,0.04-2.829S35.731,27.908,35.7,27.17ZM33.736,27.1a0.839,0.839,0,1,1,.84-0.839A0.84,0.84,0,0,1,33.736,27.1ZM30,33.593A3.595,3.595,0,1,1,33.594,30,3.595,3.595,0,0,1,30,33.593Zm0-5.928A2.333,2.333,0,1,0,32.333,30,2.333,2.333,0,0,0,30,27.665Z"/>
  <path id="icon_blog_on" class="cls-2" d="M35,54H32l-1.5,1.5a1.148,1.148,0,0,1-.5.5,1.149,1.149,0,0,1-.5-0.5L28,54H25a2.124,2.124,0,0,1-2-2V46a2.125,2.125,0,0,1,2-2H35a2.125,2.125,0,0,1,2,2v6A2.124,2.124,0,0,1,35,54ZM25.8,47.344a1.063,1.063,0,0,0-.869.408V46.121s-0.89.013-.949,0v4.266h0.949V50.141a1.059,1.059,0,0,0,.789.364,1.353,1.353,0,0,0,1.31-1.413A1.517,1.517,0,0,0,25.8,47.344Zm1.524-1.361V47a0.575,0.575,0,0,1,.448.5V50.4h0.929v-2.92A1.369,1.369,0,0,0,27.329,45.983Zm3.579,1.4a1.562,1.562,0,1,0,1.557,1.562A1.56,1.56,0,0,0,30.907,47.383ZM36,47.425H35.054v0.313a0.907,0.907,0,0,0-.809-0.394,1.405,1.405,0,0,0-1.3,1.377v0.465A1.27,1.27,0,0,0,34.1,50.507a0.842,0.842,0,0,0,.929-0.4c0.007,0.976-.575.919-0.575,0.919H34.205v0.961h0.421A1.41,1.41,0,0,0,36,50.507V47.425Zm-1.477,2.147a0.629,0.629,0,1,1,.575-0.627A0.6,0.6,0,0,1,34.519,49.572Zm-3.612.014a0.643,0.643,0,1,1,.588-0.641A0.616,0.616,0,0,1,30.907,49.586Zm-5.395-.03a0.6,0.6,0,1,1,.546-0.595A0.572,0.572,0,0,1,25.513,49.556Z"/>
  <path id="icon_post_on" class="cls-2" d="M35,74l-5,3-5-3c-1.558-1.015-2-1.9-2-3V65a2,2,0,0,1,2-2H35a2,2,0,0,1,2,2v6C37,72.1,36.5,72.984,35,74Zm-2-7a1,1,0,0,0-2,0v1.528l-2.238-2.249a1.027,1.027,0,0,0-1.46,0s0,0.009-.009.013a1,1,0,0,0-.217.329c-0.009.023-.007,0.048-0.014,0.072A0.977,0.977,0,0,0,27,67v0.013h0V71a1,1,0,0,0,2,0V69.454l2.222,2.233a1.026,1.026,0,0,0,.732.3c0.016,0,.03.009,0.046,0.009a1,1,0,0,0,1-1V67Z"/>
  <path id="icon_youtube_on" class="cls-2" d="M28.25,92.333V87.666L32.917,90Zm6.192-7.476c-2.1-.143-6.785-0.143-8.884,0C23.285,85.012,23.017,86.386,23,90c0.017,3.608.283,4.987,2.558,5.143,2.1,0.143,6.782.143,8.885,0C36.715,94.987,36.983,93.614,37,90,36.983,86.392,36.717,85.013,34.442,84.857Z"/>
</svg>
