<svg xmlns="http://www.w3.org/2000/svg" width="20" height="40" viewBox="0 0 20 40">
  <defs>
    <style>
      .cls-1 {
        fill: #cbbca7;
        fill-rule: evenodd;
      }
    </style>
  </defs>
  <path class="cls-1" d="M10,24.706l1.365,2.782,0.28,0.57,0.636,0.087,3.1,0.422-2.259,2.143-0.462.439,0.112,0.624,0.552,3.044-2.761-1.459L10,33.06l-0.566.3L6.673,34.817l0.551-3.044,0.113-.624-0.463-.439L4.616,28.568l3.1-.422,0.636-.087,0.28-.57L10,24.706m0-2.716L7.554,26.971,2,27.728l4.043,3.837-0.987,5.45L10,34.4l4.944,2.611-0.987-5.45L18,27.728l-5.555-.757L10,21.99h0Z"/>
  <path id="icon_star" class="cls-1" d="M10,1.985l2.445,4.983L18,7.726l-4.043,3.837,0.987,5.451L10,14.4,5.056,17.014l0.987-5.451L2,7.726l5.554-.757Z"/>
</svg>
