<svg xmlns="http://www.w3.org/2000/svg" width="20" height="40" viewBox="0 0 20 40">
  <defs>
    <style>
      .cls-1, .cls-4 {
        font-size: 20px;
      }

      .cls-1 {
        fill: #001831;
      }

      .cls-2, .cls-3, .cls-4 {
        font-family: "Noto Sans CJK KR";
        text-transform: uppercase;
      }

      .cls-2, .cls-4 {
        font-weight: 700;
      }

      .cls-3, .cls-5, .cls-7 {
        fill: #999591;
      }

      .cls-6 {
        fill: #fff;
      }

      .cls-6, .cls-7 {
        fill-rule: evenodd;
      }
    </style>
  </defs>
  <text id="_보유코인_:_0_코인_실제_결제금액_VAT별도_결제자_휴대폰_번호_5_000_부터_사용이_가능합" data-name="©  보유코인 : 0 코인  실제 결제금액 (VAT별도)  결제자 휴대폰 번호  5,000 © 부터 사용이 가능합" class="cls-1" x="1.878" y="56.886"><tspan class="cls-2">©</tspan><tspan class="cls-3" x="1.878" dy="72">보유코인 : 0 코인</tspan><tspan class="cls-3" x="1.878" dy="48">실제 결제금액 (VAT별도)</tspan><tspan class="cls-3" x="1.878" dy="48">결제자 휴대폰 번호</tspan><tspan x="1.878" dy="24"><tspan class="cls-4">5,000 © </tspan><tspan class="cls-5">부터 사용이 가능합니다.</tspan></tspan></text>
  <path id="icon_coin" class="cls-6" d="M10,4a6,6,0,1,1-6,6A6,6,0,0,1,10,4Zm0.931,7.37a1.1,1.1,0,0,1-.828.288A1.1,1.1,0,0,1,9.226,11.3,2.06,2.06,0,0,1,8.915,9.98a1.971,1.971,0,0,1,.261-1.139,1.143,1.143,0,0,1,.994-0.489,1.193,1.193,0,0,1,.518.111,1.085,1.085,0,0,1,.392.316,1.312,1.312,0,0,1,.185.387l1.685-.351a2.6,2.6,0,0,0-.992-1.358,3.3,3.3,0,0,0-1.835-.442,3.226,3.226,0,0,0-2.307.771A2.891,2.891,0,0,0,7,9.992a3.111,3.111,0,0,0,.463,1.768,2.555,2.555,0,0,0,1.1.964A4.216,4.216,0,0,0,10.212,13a3.562,3.562,0,0,0,1.367-.225,2.282,2.282,0,0,0,.9-0.667A2.807,2.807,0,0,0,13.01,11l-1.673-.473A1.731,1.731,0,0,1,10.931,11.368Z"/>
  <path id="icon_coin-2" data-name="icon_coin" class="cls-7" d="M10,24a6,6,0,1,1-6,6A6,6,0,0,1,10,24Zm0.931,7.369a1.1,1.1,0,0,1-.828.289A1.1,1.1,0,0,1,9.226,31.3a2.06,2.06,0,0,1-.312-1.319,1.971,1.971,0,0,1,.261-1.14,1.143,1.143,0,0,1,.995-0.489,1.193,1.193,0,0,1,.518.111,1.082,1.082,0,0,1,.392.316,1.307,1.307,0,0,1,.185.387l1.685-.351a2.6,2.6,0,0,0-.992-1.358,3.291,3.291,0,0,0-1.835-.443,3.227,3.227,0,0,0-2.307.771A2.891,2.891,0,0,0,7,29.992a3.11,3.11,0,0,0,.463,1.768,2.553,2.553,0,0,0,1.1.964A4.211,4.211,0,0,0,10.212,33a3.566,3.566,0,0,0,1.367-.225,2.284,2.284,0,0,0,.9-0.667A2.8,2.8,0,0,0,13.01,31l-1.673-.474A1.73,1.73,0,0,1,10.931,31.368Z"/>
</svg>
