<svg xmlns="http://www.w3.org/2000/svg" width="60" height="30" viewBox="0 0 60 30">
  <defs>
    <style>
      .cls-1 {
        fill: #001831;
      }

      .cls-1, .cls-2 {
        fill-rule: evenodd;
      }

      .cls-2 {
        fill: #fff;
      }
    </style>
  </defs>
  <path id="icon_guide" class="cls-1" d="M6.848,22H6a3,3,0,0,1-3-3V16C3,8.825,8.377,3,15,3S27,8.825,27,16v3a3,3,0,0,1-3,3H23.152A9.457,9.457,0,0,1,15,27,9.457,9.457,0,0,1,6.848,22ZM23,16.123a0.913,0.913,0,0,1-1.269-.8,9.027,9.027,0,0,0-.053-0.914,4.455,4.455,0,0,1-3.7-3.723c-1.315,2-4.526,4.17-7.045,4.17a5.924,5.924,0,0,0,1.9-3.508,9.038,9.038,0,0,1-4.55,3.487c-0.009.163-.018,0.326-0.018,0.489a0.913,0.913,0,0,1-1.269.8v3.772a2.855,2.855,0,0,0,1.041.594,0.9,0.9,0,0,1,.522.424C10.768,24.959,13.988,25,15,25a6.739,6.739,0,0,0,5.877-3.169,10.814,10.814,0,0,1-3.758.653A2.474,2.474,0,0,1,15,23.5a2.107,2.107,0,0,1-2.333-1.75A2.107,2.107,0,0,1,15,20a2.48,2.48,0,0,1,2.111,1c1.9-.026,4.337-0.334,5.889-2.645V16.123ZM12,15.5A1.391,1.391,0,0,1,13.242,17,1.39,1.39,0,0,1,12,18.5,1.39,1.39,0,0,1,10.757,17,1.391,1.391,0,0,1,12,15.5Zm6,0A1.391,1.391,0,0,1,19.242,17,1.39,1.39,0,0,1,18,18.5,1.39,1.39,0,0,1,16.757,17,1.391,1.391,0,0,1,18,15.5ZM23.478,14h1.356C23.979,8.882,19.9,5,15,5S6.021,8.882,5.165,14H6.522C7.042,9.977,9.933,6.278,15,6.278S22.958,9.977,23.478,14Z"/>
  <path id="icon_guide_on" class="cls-2" d="M36.848,22H36a3,3,0,0,1-3-3V16C33,8.825,38.377,3,45,3S57,8.825,57,16v3a3,3,0,0,1-3,3H53.152A9.146,9.146,0,0,1,36.848,22ZM53,16.123a0.913,0.913,0,0,1-1.269-.8,9.027,9.027,0,0,0-.053-0.914,4.455,4.455,0,0,1-3.7-3.723c-1.315,2-4.526,4.17-7.045,4.17a5.924,5.924,0,0,0,1.9-3.508,9.038,9.038,0,0,1-4.55,3.487c-0.009.163-.018,0.326-0.018,0.489a0.913,0.913,0,0,1-1.269.8v3.772a2.856,2.856,0,0,0,1.041.594,0.9,0.9,0,0,1,.521.424C40.768,24.959,43.988,25,45,25a6.739,6.739,0,0,0,5.877-3.169,10.814,10.814,0,0,1-3.758.653A2.474,2.474,0,0,1,45,23.5a2.107,2.107,0,0,1-2.333-1.75A2.107,2.107,0,0,1,45,20a2.48,2.48,0,0,1,2.112,1c1.9-.026,4.336-0.334,5.888-2.645V16.123ZM42,15.5A1.391,1.391,0,0,1,43.242,17a1.265,1.265,0,1,1-2.485,0A1.391,1.391,0,0,1,42,15.5Zm6,0A1.391,1.391,0,0,1,49.242,17a1.265,1.265,0,1,1-2.485,0A1.391,1.391,0,0,1,48,15.5ZM53.478,14h1.356C53.979,8.882,49.9,5,45,5s-8.979,3.882-9.835,9h1.356C37.042,9.977,39.933,6.278,45,6.278S52.958,9.977,53.478,14Z"/>
</svg>
