<svg xmlns="http://www.w3.org/2000/svg" width="20" height="60" viewBox="0 0 20 60">
  <defs>
    <style>
      .cls-1, .cls-2 {
        fill: #e5e2e1;
        fill-rule: evenodd;
      }

      .cls-1 {
        opacity: 0.8;
      }
    </style>
  </defs>
  <path id="icon_time" class="cls-1" d="M13,11H9V7h1v3h3v1ZM10,4a6,6,0,1,0,6,6A6,6,0,0,0,10,4Z"/>
  <path id="thumb-9" class="cls-2" d="M15.308,30.794c-0.429-.057-0.289-0.367.016-0.461A0.8,0.8,0,0,0,16,29.578c0-.336-0.25-0.781-1.136-0.745a6.05,6.05,0,0,1-2.489-.443c0.453-1.828.344-4.391-.844-4.391-0.8,0-.948.9-1.188,1.734C9.733,27.855,9.187,28.566,8,29v6c2.191,0.35,2.672,1,4.753,1,1.6,0,2.426-.867,2.426-1.333,0-.167-0.136-0.286-0.48-0.313-0.405-.031-0.367-0.406.016-0.477a0.923,0.923,0,0,0,.913-0.772,0.634,0.634,0,0,0-.549-0.591c-0.418-.095-0.332-0.379.016-0.406a0.792,0.792,0,0,0,.844-0.705A0.644,0.644,0,0,0,15.308,30.794ZM6,35H4V29H6v6Z"/>
  <path id="eye-3" class="cls-2" d="M10,54a4.34,4.34,0,0,1-4-4,4.341,4.341,0,0,1,4-4,4.341,4.341,0,0,1,4,4A4.34,4.34,0,0,1,10,54Zm0-9c-5.049,0-8.006,5-8.006,5S5.21,55,10,55c5.159,0,8.006-5,8.006-5S15.133,45,10,45Zm2,5a1.9,1.9,0,0,1-2,2,1.9,1.9,0,0,1-2-2c0-.152.016-0.881,0-1,1.042,0.049,1.038-.015,1-1,0.089,0.008.877,0,1,0A1.9,1.9,0,0,1,12,50Z"/>
</svg>
