<svg xmlns="http://www.w3.org/2000/svg" width="30" height="30" viewBox="0 0 30 30">
  <defs>
    <style>
      .cls-1 {
        fill: #cbbca7;
        fill-rule: evenodd;
      }

      .cls-2 {
        font-size: 13px;
        fill: #001831;
        font-family: "Noto Sans CJK KR";
      }
    </style>
  </defs>
  <path id="icon_link" class="cls-1" d="M23.4,14.133L19.82,17.714a5.348,5.348,0,0,1-7.565,0,5.008,5.008,0,0,1-.663-0.817l1.868-1.868a2.97,2.97,0,0,0,.605.874,2.794,2.794,0,0,0,3.944,0l3.582-3.581a2.789,2.789,0,1,0-3.944-3.944l-1.1,1.1A7.1,7.1,0,0,0,13.4,9l2.437-2.437A5.35,5.35,0,1,1,23.4,14.133Zm-5.025-1.061L16.508,14.94a2.816,2.816,0,0,0-3.19-1.622,2.773,2.773,0,0,0-1.359.747L8.378,17.647a2.789,2.789,0,0,0,3.944,3.943l1.1-1.1a7.091,7.091,0,0,0,3.144.478L14.132,23.4a5.35,5.35,0,1,1-7.565-7.566l3.582-3.581A5.341,5.341,0,0,1,18.377,13.072ZM6.567,75.836l3.582-3.582a5.341,5.341,0,0,1,8.228.818L16.508,74.94a2.815,2.815,0,0,0-3.19-1.621,2.772,2.772,0,0,0-1.359.747L8.378,77.647a2.789,2.789,0,0,0,3.944,3.943l1.1-1.1a7.091,7.091,0,0,0,3.144.478L14.132,83.4A5.35,5.35,0,0,1,6.567,75.836Zm8.213,3.3a5.324,5.324,0,0,1-2.526-1.417,5.027,5.027,0,0,1-.663-0.817l1.868-1.868a2.97,2.97,0,0,0,.605.874,2.794,2.794,0,0,0,3.944,0l3.582-3.582a2.789,2.789,0,0,0-3.944-3.943l-1.1,1.1A7.094,7.094,0,0,0,13.4,69l2.437-2.437A5.35,5.35,0,1,1,23.4,74.133L19.82,77.714A5.342,5.342,0,0,1,14.78,79.132Z"/>
  <text id="Lorem_Ipsum" data-name="Lorem Ipsum" class="cls-2" x="98.764" y="31.124">Lorem Ipsum</text>
</svg>
