<svg xmlns="http://www.w3.org/2000/svg" width="30" height="30" viewBox="0 0 30 30">
  <defs>
    <style>
      .cls-1 {
        fill: #cbbca7;
        fill-rule: evenodd;
      }
    </style>
  </defs>
  <path id="favorite-4" class="cls-1" d="M9.281,4A6.044,6.044,0,0,0,3,10.192C3,14.853,8.57,19.619,15,26c6.43-6.381,12-11.147,12-15.808A6.03,6.03,0,0,0,20.726,4.01,6.534,6.534,0,0,0,15,7.248,6.527,6.527,0,0,0,9.281,4Zm0,2c3.235,0,4.973,3.491,5.72,5.031,0.75-1.547,2.469-5.022,5.726-5.022A4.057,4.057,0,0,1,25,10.192c0,3.443-4.744,7.851-10,13-5.258-5.151-10-9.559-10-13A4.048,4.048,0,0,1,9.28,6Z"/>
</svg>
