<svg xmlns="http://www.w3.org/2000/svg" width="60" height="30" viewBox="0 0 60 30">
  <defs>
    <style>
      .cls-1 {
        fill: #001831;
      }

      .cls-1, .cls-2 {
        fill-rule: evenodd;
      }

      .cls-2 {
        fill: #fff;
      }
    </style>
  </defs>
  <path id="icon_search" class="cls-1" d="M23.715,23.715a0.96,0.96,0,0,1-1.358,0L18.932,20.29a8.017,8.017,0,1,1,1.358-1.358l3.425,3.425A0.96,0.96,0,0,1,23.715,23.715ZM14,8.214A5.786,5.786,0,1,0,19.786,14,5.786,5.786,0,0,0,14,8.214Z"/>
  <path id="icon_search_on" class="cls-2" d="M53.715,23.715a0.96,0.96,0,0,1-1.358,0L48.932,20.29a8.017,8.017,0,1,1,1.358-1.358l3.425,3.425A0.96,0.96,0,0,1,53.715,23.715ZM44,8.214A5.786,5.786,0,1,0,49.786,14,5.786,5.786,0,0,0,44,8.214Z"/>
</svg>
