<svg xmlns="http://www.w3.org/2000/svg" width="90" height="30" viewBox="0 0 90 30">
  <defs>
    <style>
      .cls-1 {
        fill: #001831;
      }

      .cls-1, .cls-2 {
        fill-rule: evenodd;
      }

      .cls-2 {
        fill: #cbbca7;
      }
    </style>
  </defs>
  <path id="phone-9_copy" data-name="phone-9 copy" class="cls-1" d="M19.5,20.31l-1.76-3.4s-0.987.485-1.032,0.505c-1.12.543-3.4-3.91-2.305-4.5l1.042-.513L13.7,9l-1.053.519c-3.6,1.878,2.117,12.991,5.8,11.308C18.506,20.8,19.5,20.312,19.5,20.31ZM15,3A12,12,0,1,0,27,15,12,12,0,0,0,15,3Zm0,2A10,10,0,1,1,5,15,10.012,10.012,0,0,1,15,5Z"/>
  <path id="phone-9" class="cls-2" d="M49.5,20.31l-1.76-3.4s-0.987.485-1.032,0.505c-1.12.543-3.4-3.91-2.305-4.5l1.041-.513L43.7,9l-1.053.52c-3.6,1.877,2.117,12.991,5.8,11.308C48.506,20.8,49.5,20.312,49.5,20.31ZM45,3A12,12,0,1,0,57,15,12,12,0,0,0,45,3Zm0,2A10,10,0,1,1,35,15,10.011,10.011,0,0,1,45,5Z"/>
  <path id="phone-8" class="cls-2" d="M78.445,20.827c-3.684,1.684-9.4-9.43-5.8-11.308L73.7,9l1.746,3.409-1.041.513c-1.095.587,1.185,5.04,2.305,4.5,0.045-.02,1.028-0.5,1.032-0.505l1.76,3.4S78.506,20.8,78.445,20.827ZM75,3A12,12,0,1,0,87,15,12,12,0,0,0,75,3Z"/>
</svg>
