<svg xmlns="http://www.w3.org/2000/svg" width="140" height="70" viewBox="0 0 140 70">
  <defs>
    <style>
      .cls-1 {
        fill: #001831;
      }

      .cls-1, .cls-2, .cls-3 {
        fill-rule: evenodd;
      }

      .cls-2 {
        fill: #d4373c;
      }

      .cls-3 {
        fill: #fff;
      }
    </style>
  </defs>
  <path class="cls-1" d="M86.345,63.583c-0.045.181-.135,0.32-0.333,0.184a1.026,1.026,0,0,0-.944-0.157c-0.11.037-.082-0.024-0.111-0.068-0.192-.312-0.3-0.32-0.494-0.034a0.989,0.989,0,0,1-.249.267,0.766,0.766,0,0,0-.529-0.521,0.1,0.1,0,0,0-.126.032,0.173,0.173,0,0,0-.016.134,0.518,0.518,0,0,0,.206.26c0.132,0.067.03,0.106,0,.174-0.1.229-.291-0.146-0.345,0.046-0.06.215-.209,0.132-0.335,0.17-0.551.17-1.1-.127-1.646,0a0.143,0.143,0,0,1-.124-0.038c-0.155-.491-0.537-0.247-0.778-0.176a4.121,4.121,0,0,1-.6.142,0.5,0.5,0,0,0-.268.066c-0.2.141-.2,0.222,0.009,0.338a0.768,0.768,0,0,1,.416.288c0.067,0.13.194,0.036,0.293-.023,0.16-.1.213,0.023,0.211,0.142,0,0.093.1,0.236-.16,0.249a1.949,1.949,0,0,0-1.047.19A0.279,0.279,0,0,1,79.1,65.23a1.178,1.178,0,0,0-1.25.009c-0.053.033-.116,0.062-0.157-0.022-0.16-.331-0.446-0.142-0.68-0.156a1.528,1.528,0,0,1-.221.07,4.2,4.2,0,0,0-1.3-.25,2.164,2.164,0,0,0-1.172-.037,0.181,0.181,0,0,1-.236-0.106,0.46,0.46,0,0,0-.327-0.323,1.037,1.037,0,0,0-.379.188,0.749,0.749,0,0,1-.606,0,0.714,0.714,0,0,0-.874.1c-0.022-.364-0.162-0.468-0.472-0.365a1.877,1.877,0,0,1-.514-0.054,5.436,5.436,0,0,0-.844.078,1.9,1.9,0,0,1-.989-0.1,0.589,0.589,0,0,0-.638-0.026,0.137,0.137,0,0,1-.18-0.016,1.3,1.3,0,0,0-1.117-.246,4.241,4.241,0,0,1-.848-0.013,4.654,4.654,0,0,0-1.317-.117,3.5,3.5,0,0,1-1.338-.3,0.87,0.87,0,0,0-.706.012,0.472,0.472,0,0,1-.377.019,2.5,2.5,0,0,0-1.166-.166,9.89,9.89,0,0,1-1.749-.333,0.457,0.457,0,0,0-.35.015,1.045,1.045,0,0,1-.822-0.1,1.868,1.868,0,0,0-.826-0.191,1.508,1.508,0,0,1-1.108-.33,0.676,0.676,0,0,0-.584-0.143,0.648,0.648,0,0,1-.541-0.123,1.651,1.651,0,0,0-.693-0.064,0.585,0.585,0,0,1-.372-0.061,2.125,2.125,0,0,0-1.1-.447,1.6,1.6,0,0,1-.831-0.453,0.518,0.518,0,0,0-.279-0.18,0.926,0.926,0,0,1-.642-0.535c-0.079-.116-0.127-0.293-0.317-0.125a0.094,0.094,0,0,1-.13,0,2.248,2.248,0,0,1-.8-1.153,1.172,1.172,0,0,1-.087-0.749,0.062,0.062,0,0,0,.008-0.046c-0.384-.362-0.072-0.833-0.195-1.238a2.136,2.136,0,0,1,.136-1.692,0.627,0.627,0,0,0,.039-0.644,0.287,0.287,0,0,1,.087-0.391,0.745,0.745,0,0,0,.276-0.581,2.248,2.248,0,0,1,.567-0.98,0.534,0.534,0,0,0,.179-0.418,0.573,0.573,0,0,1,.513-0.636,0.321,0.321,0,0,1,.334.081,0.761,0.761,0,0,0,.71.32,0.155,0.155,0,0,1,.146.108,2.05,2.05,0,0,0,.7.671,0.563,0.563,0,0,1,.237.5,0.62,0.62,0,0,0,.359.626,0.2,0.2,0,0,1,.125.272,1.518,1.518,0,0,0,.571,1.363,1,1,0,0,1,.405.517c0.016,0.151.154,0.147,0.267,0.13a0.21,0.21,0,0,1,.259.157,0.64,0.64,0,0,0,.505.453,6.247,6.247,0,0,0,.6.354c0.286,0.043.377,0,.343-0.267a1.652,1.652,0,0,1,.149-1.075,0.309,0.309,0,0,0,0-.185,1.42,1.42,0,0,1,.112-0.794c0.073-.189.076-0.433,0.145-0.584a3.375,3.375,0,0,1,.213-0.806c0.145-.187-0.047-0.544.306-0.644A2.4,2.4,0,0,1,58.38,52.3a0.335,0.335,0,0,1,.068-0.177,1.972,1.972,0,0,0,.213-1.02,2.63,2.63,0,0,1,.5-1.579,0.383,0.383,0,0,0,.1-0.436,2.525,2.525,0,0,0-.05-0.882,0.1,0.1,0,0,1,.049-0.059c0.361-.069.264-0.357,0.265-0.578a2.957,2.957,0,0,1,.359-1.309,0.315,0.315,0,0,0,.027-0.22c-0.047-.267-0.067-0.539-0.114-0.806a0.321,0.321,0,0,1,.138-0.332,0.447,0.447,0,0,0,.213-0.574,0.586,0.586,0,0,1,.115-0.487,1.7,1.7,0,0,0,.148-0.882,2.655,2.655,0,0,1,.188-1.28,1.816,1.816,0,0,0,.047-0.629,5.864,5.864,0,0,0,.407-1.156,0.412,0.412,0,0,1,.174-0.271,0.277,0.277,0,0,0,.081-0.411c-0.134-.275-0.11-0.347.2-0.429,0.244-.065.216-0.205,0.088-0.284a0.329,0.329,0,0,1-.165-0.323,1.6,1.6,0,0,0-.9-1.383,0.651,0.651,0,0,1-.263-0.192,0.335,0.335,0,0,0-.2-0.132,1.433,1.433,0,0,1-.968-0.474,0.5,0.5,0,0,0-.243-0.148,3.874,3.874,0,0,1-.937-0.445c-0.068-.023-0.123-0.039-0.119-0.115,0.018-.312-0.308-0.49-0.314-0.793a0.1,0.1,0,0,0-.043-0.081c-0.407-.063-0.467-0.555-0.835-0.666a0.8,0.8,0,0,1-.389-0.406c-0.185-.287-0.479-0.462-0.659-0.728s-0.345-.519-0.531-0.77c-0.079-.106.067-0.242-0.01-0.4-0.166-.338-0.259-0.71-0.412-1.054A6.732,6.732,0,0,1,54,27.977a2.838,2.838,0,0,0-.21-1.2c-0.064-.123-0.124-0.229.1-0.262,0.053-.009.034-0.154-0.011-0.219a2.782,2.782,0,0,1-.248-0.972,0.411,0.411,0,0,1,.255-0.55,0.279,0.279,0,0,0,.127-0.06c-0.009-.437.488-0.5,0.619-0.829a0.212,0.212,0,0,1,.3-0.153,2.567,2.567,0,0,1,.441-0.14c0.257-.319.548-0.066,0.8-0.008,0.224,0.052.45,0.107,0.671,0.161a6.054,6.054,0,0,1,.889.278,0.861,0.861,0,0,0,.457.081,0.5,0.5,0,0,1,.326.059,2.471,2.471,0,0,0,1.557.165,7.092,7.092,0,0,0,.877-0.067,1.475,1.475,0,0,1,.46,0,0.285,0.285,0,0,0,.311-0.086,0.672,0.672,0,0,1,.591-0.27,5.053,5.053,0,0,0,.857-0.377,0.4,0.4,0,0,1,.346,0,0.38,0.38,0,0,0,.6-0.212,0.688,0.688,0,0,1,.511-0.394A0.586,0.586,0,0,1,64.9,22.9a2,2,0,0,0,.441-0.131c0.259,0.025.011-.215,0.094-0.318,0.069-.085.091-0.23,0.244-0.122a0.3,0.3,0,0,0,.386-0.066,5.253,5.253,0,0,0,1.04-.911,1.684,1.684,0,0,1,1.15-.837,0.213,0.213,0,0,0,.164-0.161c0.033-.072.052-0.151,0.078-0.226a0.725,0.725,0,0,1,.554-0.546,0.862,0.862,0,0,1,.738.542,2.886,2.886,0,0,1,0,1.822,0.457,0.457,0,0,0-.027.282,1.392,1.392,0,0,1-.065.749,2.918,2.918,0,0,0-.034.892,0.5,0.5,0,0,1-.122.52,0.783,0.783,0,0,0-.026.528,0.423,0.423,0,0,1-.034.367,0.527,0.527,0,0,0-.061.549c0.149,0.412.071,0.85,0.19,1.268a0.586,0.586,0,0,1-.065.675,0.1,0.1,0,0,0-.023.09,2.845,2.845,0,0,1-.035,1.132,2.587,2.587,0,0,1-.139,1.351,3.751,3.751,0,0,0-.049,1.169,1.071,1.071,0,0,1-.082.393,0.858,0.858,0,0,0-.121.733,0.739,0.739,0,0,1-.182.643,1.6,1.6,0,0,0-.23.938c-0.034.171,0.061,0.394-.255,0.422-0.123.011-.079,0.191-0.067,0.3a0.733,0.733,0,0,1-.274.852,0.237,0.237,0,0,0-.065.306,0.411,0.411,0,0,1-.02.414,4.366,4.366,0,0,0-.482.953,0.5,0.5,0,0,0-.124.254,3.159,3.159,0,0,1,.032.662,2.888,2.888,0,0,0-.283.542,0.3,0.3,0,0,1-.133.293,0.164,0.164,0,0,0-.052.248,0.2,0.2,0,0,1-.082.311c-0.152.1-.151,0.287,0.091,0.349,0.067,0.017.146,0.052,0.112,0.118-0.164.33,0.1,0.743-.26,1.057a0.769,0.769,0,0,0-.292.85,0.169,0.169,0,0,1-.014.14,1.32,1.32,0,0,0-.159.876,1.626,1.626,0,0,1-.372,1.221,0.267,0.267,0,0,0-.025.318,0.5,0.5,0,0,1-.083.537,0.452,0.452,0,0,0-.135.4,0.283,0.283,0,0,1-.178.417,0.143,0.143,0,0,0-.068.168,1.422,1.422,0,0,1-.085.48c0,0.292-.167.535-0.156,0.813A3.033,3.033,0,0,1,64.918,49a0.409,0.409,0,0,0,.019.564,0.242,0.242,0,0,1-.071.377,0.928,0.928,0,0,0-.294.774,0.437,0.437,0,0,1-.192.452,1.351,1.351,0,0,0-.1.442,0.484,0.484,0,0,0-.319.223,4.893,4.893,0,0,1-.182.639c-0.13.349-.274,0.692-0.42,1.035a1.2,1.2,0,0,0-.021.52,0.69,0.69,0,0,1-.3.741,0.322,0.322,0,0,0-.14.414,0.362,0.362,0,0,1-.051.355,0.63,0.63,0,0,0-.244.717c0.044,0.084-.078.071-0.118,0.108a1.1,1.1,0,0,0-.36.646,0.753,0.753,0,0,1-.737.754,0.791,0.791,0,0,1-.039.842c-0.123.137,0.017,0.321,0.161,0.394a2.488,2.488,0,0,0,1.121.4,0.3,0.3,0,0,0,.14,0,3.525,3.525,0,0,1,.856-0.2c0.119-.075.059,0.049,0.076,0.082a0.561,0.561,0,0,0,.968.156,0.216,0.216,0,0,1,.286-0.086,0.575,0.575,0,0,0,.624.1,0.146,0.146,0,0,1,.137.022,0.526,0.526,0,0,0,.68.17,0.085,0.085,0,0,1,.109.067c0.043,0.322.28,0.291,0.51,0.3a1.69,1.69,0,0,1,.376.085,1.084,1.084,0,0,0,.766.022,0.428,0.428,0,0,1,.493.052,5.223,5.223,0,0,0,.861.207,1.32,1.32,0,0,0,.186-0.232,1.66,1.66,0,0,0,1,.443c0.289,0.073.591,0.089,0.88,0.193a1.084,1.084,0,0,0,.758.048,0.781,0.781,0,0,1,.433.066c0.744,0.174,1.465.644,2.277,0.25a0.354,0.354,0,0,1,.562.144,0.329,0.329,0,0,0,.369.178,1.534,1.534,0,0,1,.873.052c0.557,0.078.555,0.094,0.647-.417a0.171,0.171,0,0,1,.082.033c0.095,0.432.149,0.47,0.7,0.482a2.523,2.523,0,0,1,.6-0.093,4.53,4.53,0,0,0,.5.259,0.244,0.244,0,0,0,.266.018,0.1,0.1,0,0,1,.166.008,0.175,0.175,0,0,1-.008.223c-0.053.058-.135,0.087-0.195,0.14a0.166,0.166,0,0,0-.045.217,0.134,0.134,0,0,0,.237,0c0.067-.089.119-0.107,0.158,0a1.1,1.1,0,0,0,.945.72c0.19,0.03.211,0.135,0.131,0.485,0.153,0.009.288-.06,0.251-0.209a0.765,0.765,0,0,0-.328-0.606c-0.323-.176-0.313-0.233-0.072-0.577a0.181,0.181,0,0,0,0-.092,0.437,0.437,0,0,0-.371.011,0.216,0.216,0,0,1-.264-0.038,0.389,0.389,0,0,1,.058-0.321c0.032-.107.121-0.075,0.2-0.075a6.975,6.975,0,0,1,1.8.158c0.11,0.03.276,0.071,0.218-.172s0.125-.232.263-0.19a0.285,0.285,0,0,1,.249.2c0.012,0.156.092,0.169,0.22,0.178a0.58,0.58,0,0,1,.577.356,0.232,0.232,0,0,0,.186.138c0.084,0.017.172,0.025,0.169-.093,0-.091-0.081-0.2.024-0.262a0.392,0.392,0,0,1,.374-0.013c0.19,0.106.33,0.2,0.419-.108A0.191,0.191,0,0,1,85.28,61.8c0.2,0.269.343,0.025,0.476-.047a0.249,0.249,0,0,1,.114.229c0.01,0.079.033,0.156,0.063,0.284a0.916,0.916,0,0,0-.5-0.012,0.135,0.135,0,0,0-.106.139,0.119,0.119,0,0,0,.141.1c0.194-.047.331-0.056,0.387,0.2a0.144,0.144,0,0,0,.283.028,0.546,0.546,0,0,1,.466-0.256,0.6,0.6,0,0,0,.524-0.625c0.2,0,.181.143,0.215,0.239,0.1,0.28.167,0.34,0.4,0.2a0.534,0.534,0,0,1,.407-0.051,5.4,5.4,0,0,1,1.141.127,0.279,0.279,0,0,0,.19-0.005,0.937,0.937,0,0,1,.876.036,0.192,0.192,0,0,0,.223-0.034,0.7,0.7,0,0,1,.157-0.093c0.266,0.347.518-.036,0.776-0.011s0.543,0.038.815,0.055l0.1,0.005a1.248,1.248,0,0,1,.278-0.21,0.517,0.517,0,0,0,.328.147,4.86,4.86,0,0,0,.674-0.066,1.008,1.008,0,0,1,.857.052,0.2,0.2,0,0,0,.1-0.276,0.118,0.118,0,0,1,.146-0.138c0.021,0,.673.194,0.7,0.213a0.137,0.137,0,0,0,.2-0.053,0.754,0.754,0,0,1,.206-0.313c-0.026.239-.131,0.543,0.252,0.5,0.248-.024-0.032-0.255.109-0.352,0.1,0.006.073,0.109,0.1,0.169a0.4,0.4,0,0,0,.7.108,1.92,1.92,0,0,1,.282-0.232c0.193-.172.332-0.322,0.414,0.081a0.155,0.155,0,0,0,.275.031,0.514,0.514,0,0,1,.7-0.071,0.68,0.68,0,0,0,.542-0.017,3.291,3.291,0,0,1,1.243-.132c0.3,0.016.652,0.173,0.826-.366,0.086,0.325.214,0.4,0.459,0.286s0.546-.036.8-0.167a0.152,0.152,0,0,1,.177.046,0.464,0.464,0,0,0,.643,0c0.288-.155.288-0.155,0.193-0.529a0.319,0.319,0,0,1,.477.161,0.3,0.3,0,0,0,.447.144,0.572,0.572,0,0,1,.536.031,0.819,0.819,0,0,0,.1-0.327,0.166,0.166,0,0,1,.087-0.012,1.286,1.286,0,0,0,1.111-.007,5.038,5.038,0,0,1,.706-0.14,3.061,3.061,0,0,0,.9-0.377,0.322,0.322,0,0,1,.348.025,1.613,1.613,0,0,0,1.275.014,0.14,0.14,0,0,0,.105-0.184,0.311,0.311,0,0,1,.241-0.323c0.127,0.149-.131.2-0.068,0.347,0.13,0.039.269,0.078,0.327-.122a0.157,0.157,0,0,1,.2-0.137c0.406,0.064.406,0.06,0.584-.26a1.316,1.316,0,0,0,1.577.009c-0.017-.193-0.293-0.18-0.318-0.386a0.3,0.3,0,0,1,.4.114c0.149,0.183.323,0.335,0.558,0.093a0.269,0.269,0,0,1,.184-0.05,1.314,1.314,0,0,0,1.041-.637,0.589,0.589,0,0,0-.34-0.081,1.774,1.774,0,0,1,.246-0.2c0.191-.108.249-0.06,0.232,0.194-0.011.171,0.1,0.225,0.2,0.136a1.977,1.977,0,0,1,.828-0.339,6.508,6.508,0,0,1,1.421-.471c0.245-.012.283-0.149,0.266-0.561a1.01,1.01,0,0,0,.356.364,3.771,3.771,0,0,1-.562.358,0.274,0.274,0,0,0,.368.24,0.343,0.343,0,0,0,.312-0.258,1.046,1.046,0,0,1,.934-0.957,0.467,0.467,0,0,1,.262-0.066c-0.041.185,0.215,0.4-.092,0.563a0.1,0.1,0,0,0,.153.049,2.438,2.438,0,0,1,.876-0.408,0.268,0.268,0,0,0,.2-0.36,0.694,0.694,0,0,1,.56-0.711c0.165-.042.191,0.049,0.253,0.139,0.079,0.115.009,0.166-.076,0.23a0.554,0.554,0,0,0-.269.193c-0.013.029-.023,0.059-0.044,0.111a0.28,0.28,0,0,0,.3-0.012c0.391-.187.8-0.328,1.2-0.479a0.625,0.625,0,0,0,.519-0.643,0.12,0.12,0,0,1,.123-0.156c0.065-.007.129-0.012,0.193-0.024a0.34,0.34,0,0,0,.373-0.235,0.278,0.278,0,0,0-.311-0.249c0.071-.143.189-0.225,0.266-0.121a1.121,1.121,0,0,1,.344.375,0.774,0.774,0,0,0,.112.465,0.645,0.645,0,0,1-.6.4c-0.014,0-.026-0.024-0.04-0.025-0.386-.056-0.468.033-0.394,0.465-0.425-.142-0.558.194-0.751,0.46l-0.3-.226a0.1,0.1,0,0,0-.117.079,0.51,0.51,0,0,0-.074.225c0.128,0.542-.384.817-0.511,1.249-0.372.075-.437,0.63-0.9,0.571a0.223,0.223,0,0,0-.127.128,0.424,0.424,0,0,1-.482.24c-0.208-.023-0.245.077-0.326,0.248-0.271.576-.4,0.774-0.941,0.676a0.414,0.414,0,0,1,.1-0.2c0.022-.211-0.073-0.322-0.274-0.271a1.107,1.107,0,0,0-.9.65,0.816,0.816,0,0,1-.517.514c-0.116.054-.242,0.089-0.357,0.145a0.227,0.227,0,0,0-.124.284c0.042,0.135.16,0.068,0.246,0.063a1.2,1.2,0,0,0,.865-0.234A0.368,0.368,0,0,1,117.4,61.5a1.29,1.29,0,0,0,.634-0.216,14.312,14.312,0,0,1,1.383-.667,0.714,0.714,0,0,0,.555-0.249,0.155,0.155,0,0,1,.245.045c0.081,0.149.139,0.384,0.011,0.444a2.292,2.292,0,0,1-.915.5,0.567,0.567,0,0,0-.526.183,0.3,0.3,0,0,1-.363.092,0.761,0.761,0,0,0-.726.272,0.477,0.477,0,0,1-.421.224,0.817,0.817,0,0,0-.563.205,1.955,1.955,0,0,1-.586.195,0.768,0.768,0,0,0-.442.2,0.137,0.137,0,0,1-.127.041,0.333,0.333,0,0,0-.531.2,0.207,0.207,0,0,1-.358.054,0.208,0.208,0,0,0-.333.056,0.38,0.38,0,0,1-.417.16,0.265,0.265,0,0,0-.342.184,0.186,0.186,0,0,1-.249.092,0.875,0.875,0,0,0-.8.123,0.379,0.379,0,0,1-.5-0.013c-0.073-.069-0.243-0.063-0.247.03-0.014.328-.288,0.241-0.454,0.311a3.061,3.061,0,0,1-.459.117c-0.087-.243.2-0.185,0.214-0.34a0.3,0.3,0,0,0-.108-0.051c-0.164.143-.525,0.018-0.52,0.411,0,0.14-.4.179-0.473,0.036a0.137,0.137,0,0,0-.216-0.085c-0.278.113-.558,0.22-0.836,0.334a0.571,0.571,0,0,1-.272.087c-0.074-.008-0.18.017-0.174-0.1,0-.084.1-0.052,0.154-0.079a0.477,0.477,0,0,0,.086-0.093,0.335,0.335,0,0,0-.367.123,0.633,0.633,0,0,1-.731.219,0.364,0.364,0,0,0-.3.025,1.417,1.417,0,0,1-.941.241,0.2,0.2,0,0,0-.16.079,1.3,1.3,0,0,1-.532.166,6.724,6.724,0,0,0-1.007.3,0.311,0.311,0,0,0-.068.058c-0.3-.267-0.49,0-0.7.141a0.186,0.186,0,0,1-.137.034,4,4,0,0,0-1.569.015,1.758,1.758,0,0,1-1.066-.073,0.331,0.331,0,0,0-.276-0.032,8.105,8.105,0,0,1-2.353.293,7.052,7.052,0,0,0-1.009-.049,4.6,4.6,0,0,0-.887.122,2.578,2.578,0,0,1-1.172.131c-0.415-.051-0.858.011-1.286-0.013-0.932-.052-1.862-0.147-2.794-0.2a11.143,11.143,0,0,1-1.7-.3,1.347,1.347,0,0,1-1.086-.611c-0.028-.058-0.128-0.162-0.221-0.017-0.144.225-.319,0.041-0.464,0-0.17-.044-0.09-0.216-0.086-0.333a1.53,1.53,0,0,1,.064-0.276,0.688,0.688,0,0,0-.434-0.035,0.43,0.43,0,0,0-.025.091c-0.008.135,0.208,0.273,0.053,0.386a0.262,0.262,0,0,1-.357-0.156c-0.12-.187-0.362.017-0.488-0.189a1.1,1.1,0,0,1,.641-0.125c0.092-.412-0.3-0.269-0.418-0.414a0.557,0.557,0,0,0-.508-0.2,0.57,0.57,0,0,0-.077-0.116,0.128,0.128,0,0,0-.2-0.013,0.1,0.1,0,0,0-.007.085,0.141,0.141,0,0,0,.159.066A0.851,0.851,0,0,0,86.345,63.583Zm-6.277,0c-0.047.111,0,.222,0.1,0.2a0.237,0.237,0,0,0,.2-0.349l-0.275.111a0.828,0.828,0,0,0-.021-0.14c-0.029-.092-0.074-0.2-0.189-0.143A0.185,0.185,0,0,0,80.068,63.579Zm29.5-.142a1.783,1.783,0,0,0-1.013-.082,0.372,0.372,0,0,1-.043.021,0.18,0.18,0,0,0-.16.2,0.177,0.177,0,0,0,.216.137A2.418,2.418,0,0,0,109.57,63.437Zm-38.215-.079a0.609,0.609,0,0,0,.731.171,0.192,0.192,0,0,0,.113-0.193,0.162,0.162,0,0,0-.182-0.117A1.1,1.1,0,0,0,71.355,63.357Zm45.313-4.812-0.33.2a0.5,0.5,0,0,0,.391.266A0.993,0.993,0,0,0,116.668,58.545Zm-12.452,3.22a0.325,0.325,0,0,0,.312-0.166c0.038-.089-0.071-0.122-0.151-0.12-0.125,0-.267-0.008-0.285.168A0.119,0.119,0,0,0,104.216,61.766Zm19.23-5.654a0.2,0.2,0,0,0-.19-0.223,0.143,0.143,0,0,0-.139.156c-0.012.118,0.035,0.158,0.156,0.168C123.369,56.221,123.424,56.213,123.446,56.111Zm-11.788,4.26c-0.026-.07-0.04-0.141-0.124-0.134a0.077,0.077,0,0,0-.077.094c0.009,0.085.029,0.164,0.134,0.146A0.228,0.228,0,0,0,111.658,60.371ZM78.613,61.88a0.081,0.081,0,0,0-.083-0.088,0.148,0.148,0,0,0-.112.05c-0.026.074,0.033,0.107,0.1,0.11A0.09,0.09,0,0,0,78.613,61.88Zm2.573,0.172a0.139,0.139,0,0,0-.063.039,0.142,0.142,0,0,0,.064.156c0.058,0.038.084,0,.086-0.052A0.142,0.142,0,0,0,81.186,62.052ZM6.371,53.084c-0.134-.09-0.224-0.155-0.317-0.214a0.259,0.259,0,0,0-.274-0.017c-0.16.079-.2,0.341-0.5,0.238a1.381,1.381,0,0,0-.58.188,0.6,0.6,0,0,1-.543-0.067,2.682,2.682,0,0,1-.522-0.345,0.293,0.293,0,0,0-.254-0.119A0.655,0.655,0,0,1,2.7,52.4a0.913,0.913,0,0,1-.418-0.593,0.329,0.329,0,0,0-.223-0.231,1.127,1.127,0,0,1-.643-0.551,0.848,0.848,0,0,1-.129-0.75,0.579,0.579,0,0,0,0-.459c-0.078-.141-0.121-0.253.07-0.352,0.1-.054.042-0.164,0.012-0.259A1.907,1.907,0,0,0,1,48.595a1.728,1.728,0,0,1,.395-0.322,0.8,0.8,0,0,0-.149-0.5c0.182-.114.473-0.2,0.292-0.537a0.094,0.094,0,0,1,.032-0.086c0.363-.148.253-0.445,0.187-0.688a1.424,1.424,0,0,1,.16-0.474c-0.04-.252.116-0.278,0.274-0.349a0.583,0.583,0,0,0,.338-0.7C2.5,44.822,2.451,44.7,2.4,44.553a0.625,0.625,0,0,0,.419-0.5A3.32,3.32,0,0,0,3.188,43.4a0.225,0.225,0,0,1,.2-0.114,0.978,0.978,0,0,0,.5-0.241,0.459,0.459,0,0,1,.078-0.658,0.487,0.487,0,0,0,.189-0.508,0.31,0.31,0,0,1,.191-0.35A0.463,0.463,0,0,0,4.7,41.068a0.267,0.267,0,0,1,.238-0.257,0.677,0.677,0,0,0,.449-0.466,1.239,1.239,0,0,1,.568-0.681,0.956,0.956,0,0,0,.405-0.508,0.793,0.793,0,0,1,.552-0.512,2.023,2.023,0,0,1-.142-0.377,0.283,0.283,0,0,1,.114-0.286,1.6,1.6,0,0,0,.571-0.743A0.949,0.949,0,0,1,7.711,36.9a5.884,5.884,0,0,0,1.07-1.271,0.625,0.625,0,0,1,.464-0.319,0.356,0.356,0,0,0,.285-0.16,1.687,1.687,0,0,1,.647-0.645,0.566,0.566,0,0,0,.363-0.566,0.251,0.251,0,0,1,.146-0.2,10.744,10.744,0,0,0,1.06-.832,2.176,2.176,0,0,1,.817-0.659,0.355,0.355,0,0,0,.23-0.28,0.23,0.23,0,0,1,.242-0.243,0.117,0.117,0,0,0,.119-0.126,0.624,0.624,0,0,1,.567-0.644,0.547,0.547,0,0,0,.221-0.317,4.771,4.771,0,0,1,1.408-.748c0.145-.058.381,0.018,0.358-0.273,0-.059.1-0.082,0.161-0.072a3.947,3.947,0,0,0,1.2-.335,0.144,0.144,0,0,0,.1-0.087c0-.364.3-0.3,0.509-0.37a2.577,2.577,0,0,1,1.078-.018,0.344,0.344,0,0,0,.472-0.26,0.433,0.433,0,0,1,.5-0.311,1.486,1.486,0,0,0,1.153-.34c0.028-.016.058-0.027,0.1-0.044a2.727,2.727,0,0,0,1.258.828,0.533,0.533,0,0,0,.332-0.008,0.6,0.6,0,0,1,.732.6,0.176,0.176,0,0,0-.005.046c0.363,0.285.127,0.735,0.306,1.084a1.009,1.009,0,0,1-.142,1,1.646,1.646,0,0,0-.3.75,1.025,1.025,0,0,1-.308.591,0.382,0.382,0,0,0-.2.315,0.853,0.853,0,0,1-.409.745,0.683,0.683,0,0,1-.466.158,2.288,2.288,0,0,0-.159.457c-0.069.042-.136,0.087-0.2,0.132a0.755,0.755,0,0,0-.193.141,1.933,1.933,0,0,1-1.1.839c-0.213.347-.675,0.43-0.861,0.8a0.784,0.784,0,0,1-.331.337,2.142,2.142,0,0,0-1.14,1.341,0.382,0.382,0,0,1-.193.205,1.093,1.093,0,0,0-.55.7,0.417,0.417,0,0,1-.44.35,0.33,0.33,0,0,0-.371.377,2.4,2.4,0,0,1-.42.682c-0.046.1-.227,0.157-0.09,0.3a0.262,0.262,0,0,0,.392-0.006,0.667,0.667,0,0,1,.306-0.218,0.69,0.69,0,0,1,.729.074,0.7,0.7,0,0,1,.253.771,2.082,2.082,0,0,1-.3.747,1.076,1.076,0,0,0-.224.722,17.847,17.847,0,0,1-.113,1.948c-0.032.213,0.121,0.4,0.068,0.615a1.332,1.332,0,0,1-.166.817,0.31,0.31,0,0,0,.032.273,1.59,1.59,0,0,1,.005.992,0.306,0.306,0,0,0,.019.267,0.867,0.867,0,0,1-.047.955,0.182,0.182,0,0,0,.012.259,1.584,1.584,0,0,1,.1,1.061c0.019,0.186-.241.011-0.314,0.185a2.891,2.891,0,0,1,.393.607,0.634,0.634,0,0,1-.25.961,4.664,4.664,0,0,0,.424.447c0.213,0.173.386,0.322,0.2,0.629-0.071.116-.03,0.142,0.235,0.265a0.575,0.575,0,0,1-.053.075c-0.394.384-.4,0.39-0.024,0.839,0.131,0.155.362,0.256,0.125,0.5a0.239,0.239,0,0,0,.039.178,2.3,2.3,0,0,0,.383.61,1.267,1.267,0,0,1,.36,1,5.785,5.785,0,0,0,.07.767,0.951,0.951,0,0,0,.382.757,0.777,0.777,0,0,1-.207.316,0.288,0.288,0,0,0,.011.357,1.214,1.214,0,0,1,.274.75,0.743,0.743,0,0,1,.025.65,1.6,1.6,0,0,1,.07,1.029,6.363,6.363,0,0,1-.173.87,0.162,0.162,0,0,1-.1.093,1.842,1.842,0,0,0-.527.388,0.418,0.418,0,0,1-.347.145,0.477,0.477,0,0,0-.546.336,0.967,0.967,0,0,0-.323.669c0.013,0.1-.148.234-0.24,0.126a0.724,0.724,0,0,0-.894-0.075,0.607,0.607,0,0,1-.123,0,0.722,0.722,0,0,0-.175-0.414,0.839,0.839,0,0,0-.5-0.155c-0.2.01-.374,0.064-0.408-0.239a0.434,0.434,0,0,0-.36-0.206c-0.179-.066-0.368-0.1-0.575-0.162a0.355,0.355,0,0,0-.064-0.474,1.011,1.011,0,0,1-.3-0.529,0.492,0.492,0,0,0-.338-0.469c-0.061-.02-0.147-0.053-0.124-0.121a0.627,0.627,0,0,0-.168-0.549,1.679,1.679,0,0,1-.1-0.577,0.31,0.31,0,0,0-.106-0.208,0.829,0.829,0,0,1-.273-0.862,0.406,0.406,0,0,0-.231-0.471,0.288,0.288,0,0,1-.174-0.419,0.357,0.357,0,0,0-.006-0.283,0.715,0.715,0,0,1,.095-0.877c0.122-.147.006-0.266-0.126-0.355-0.063-.042-0.144-0.08-0.059-0.181a6.176,6.176,0,0,0,.322-1.125,0.056,0.056,0,0,0,0-.045c-0.319-.193-0.069-0.472-0.093-0.7a1.976,1.976,0,0,1,.073-0.741c0.05-.17-0.272-0.2-0.1-0.352a0.256,0.256,0,0,0,.026-0.379A0.11,0.11,0,0,1,11.9,52.3a4.024,4.024,0,0,0,.272-1.523,0.406,0.406,0,0,1,.143-0.292,0.2,0.2,0,0,0,.053-0.352,0.153,0.153,0,0,1-.023-0.135,5.248,5.248,0,0,0,.265-1.391,1.046,1.046,0,0,1,.243-0.709,0.517,0.517,0,0,0,.057-0.366,0.593,0.593,0,0,1,.189-0.645,1.5,1.5,0,0,0,.064-0.4c0.244-.615.375-1.287,0.671-1.858a19.717,19.717,0,0,0,.7-1.959,0.392,0.392,0,0,1,.152-0.165,0.223,0.223,0,0,0,.041-0.37,0.309,0.309,0,0,0-.435-0.049,0.3,0.3,0,0,0-.1.1,1.39,1.39,0,0,1-.863.641,0.255,0.255,0,0,0-.171.254,1.86,1.86,0,0,1-.705,1.2,0.283,0.283,0,0,0-.137.24,0.537,0.537,0,0,1-.4.575,0.427,0.427,0,0,0-.3.34,0.42,0.42,0,0,1-.214.306c-0.292.169-.065,0.654-0.424,0.751a0.644,0.644,0,0,0-.538.59,0.2,0.2,0,0,1-.171.153,0.4,0.4,0,0,0-.3.516,0.376,0.376,0,0,1-.206.479,0.1,0.1,0,0,0-.053.077,1.187,1.187,0,0,1-.575.9,0.347,0.347,0,0,0-.128.431,0.424,0.424,0,0,1-.12.511,3.34,3.34,0,0,0-.687,1.039,0.623,0.623,0,0,1-.244.293,0.848,0.848,0,0,0-.3.427,0.953,0.953,0,0,1-.646.5A0.841,0.841,0,0,0,6.371,53.084Zm8.946-11.8a0.183,0.183,0,0,0,.216-0.193,0.265,0.265,0,0,0-.291-0.249,0.2,0.2,0,0,0-.244.164A0.3,0.3,0,0,0,15.317,41.285ZM56.026,6.065a2.187,2.187,0,0,0,.085.791,0.544,0.544,0,0,1,.014.179c-0.488.05-.111,0.646-0.5,0.784a0.47,0.47,0,0,0-.134.443c0.051,0.394-.266.707-0.22,1.094a1.049,1.049,0,0,0-.489.773,0.509,0.509,0,0,0-.412.468,2.164,2.164,0,0,1-.429.633,2.206,2.206,0,0,0-.486,1.241,0.759,0.759,0,0,1-.341.633,0.911,0.911,0,0,0-.295.469,0.706,0.706,0,0,0-.079.226,1.281,1.281,0,0,1-.367.517,0.992,0.992,0,0,1-.175.614,1.349,1.349,0,0,0-.135.452c-0.168.279,0.135,0.689-.265,0.892-0.066.331-.131,0.662-0.2,0.993a3.106,3.106,0,0,1-.427.9,0.659,0.659,0,0,0-.12.5,0.465,0.465,0,0,1-.182.587c-0.132.076,0.039,0.224,0,.3a0.527,0.527,0,0,0-.153.581c-0.431.172-.141,0.614-0.3,0.83a7.185,7.185,0,0,0-.311.994,3.681,3.681,0,0,0-.476,1.391,0.457,0.457,0,0,1-.27.322,0.776,0.776,0,0,0-.175.053,1.411,1.411,0,0,0,.144.993,0.859,0.859,0,0,1,.417.372,1.1,1.1,0,0,0,.443.429,0.791,0.791,0,0,1,.1.1,4.908,4.908,0,0,1,.217.532,0.493,0.493,0,0,1,.306.441,0.417,0.417,0,0,0,.139.246,0.692,0.692,0,0,1,.146.384,3.605,3.605,0,0,0,.3,1.373,0.2,0.2,0,0,1,.036.133c-0.079.545,0.272,1.033,0.215,1.576a0.262,0.262,0,0,0,.137.286c0.066,0.033.113,0.114,0.072,0.154-0.235.221-.014,0.361,0.074,0.532a0.748,0.748,0,0,1,.121.36c-0.045.471,0.181,0.9,0.179,1.362a5.418,5.418,0,0,0,.37,1.822,0.359,0.359,0,0,1,.041.181,2.422,2.422,0,0,0,.289,1.318,1.05,1.05,0,0,1,.065.52,1.205,1.205,0,0,0,.282.7,1.7,1.7,0,0,1,.229.547,2.528,2.528,0,0,0,.252.717,0.948,0.948,0,0,1,0,1.145,0.172,0.172,0,0,0-.038.18,3.755,3.755,0,0,1,.03,1.36c0.018,0.274.106,0.542,0.147,0.817a2.166,2.166,0,0,1-.138,1.306,0.515,0.515,0,0,0-.093.22,1.693,1.693,0,0,1-.829,1.253,0.369,0.369,0,0,1-.476.077,1.155,1.155,0,0,0-.816-0.052,0.911,0.911,0,0,1-1-.286,2.47,2.47,0,0,0-.479-0.313,2.155,2.155,0,0,1-.664-1.022,0.679,0.679,0,0,0-.2-0.325,1.315,1.315,0,0,1-.53-0.888,0.711,0.711,0,0,0-.365-0.629,0.337,0.337,0,0,1-.12-0.426c0.054-.183.1-0.335-0.129-0.436a0.188,0.188,0,0,1-.084-0.252c0.077-.135.1-0.2-0.075-0.272a0.174,0.174,0,0,1-.064-0.252,0.612,0.612,0,0,0,.119-0.718c-0.161-.519.008-1.06-0.163-1.568a0.194,0.194,0,0,1-.02-0.09,0.885,0.885,0,0,0,.1-0.685,0.182,0.182,0,0,0,.006-0.142c-0.285-.46-0.056-1.02-0.294-1.487-0.078-.154-0.025-0.19.131-0.19,0.11,0,.109-0.1.086-0.18a3.058,3.058,0,0,1-.1-1.158,1.284,1.284,0,0,0-.122-0.561,0.489,0.489,0,0,1-.077-0.367,0.717,0.717,0,0,0-.16-0.707,1.611,1.611,0,0,1-.326-0.837,0.28,0.28,0,0,0-.174-0.27,0.874,0.874,0,0,1-.439-0.6,0.352,0.352,0,0,0-.33-0.3,0.374,0.374,0,0,0-.407.26,3.281,3.281,0,0,1-.7.788,1.339,1.339,0,0,0-.55.956,0.118,0.118,0,0,1-.036.087,2.058,2.058,0,0,1-1.411.908,0.941,0.941,0,0,0-.317.094,0.554,0.554,0,0,1-.722-0.44c-0.035-.255-0.37-0.472-0.11-0.765a1.593,1.593,0,0,1,0-.85,1.7,1.7,0,0,1,.315-0.934,0.613,0.613,0,0,0,.149-0.558,0.946,0.946,0,0,1,.264-0.971,0.311,0.311,0,0,0,.058-0.392c-0.061-.156-0.123-0.358.181-0.376a0.262,0.262,0,0,0,.2-0.244,7.33,7.33,0,0,0,.263-0.811,6.39,6.39,0,0,1,.224-0.708,0.447,0.447,0,0,0,.046-0.3,1.517,1.517,0,0,1,.252-0.795,1.117,1.117,0,0,1,.267-0.062,1.52,1.52,0,0,1,.961-0.571c0.075,0.005.078-.079,0.109-0.133a3.509,3.509,0,0,1,.559-0.869,0.139,0.139,0,0,0,.057-0.169,0.439,0.439,0,0,1,.132-0.515,11.41,11.41,0,0,1,.615-1.225,3.151,3.151,0,0,0,.432-0.972,0.215,0.215,0,0,0,.048-0.075,1.937,1.937,0,0,1,.2-1.153,3.721,3.721,0,0,1,.367-1.264c0.153-.267.113-0.606,0.293-0.878,0.107-.162.329-0.321,0.127-0.561,0.37-.466.035-1.133,0.457-1.584a1.606,1.606,0,0,0,.117-1,0.167,0.167,0,0,1,.068-0.213,1.065,1.065,0,0,0,.339-0.856,0.968,0.968,0,0,1,.354-0.8,0.8,0.8,0,0,0,.192-0.7,0.8,0.8,0,0,1,.114-0.433,1.2,1.2,0,0,0,.087-1.3c-0.086-.12-0.115-0.206.039-0.312,0.1-.066.112-0.218,0.222-0.3a0.378,0.378,0,0,0,.1-0.515,0.427,0.427,0,0,1,0-.569,0.049,0.049,0,0,0,0-.047,0.664,0.664,0,0,1,.16-0.762,3.526,3.526,0,0,1,.291-0.836,0.564,0.564,0,0,0,.046-0.375,2.3,2.3,0,0,1,.089-0.9c0.019-.041-0.006-0.128.014-0.137a1.1,1.1,0,0,0,.437-0.844c0.075-.176.114-0.335,0.371-0.239,0.154,0.057.2-.128,0.292-0.207,0.217-.191.529-0.083,0.754-0.252a0.5,0.5,0,0,0,.4-0.346c0.015-.15.221-0.138,0.332-0.093a4.287,4.287,0,0,1,1.349.463,0.158,0.158,0,0,0,.088.039,0.859,0.859,0,0,1,.791.77A8.606,8.606,0,0,1,55.9,5.459a2.015,2.015,0,0,1,.154.347A2.567,2.567,0,0,1,56.026,6.065ZM34.958,32.531a2.212,2.212,0,0,1,.21.918,1.478,1.478,0,0,1-.047.427,0.56,0.56,0,0,0-.043.235c0.01,0.272.428,0.473,0.142,0.8a2.173,2.173,0,0,0,.363.82,0.372,0.372,0,0,1-.025.48c-0.106.2-.258,0.377-0.025,0.585-0.214.526,0.229,1.025,0.023,1.589-0.136.374-.085,0.831-0.227,1.233a0.1,0.1,0,0,0,.012.085c0.5,0.188.179,0.525,0.12,0.784a0.679,0.679,0,0,0-.045.589c0.081,0.13-.317.162-0.087,0.335,0.211,0.158-.016.273-0.029,0.407a0.351,0.351,0,0,0,.046.321c0.177,0.118.1,0.177,0.041,0.339a1.47,1.47,0,0,0-.18,1.108,0.332,0.332,0,0,1-.1.3c-0.2.352-.2,0.353,0.062,0.682a0.786,0.786,0,0,0-.567.447,0.25,0.25,0,0,0,0,.262,0.492,0.492,0,0,1,.013.693,1.616,1.616,0,0,0-.152.551A0.422,0.422,0,0,0,34.6,47a0.481,0.481,0,0,1,.1.4,2.722,2.722,0,0,1-.225,1.16c-0.132.258-.422,0.532-0.107,0.863a0.212,0.212,0,0,1-.045.12,2.706,2.706,0,0,0-.417,1.353,1.5,1.5,0,0,1-.712.909c-0.049.051-.194,0.009-0.208,0.141a0.264,0.264,0,0,0,.2.237c0.073,0.05.207-.028,0.241,0.146a0.517,0.517,0,0,1-.558.061c-0.161-.041-0.216.009-0.225,0.142a3.2,3.2,0,0,0-.12.508,0.593,0.593,0,0,1-.52.784,1.037,1.037,0,0,0-.513.214,0.227,0.227,0,0,1-.172.069,4.516,4.516,0,0,0-1.275-.1,0.517,0.517,0,0,0-.453.035,0.36,0.36,0,0,1-.581-0.334c0.014-.216.026-0.257-0.213-0.275a0.713,0.713,0,0,1-.595-0.878,0.588,0.588,0,0,0-.079-0.414c-0.121-.244-0.248-0.484-0.375-0.725-0.052-.1-0.135-0.184-0.029-0.3a0.131,0.131,0,0,0-.015-0.178c-0.276-.19-0.262-0.57-0.541-0.773-0.317-.231-0.306-0.481.01-0.731,0.125-.1.184-0.156,0.1-0.3a0.259,0.259,0,0,1,.035-0.316,0.819,0.819,0,0,0,.189-0.793c0.009-.175-0.069-0.351.146-0.456a0.166,0.166,0,0,0,.064-0.212,0.3,0.3,0,0,1,.186-0.39,0.169,0.169,0,0,0,.118-0.185,0.31,0.31,0,0,1,.25-0.3c0.205-.108.435-0.22,0.3-0.544a1.061,1.061,0,0,1,.086-0.337c0.03-.346.149-0.685,0.18-1.032a0.531,0.531,0,0,1,.191-0.239,0.786,0.786,0,0,0,.191-0.653c-0.122-.336.429-0.217,0.421-0.471-0.014-.471.424-0.839,0.279-1.329,0.306-.34.078-0.833,0.349-1.193a0.976,0.976,0,0,0,.07-0.419A0.652,0.652,0,0,1,30.57,39.7a0.2,0.2,0,0,0,.032-0.33,0.149,0.149,0,0,1,0-.249,0.243,0.243,0,0,0,.069-0.424c-0.077-.1.054-0.126,0.111-0.162a0.757,0.757,0,0,0,.337-0.62,8.652,8.652,0,0,0,.173-1.3,3.609,3.609,0,0,0,.018-1.295,0.547,0.547,0,0,1-.01-0.331,3.81,3.81,0,0,0,.158-1.649c-0.085-.612.007-1.223-0.1-1.835a4.5,4.5,0,0,1,0-1.511c0.053-.322.059-0.652,0.139-0.972a0.616,0.616,0,0,1,.609-0.522,0.27,0.27,0,0,0,.222.034c0.3-.263.5-0.042,0.7,0.149,0.128,0.121.275,0.231,0.388,0.356a1.393,1.393,0,0,1,.6,1.092,0.4,0.4,0,0,0,.208.311,0.54,0.54,0,0,1,.223.361c0.066,0.6.384,1.136,0.5,1.726-0.137.05-.169-0.174-0.32-0.122C34.685,32.63,34.822,32.579,34.958,32.531Zm-0.229,11.84a0.148,0.148,0,0,0-.187-0.1,0.079,0.079,0,0,0-.068.1,0.146,0.146,0,0,0,.192.084C34.706,44.454,34.762,44.438,34.728,44.371Zm14.425,4.265c-0.07.206-.143,0.411-0.209,0.62a1.022,1.022,0,0,0,.014.97,0.2,0.2,0,0,1,.017.185c-0.1.321-.177,0.653-0.309,0.961a21.03,21.03,0,0,1-1.052,2.063,1.783,1.783,0,0,1-.428.58,1.8,1.8,0,0,0-.572.968,2.472,2.472,0,0,1-.6,1.122,0.721,0.721,0,0,0-.242.7,1.513,1.513,0,0,1-.611,1.384,6.144,6.144,0,0,1-1.067.805A12.824,12.824,0,0,1,41.6,60.23a2.244,2.244,0,0,1-1.457.189,0.391,0.391,0,0,0-.434.143,1.345,1.345,0,0,1-1.341.55,0.7,0.7,0,0,0-.278.058,6.536,6.536,0,0,1-2.522.192,0.472,0.472,0,0,0-.364.028,0.86,0.86,0,0,1-.477.031,14.321,14.321,0,0,1-2.876-.341,4.432,4.432,0,0,1-1.86-.6,0.569,0.569,0,0,0-.374-0.085,2.26,2.26,0,0,1-1.131-.365,6.1,6.1,0,0,0-1.449-.564,0.386,0.386,0,0,1-.3-0.137,0.944,0.944,0,0,0-.81-0.447,2.069,2.069,0,0,1-.853-0.425,8.678,8.678,0,0,0-1.43-.864,0.319,0.319,0,0,1-.145-0.125,6.814,6.814,0,0,0-.827-1.011,2.557,2.557,0,0,1-.18-0.634,0.454,0.454,0,0,0-.21-0.3,5.266,5.266,0,0,1-.5-0.535c-0.07-.027-0.039-0.11-0.02-0.171a0.233,0.233,0,0,0-.058-0.266,2.041,2.041,0,0,1-.553-1.469,10.594,10.594,0,0,1,.06-2.983,17.749,17.749,0,0,1,.405-1.927c0.171-.584.3-1.181,0.48-1.764a10.6,10.6,0,0,1,.948-2.16,3.718,3.718,0,0,0,.466-0.757,0.6,0.6,0,0,1,.711-0.267,4.239,4.239,0,0,1,1.3.6,0.7,0.7,0,0,1,.165,1.2,6.082,6.082,0,0,1-.876.985,1.138,1.138,0,0,0-.355.777,13.382,13.382,0,0,1-.485,1.351c-0.159.514-.389,1.008-0.589,1.51a0.311,0.311,0,0,0-.015.235,0.609,0.609,0,0,1-.054.51,0.735,0.735,0,0,0-.049.694,0.167,0.167,0,0,1,0,.18,3.453,3.453,0,0,0-.157,1.418,2.3,2.3,0,0,0,.192.632,7.047,7.047,0,0,0,.41,1.174,5.449,5.449,0,0,0,1.061,1.6,9.4,9.4,0,0,0,2.687,2.023,0.324,0.324,0,0,1,.128.062,1.1,1.1,0,0,0,.816.433c0.566,0.191,1.086.484,1.653,0.675a8.564,8.564,0,0,0,2.678.572,0.751,0.751,0,0,1,.376.066,2.04,2.04,0,0,0,1.08.171,3.584,3.584,0,0,1,1.23.1,0.313,0.313,0,0,0,.236-0.017,10.42,10.42,0,0,1,1.744-.352,7.8,7.8,0,0,0,3.01-.965,7.829,7.829,0,0,1,1.164-.551c0.291-.141.53-0.344,0.808-0.5a5.092,5.092,0,0,0,.746-0.519,7.622,7.622,0,0,0,.555-0.568c0.5-.5,1-0.993,1.467-1.532a9.942,9.942,0,0,0,1.106-1.376,1.165,1.165,0,0,0,.414-0.255,0.809,0.809,0,0,1,.1-0.451,16.765,16.765,0,0,0,1.136-1.9c0.289-.532.492-1.111,0.728-1.671A2.491,2.491,0,0,1,49.153,48.636Zm78.236-25.891a0.383,0.383,0,0,0,.231.288,9.914,9.914,0,0,0,.92.622,1.121,1.121,0,0,1,.7.89,0.439,0.439,0,0,1,.655.211,2.9,2.9,0,0,1,.5.411c0.139-.138.1-0.223,0.017-0.291-0.2-.167-0.4-0.328-0.6-0.49-0.054-.045-0.092-0.094-0.035-0.157a0.128,0.128,0,0,1,.176-0.013q0.6,0.472,1.185.952a0.253,0.253,0,0,1,.136.284,0.828,0.828,0,0,0,.006.774c0.128,0,.123-0.122.166-0.194a0.206,0.206,0,0,1,.218-0.149c0.128,0.03.093,0.149,0.094,0.24s0.009,0.235.137,0.184c0.251-.1.294,0.079,0.384,0.224a0.634,0.634,0,0,0,.181.331,2,2,0,0,1,.735.847,0.254,0.254,0,0,0,.153.171c0.382-.02.369,0.321,0.43,0.519,0.17,0.559.557,1.009,0.738,1.558a0.152,0.152,0,0,0,.1.092c0.379-.013.395,0.234,0.388,0.511a0.284,0.284,0,0,0,.128.245,0.658,0.658,0,0,1,.338.909,0.137,0.137,0,0,0,.092.192,0.624,0.624,0,0,1,.338.636,2.178,2.178,0,0,0,.26.895,0.094,0.094,0,0,1,.018.044,14.943,14.943,0,0,0,.347,1.757,0.206,0.206,0,0,0-.006.093c0.415,0.375.136,0.866,0.211,1.3,0.033,0.189.091,0.372,0.111,0.563a1.4,1.4,0,0,1-.021.459,1.452,1.452,0,0,0,.133.757,1.154,1.154,0,0,1-.041.758c-0.333-.142-0.112-0.522-0.367-0.654a1.1,1.1,0,0,0-.08.418,0.26,0.26,0,0,0,.161.315,0.561,0.561,0,0,1,.314.643c-0.035.477-.1,0.948-0.167,1.42-0.056.377-.136,0.746-0.225,1.113a1.107,1.107,0,0,1-.406.745,0.068,0.068,0,0,0-.032.036c-0.143.543-.694,0.862-0.794,1.433a0.333,0.333,0,0,1-.227.286,0.215,0.215,0,0,1-.026-0.09,1.945,1.945,0,0,0,.15-0.546,1.127,1.127,0,0,1-.326-0.389c0-.114-0.161-0.131-0.273-0.046a0.3,0.3,0,0,1-.231.129c0.08-.2.147-0.384,0.231-0.564a7.693,7.693,0,0,0,.711-3.075,2.08,2.08,0,0,0,.058-0.619c-0.024-.091.067-0.125,0.132-0.174,0.284-.213.3-0.26,0.044-0.44a0.53,0.53,0,0,1-.234-0.494,6.664,6.664,0,0,0-.191-1.428c-0.073-.379-0.164-0.753-0.21-1.138a9.633,9.633,0,0,0-.659-2.207,16.085,16.085,0,0,0-2.6-4.215c-0.467-.6-1.04-1.09-1.535-1.657-0.314-.36-0.733-0.6-1.045-0.96a7.928,7.928,0,0,0-1.1-.944c-0.426-.343-0.83-0.714-1.246-1.068a0.626,0.626,0,0,1-.173-0.282,0.172,0.172,0,0,0-.227-0.127,0.474,0.474,0,0,1-.513-0.184,5.939,5.939,0,0,1-1.269-1.232,4.9,4.9,0,0,1-.479-0.433,10.618,10.618,0,0,1,1.725,1.042c0.64,0.427,1.294.841,1.9,1.315a24,24,0,0,1,2.648,2.163c0.188,0.2.389,0.382,0.593,0.562,0.066,0.059.16,0.137,0.253,0.034a0.188,0.188,0,0,0-.023-0.3,5.032,5.032,0,0,1-.592-0.619,5.2,5.2,0,0,1-.772-0.857,0.142,0.142,0,0,0-.071-0.061,3.589,3.589,0,0,1-1.39-1.066,7.476,7.476,0,0,0-1-.752c-0.377-.22-0.678-0.536-1.046-0.763a0.517,0.517,0,0,1-.01-0.163,6.811,6.811,0,0,1,1.54,1.04c0.473,0.361.966,0.7,1.419,1.093a2.265,2.265,0,0,0-.874-1.086,17.7,17.7,0,0,0-1.5-1.13,0.213,0.213,0,0,1-.1-0.1,3.071,3.071,0,0,0-.9-1.041,0.656,0.656,0,0,1-.234-0.292,1.851,1.851,0,0,1,.652.424,5.861,5.861,0,0,0,.914.595,0.361,0.361,0,0,0,.189-0.012Zm3.643,2.756a0.219,0.219,0,0,0-.177-0.158,0.143,0.143,0,0,0-.14.157c-0.012.139,0.108,0.131,0.2,0.136A0.106,0.106,0,0,0,131.032,25.5ZM120.716,60.673l-0.409-.338a0.382,0.382,0,0,1,.3-0.224,4.893,4.893,0,0,0,1.184-.626,0.284,0.284,0,0,1,.456.2c0.009,0.046.014,0.118-.042,0.118a0.545,0.545,0,0,0-.466.353,0.332,0.332,0,0,1-.294.116c-0.275-.159-0.375.016-0.5,0.2A1.234,1.234,0,0,1,120.716,60.673Zm3.147-5.617a1.129,1.129,0,0,0,.439-0.262,0.081,0.081,0,0,1,.123.014,0.088,0.088,0,0,1-.012.127,0.332,0.332,0,0,0-.2.375,0.161,0.161,0,0,1-.321.029,0.37,0.37,0,0,1-.028-0.28Zm5.028-31.719a2.59,2.59,0,0,1,.647.6,0.591,0.591,0,0,1-.648-0.6v0Zm-9.125,33.1a0.682,0.682,0,0,1-.032.4,0.111,0.111,0,0,1-.156.117,0.156,0.156,0,0,1-.108-0.22A0.46,0.46,0,0,1,119.766,56.432ZM127.4,22.76c-0.028-.088-0.057-0.176-0.1-0.3a1.656,1.656,0,0,1,.722.395,3.464,3.464,0,0,0-.637-0.108ZM82.3,65.11l-0.712.087C81.882,64.906,81.882,64.906,82.3,65.11Zm0.724,0a0.605,0.605,0,0,1,.547.056A0.5,0.5,0,0,1,83.025,65.114Zm35.394-8.1c0.073,0.036.227-.035,0.177,0.081a0.5,0.5,0,0,1-.311.2,0.142,0.142,0,0,1-.122-0.172C118.193,56.936,118.344,57.058,118.419,57.013ZM128.89,23.335c-0.29.2-.358-0.137-0.622-0.208a1.176,1.176,0,0,1,.623.211v0ZM116.273,58.164a0.094,0.094,0,0,1,0-.043,0.345,0.345,0,0,1,.257-0.228,0.089,0.089,0,0,1,.045.072A0.224,0.224,0,0,1,116.273,58.164Zm7.593-3.107a0.839,0.839,0,0,0-.468.15c0.145-.283.145-0.283,0.463-0.152Zm-2.275,1.261c0.075-.088.194-0.2,0.264-0.082,0.08,0.139-.087.111-0.171,0.113A0.276,0.276,0,0,1,121.591,56.319ZM76.8,61.256a0.075,0.075,0,0,1-.067-0.1,0.176,0.176,0,0,1,.169-0.138,0.084,0.084,0,0,1,.095.082C77,61.241,76.871,61.22,76.8,61.256Zm30.349-.615c0,0.069-.035.1-0.08,0.087a0.141,0.141,0,0,1-.067-0.1c-0.01-.042.008-0.1,0.067-0.074A0.266,0.266,0,0,1,107.145,60.641ZM90.128,62c-0.018.059-.039,0.11-0.1,0.075a0.151,0.151,0,0,1-.069-0.1,0.067,0.067,0,0,1,.095-0.066A0.253,0.253,0,0,1,90.128,62Zm-3.811.248a0.494,0.494,0,0,1-.041.074,0.173,0.173,0,0,1-.125-0.132A0.07,0.07,0,0,1,86.23,62.1C86.313,62.108,86.314,62.18,86.317,62.244Zm-5.059,2.776a0.083,0.083,0,0,1-.085.091,0.12,0.12,0,0,1-.145-0.082c-0.016-.065.042-0.072,0.084-0.076A0.113,0.113,0,0,1,81.258,65.021Z"/>
  <path class="cls-2" d="M76.632,51.644a1.086,1.086,0,0,0-.6-1.251c-0.417-.17-0.341-0.633.073-0.822a0.984,0.984,0,0,0,.823-0.517,2.6,2.6,0,0,0-.166-1.966,0.584,0.584,0,0,1,.01-0.81,0.8,0.8,0,0,0,.165-0.76,2.651,2.651,0,0,1,.314-2.121,1.19,1.19,0,0,0,.193-0.769,0.671,0.671,0,0,1,0-.226,1.729,1.729,0,0,0-.078-1.582,1.248,1.248,0,0,1,.278-1.226c0.173-.228.111-0.349-0.1-0.446a2.421,2.421,0,0,1-.527-0.421,0.494,0.494,0,0,1-.081-0.81,1.322,1.322,0,0,0,.079-1.212,5.144,5.144,0,0,1,.029-1.568c0.133-.735-0.024-1.477.087-2.209a3.3,3.3,0,0,1,.295-1.649,0.435,0.435,0,0,0-.006-0.517,1.55,1.55,0,0,1-.213-1.073c0-.68.007-1.359,0.012-2.039a5.649,5.649,0,0,1,.266-1.178,6.266,6.266,0,0,0,.284-1.267,0.477,0.477,0,0,1,.381-0.4,0.883,0.883,0,0,0,.377-0.127c0.451-.663,1.309-0.9,1.677-1.659,0.319-.661.579-0.721,1.282-0.467,0.259,0.093.5,0.275,0.711-.117a0.587,0.587,0,0,1,.55-0.108c0.451,0.005.9,0.015,1.353,0.033a1.329,1.329,0,0,0,.659-0.114,0.81,0.81,0,0,1,.654-0.018A2.79,2.79,0,0,0,86.7,22.3a17.577,17.577,0,0,1,2.725-.3,3.162,3.162,0,0,0,.836-0.16,1.117,1.117,0,0,1,1.388.507,1.047,1.047,0,0,0,.254.252c0.243,0.205.344,0.093,0.366-.172,0.012-.159-0.08-0.436.083-0.446a2.675,2.675,0,0,1,.977-0.317,8,8,0,0,0,2.078.356,0.893,0.893,0,0,0,.225,0,2.956,2.956,0,0,1,2.185.111,2.364,2.364,0,0,0,.978-0.075,4.332,4.332,0,0,1,2.616.191,0.9,0.9,0,0,0,.623-0.027,3.974,3.974,0,0,1,1.661.012,9.68,9.68,0,0,0,2.077.082,0.412,0.412,0,0,1,.516.449,0.765,0.765,0,0,0,.23.573,0.465,0.465,0,0,1,.158.366c-0.062.595,0.306,1.173,0.056,1.779a0.487,0.487,0,0,0,.036.4,1.377,1.377,0,0,1-.1,1.365,1.039,1.039,0,0,0,.1,1.054c0.08,0.114.235,0.226,0.1,0.394a1.425,1.425,0,0,0-.147,1.2,14.74,14.74,0,0,1,.242,2.268,26.133,26.133,0,0,0,.062,3.528,3.1,3.1,0,0,1-.255,1.126,8.064,8.064,0,0,0-.045,1.744c-0.078,2.009.344,4,.21,6-0.054.787,0.343,1.48,0.283,2.261-0.058.765,0.029,1.541-.012,2.309a6.331,6.331,0,0,0,.2,1.971,1.2,1.2,0,0,1-.273.956,2.466,2.466,0,0,1-.9.922c-0.934.28-1.094,1.308-1.853,1.717-0.224.12-.432,0.272-0.663,0.372a0.6,0.6,0,0,1-.642-0.046,0.458,0.458,0,0,0-.759.1,0.209,0.209,0,0,1-.086.1c-0.606.059-1.084,0.586-1.733,0.473a1.18,1.18,0,0,0-1.032.163,0.164,0.164,0,0,1-.08.039,13,13,0,0,1-2.959.251,1.006,1.006,0,0,1-.365-0.165,0.521,0.521,0,0,0-.478-0.056,7.036,7.036,0,0,1-3.442.291,8.392,8.392,0,0,0-1.8.04,2.926,2.926,0,0,1-1.837-.425,1.41,1.41,0,0,0-1.482-.018,2.531,2.531,0,0,1-1.539.359,4.466,4.466,0,0,0-1.391.115,3.84,3.84,0,0,1-2.112-.5c-0.746-.293-1.475-0.847-2.375-0.537a0.391,0.391,0,0,1-.476-0.17A6.442,6.442,0,0,0,77.546,53.6,2.827,2.827,0,0,1,76.632,51.644Z"/>
  <path class="cls-3" d="M87.1,37.911c-0.07-.233.166-0.224,0.233-0.34,0.029-.051.1-0.115,0.153-0.181a3.4,3.4,0,0,0,.55-1.091,0.226,0.226,0,0,1,.009-0.047,0.377,0.377,0,0,0,.069-0.433,0.407,0.407,0,0,0-.472.073,1.739,1.739,0,0,1-.813.189,4.552,4.552,0,0,1-1.337-.1,7.877,7.877,0,0,0-.9-0.1,2.064,2.064,0,0,1-1.038-.522,3.676,3.676,0,0,1-1.1-.939c-0.081-.117-0.209-0.208-0.3-0.333a0.23,0.23,0,0,1-.094-0.238,0.117,0.117,0,0,0,0-.071,2.185,2.185,0,0,1,.108-1.4,0.525,0.525,0,0,1,.43-0.439,0.289,0.289,0,0,1,.365.189,0.686,0.686,0,0,0,.46.5,2.546,2.546,0,0,0,.731.235c0.406,0.079.816,0.064,1.221,0.12a3.483,3.483,0,0,0,.885-0.062,4.753,4.753,0,0,0,1.395-.4,0.794,0.794,0,0,0,.417-0.24,0.346,0.346,0,0,1,.231-0.1,0.56,0.56,0,0,0,.358-0.234,2.435,2.435,0,0,1,.828-0.681,0.583,0.583,0,0,1,.509.052,1.26,1.26,0,0,1,.231.546,0.451,0.451,0,0,0,.094.369,1.821,1.821,0,0,0,.291.6,0.876,0.876,0,0,0,.022.472,0.156,0.156,0,0,0-.007.07,0.709,0.709,0,0,1-.048.587,0.789,0.789,0,0,0-.038.393,0.793,0.793,0,0,1-.211.7,2.145,2.145,0,0,1-.674.833,1.008,1.008,0,0,0-.127.307c-0.39.423-.743,0.88-1.11,1.325a0.563,0.563,0,0,1-.7.269A0.552,0.552,0,0,0,87.1,37.911Zm-0.416-6.26a0.708,0.708,0,0,1-.673-0.469,3.629,3.629,0,0,1-.1-2.226,9.7,9.7,0,0,1,.3-1.3,3.326,3.326,0,0,1,.448-1.147,0.8,0.8,0,0,0,.128-0.359,2.934,2.934,0,0,1,.41-0.8,0.685,0.685,0,0,1,.214-0.28,0.533,0.533,0,0,1,.648.1c0.213,0.186.354,0.429,0.546,0.629a0.9,0.9,0,0,1,.142.455c0.064,0.242.3,0.331,0.376,0.558a0.743,0.743,0,0,0,.273.4,0.329,0.329,0,0,1,.094.348,2.586,2.586,0,0,0,.028.421,1.625,1.625,0,0,1-.067.349,2.886,2.886,0,0,1-.586.959,7.775,7.775,0,0,0-.477.926,1.956,1.956,0,0,1-.25.31,3.429,3.429,0,0,1-1.206,1.077A0.511,0.511,0,0,1,86.684,31.651ZM86.6,30.337a0.605,0.605,0,0,0,.121.332,0.326,0.326,0,0,0,.391-0.08c0.031-.024.066-0.045,0.1-0.071a4,4,0,0,0,.882-1,1.214,1.214,0,0,0,.118-1.145,0.474,0.474,0,0,0-.511-0.257,0.958,0.958,0,0,0-.377.385,3.2,3.2,0,0,1-.371.7A2.427,2.427,0,0,0,86.6,30.337Zm5.273,6.15a0.706,0.706,0,0,1-.148.375,3.559,3.559,0,0,1-.8.964,2.632,2.632,0,0,1-.757.451c-0.173.079-.322,0.192-0.484,0.28a4.559,4.559,0,0,1-1.938.583,4.837,4.837,0,0,1-1.081.032,4.093,4.093,0,0,1-2.053-.772,3.154,3.154,0,0,1-.838-1.08,0.634,0.634,0,0,1,.3-0.888,0.548,0.548,0,0,1,.655.4,0.2,0.2,0,0,1-.072.147c-0.063.062-.212,0.077-0.178,0.187a1.078,1.078,0,0,0,.186.526,3.635,3.635,0,0,0,2.9,1.007,5.876,5.876,0,0,0,2.469-.828,5.184,5.184,0,0,0,1.679-1.31A0.138,0.138,0,0,1,91.874,36.487Zm5.981,8.354c-0.044-.023-0.108-0.065-0.128,0a2.142,2.142,0,0,0-.084.95,0.815,0.815,0,0,1,.137-0.119,0.481,0.481,0,0,1-.252.5c-0.129.048-.152,0.007-0.176-0.081a1.688,1.688,0,0,1,.013-0.494c0.01-.637-0.009-1.274,0-1.911a6.783,6.783,0,0,1,.185-1.265,11.135,11.135,0,0,1,.334-1.431c0.166-.474.135-0.959,0.258-1.424a2.881,2.881,0,0,0-.068-0.349,1.1,1.1,0,0,0-.264.106c-0.2.126-.323,0.334-0.537,0.447a1.882,1.882,0,0,1-1.719.247,1.06,1.06,0,0,1-.624-0.441,0.057,0.057,0,0,0-.1.012,1.98,1.98,0,0,0-.188.934,7.724,7.724,0,0,0,.236.943,2.676,2.676,0,0,1,.09.48,1.251,1.251,0,0,0,.284.506,0.311,0.311,0,0,1,.067.264,0.377,0.377,0,0,0,.071.384,0.084,0.084,0,0,1-.012.147c-0.153.053-.1,0.176-0.074,0.253a4.267,4.267,0,0,1-.022,1.2,0.66,0.66,0,0,1-.248.422,1.291,1.291,0,0,0-.26.357,0.675,0.675,0,0,1-.62.092,4.071,4.071,0,0,1-.749-0.833c-0.245-.365-0.233-0.821-0.487-1.174a2.377,2.377,0,0,1-.029-0.27c-0.019-.044.049-0.112-0.055-0.137a0.15,0.15,0,0,0-.172.069,0.954,0.954,0,0,1-.991.388,1.052,1.052,0,0,1-.381-0.18,2.794,2.794,0,0,1-.622-0.511,1.657,1.657,0,0,1-.4-0.93,0.554,0.554,0,0,1,.118-0.484c0.181-.177.176-0.468,0.348-0.665a7.617,7.617,0,0,0,.594-0.713,1.209,1.209,0,0,0,.17-0.375,3.638,3.638,0,0,1,.442-0.58,2.492,2.492,0,0,0,.245-0.393,0.327,0.327,0,0,1,.147-0.1c0.147-.3.3-0.584,0.442-0.883a1.105,1.105,0,0,1,.255-0.352,2.059,2.059,0,0,0,.318-0.556c0.016-.029.014-0.094,0.024-0.095,0.437-.034.271-0.441,0.4-0.663a5.389,5.389,0,0,1,.443-0.612,0.483,0.483,0,0,0,.061-0.091,1.211,1.211,0,0,1,.746-0.661,0.151,0.151,0,0,0,.123-0.076,0.316,0.316,0,0,1,.419-0.156,0.484,0.484,0,0,1,.361.271,1.74,1.74,0,0,0,.241.584,1.218,1.218,0,0,1-.077,1.186c-0.129.262-.141,0.552-0.266,0.814a1.136,1.136,0,0,1-.264.377,0.216,0.216,0,0,0-.076.14,0.882,0.882,0,0,1-.2.629,0.068,0.068,0,0,0,.031.12,1.944,1.944,0,0,0,1,.247,4.78,4.78,0,0,0,1.381-.353,0.69,0.69,0,0,0,.441-0.691c-0.009-.556.091-1.1,0.11-1.651a6.919,6.919,0,0,1,.147-1.3c0.031-.138.015-0.311,0.2-0.32a0.552,0.552,0,0,1,.479.209,1.993,1.993,0,0,1,.383.857,2.479,2.479,0,0,1,.095.645,4.556,4.556,0,0,0,.115.776,4.746,4.746,0,0,1,.127,1.552,0.182,0.182,0,0,0,.02.1,2.2,2.2,0,0,1-.014,1.214,9.47,9.47,0,0,1-.226.978c-0.05.225-.252,0.35-0.321,0.572-0.148.473-.483,0.861-0.628,1.341a1.188,1.188,0,0,0-.07.287,2.072,2.072,0,0,1-.268.848,0.474,0.474,0,0,0-.077.238,0.478,0.478,0,0,1-.316.513,0.125,0.125,0,0,0-.047.137Zm1.67,1.331c-0.071-.047-0.147-0.072-0.18.034a0.1,0.1,0,0,0,.12.145c0.138-.02.1,0.075,0.081,0.127-0.058.191-.125,0.377-0.2,0.564-0.051.136-.08-0.023-0.1-0.012a0.249,0.249,0,0,0-.112.306c0.1,0.014.068-.142,0.166-0.123a1.786,1.786,0,0,0-.077.691,0.825,0.825,0,0,1-.139.28c-0.159.414-.133,0.866-0.307,1.273a1.737,1.737,0,0,0-.024.481c-0.027.287-.127,0.575-0.125,0.849a3.126,3.126,0,0,1-.434.957,0.5,0.5,0,0,1-.061-0.4,4.086,4.086,0,0,0,.075-0.777c0.034-.551.2-1.079,0.277-1.623a0.536,0.536,0,0,1,.239-0.524,0.1,0.1,0,0,0,.041-0.087,2.169,2.169,0,0,1,.161-1.142c0.006-.12.073-0.241,0.076-0.369,0-.076-0.007-0.146.116-0.135,0.1,0.008.086-.118,0.072-0.157a1.488,1.488,0,0,1,.087-0.647c0-.052,0-0.128.1-0.094,0.075,0.024.075-.06,0.075-0.1a4.408,4.408,0,0,1,.2-1.013,6.9,6.9,0,0,0,.387-1.3,0.279,0.279,0,0,1,.026-0.125,1.657,1.657,0,0,0,.221-0.741,3.5,3.5,0,0,1,.342-0.857c-0.078.066-.114,0.1-0.2,0.173a8.193,8.193,0,0,0,.336-1.484,5.25,5.25,0,0,0,.142-1.588c-0.042-.477-0.059-0.958-0.128-1.431-0.112-.781-0.236-1.56-0.414-2.331a9.941,9.941,0,0,1-.149-1.3,0.262,0.262,0,0,1,.082-0.275,0.272,0.272,0,0,1,.318.092,3.371,3.371,0,0,1,.651,1.059,10.114,10.114,0,0,1,.482,1.215,4.082,4.082,0,0,1,.226,1.6,4.469,4.469,0,0,1-.075.883,2.409,2.409,0,0,1-.278,1,0.073,0.073,0,0,0,.012.126c0.02,0.014.125,0.011,0.047,0.062-0.2.128-.053,0.3-0.073,0.454a0.755,0.755,0,0,0-.056.111c0.022,0.069-.2.109-0.01,0.216,0.062,0.035-.058.2-0.184,0.221s-0.15.046-.093,0.181c0.032,0.072.124,0.24-.066,0.3-0.037.012-.033,0.032-0.005,0.073,0.124,0.189.12,0.191-.048,0.306a0.116,0.116,0,0,0-.025.041c-0.034.066,0.248,0.136-.01,0.213-0.069.02-.1,0.169-0.225,0.1a0.653,0.653,0,0,1-.108.278c-0.017.082-.024,0.165-0.034,0.253a0.132,0.132,0,0,0,.061-0.006c0.057-.063-0.013-0.235.121-0.209,0.1,0.021.006,0.147,0.007,0.222a1.5,1.5,0,0,1-.386,1.118,0.131,0.131,0,0,0-.024.209c0.07,0.088.114,0.22-.063,0.279-0.2.066-.112,0.272-0.11,0.371a0.549,0.549,0,0,1-.217.543,0.365,0.365,0,0,0-.057.282c-0.02.116,0.126,0.271-.09,0.345-0.045.014,0.026,0.036,0.042,0.053,0.06,0.067.08,0.133-.04,0.109-0.195-.039-0.156.038-0.1,0.16,0.083,0.2-.018.261-0.2,0.251a0.826,0.826,0,0,0,.033-0.371A0.638,0.638,0,0,0,99.525,46.172Zm-1.8,9.947c0.1-.736.069-1.484,0.17-2.223a11.724,11.724,0,0,0,.109-1.37c0-.206.082-0.4,0.069-0.609-0.01-.156.161-0.17,0.274-0.173,0.1,0,.116.081,0.056,0.165a0.5,0.5,0,0,0,0,.177,1.127,1.127,0,0,1,.022.78,0.187,0.187,0,0,0-.048.13,3.127,3.127,0,0,1,.067,1.267c-0.037.631,0,1.263,0.006,1.89A16.134,16.134,0,0,0,98.566,58a1.648,1.648,0,0,1-.08.856c-0.064.151-.139,0.22-0.272,0.068-0.021-.024-0.026-0.071-0.068-0.051a0.293,0.293,0,0,1-.371-0.006,0.823,0.823,0,0,1-.242-0.632c0.005-.23.042-0.459,0.064-0.689Q97.663,56.831,97.726,56.119Zm0.121-11.27c0.13-.027.26-0.063,0.138,0.155a1.593,1.593,0,0,0-.094.33,0.414,0.414,0,0,1-.036-0.493Z"/>
</svg>
