<svg xmlns="http://www.w3.org/2000/svg" width="20" height="20" viewBox="0 0 20 20">
  <defs>
    <style>
      .cls-1 {
        fill: #cbbca7;
        fill-rule: evenodd;
      }
    </style>
  </defs>
  <path id="icon" class="cls-1" d="M10,0A10,10,0,1,1,0,10,10,10,0,0,1,10,0Zm1.551,12.283a1.839,1.839,0,0,1-1.38.481,1.837,1.837,0,0,1-1.461-.595,3.431,3.431,0,0,1-.52-2.2,3.286,3.286,0,0,1,.435-1.9,1.906,1.906,0,0,1,1.657-.815,1.984,1.984,0,0,1,.864.184,1.805,1.805,0,0,1,.653.526,2.187,2.187,0,0,1,.309.645l2.809-.586a4.338,4.338,0,0,0-1.654-2.263,5.489,5.489,0,0,0-3.058-.737A5.377,5.377,0,0,0,6.362,6.311,4.821,4.821,0,0,0,5,9.99a5.181,5.181,0,0,0,.772,2.945,4.25,4.25,0,0,0,1.836,1.608A7.015,7.015,0,0,0,10.354,15a5.947,5.947,0,0,0,2.279-.375,3.808,3.808,0,0,0,1.5-1.112,4.682,4.682,0,0,0,.885-1.835l-2.788-.79A2.89,2.89,0,0,1,11.551,12.282Z"/>
</svg>
