<svg xmlns="http://www.w3.org/2000/svg" width="20" height="40" viewBox="0 0 20 40">
  <defs>
    <style>
      .cls-1 {
        fill: #001831;
      }

      .cls-1, .cls-2 {
        fill-rule: evenodd;
      }

      .cls-2 {
        fill: #cbbca7;
      }
    </style>
  </defs>
  <path id="icon_coin" class="cls-1" d="M10,16a6,6,0,1,1,6-6A6,6,0,0,1,10,16ZM9.176,8.841a1.143,1.143,0,0,1,.995-0.489,1.193,1.193,0,0,1,.518.111,1.084,1.084,0,0,1,.392.316,1.308,1.308,0,0,1,.185.387l1.685-.351a2.6,2.6,0,0,0-.992-1.358,3.3,3.3,0,0,0-1.835-.442,3.226,3.226,0,0,0-2.307.771A2.891,2.891,0,0,0,7,9.992a3.11,3.11,0,0,0,.463,1.768,2.552,2.552,0,0,0,1.1.964A4.212,4.212,0,0,0,10.212,13a3.562,3.562,0,0,0,1.367-.225,2.28,2.28,0,0,0,.9-0.667A2.8,2.8,0,0,0,13.01,11l-1.673-.473a1.73,1.73,0,0,1-.407.837,1.1,1.1,0,0,1-.828.288A1.1,1.1,0,0,1,9.226,11.3,2.06,2.06,0,0,1,8.914,9.98,1.971,1.971,0,0,1,9.176,8.841Z"/>
  <path id="icon_coin-2" data-name="icon_coin" class="cls-2" d="M10,36a6,6,0,1,1,6-6A6,6,0,0,1,10,36ZM9.176,28.841a1.143,1.143,0,0,1,.995-0.489,1.2,1.2,0,0,1,.518.111,1.087,1.087,0,0,1,.392.316,1.31,1.31,0,0,1,.185.387l1.685-.351a2.6,2.6,0,0,0-.992-1.358,3.3,3.3,0,0,0-1.835-.442,3.226,3.226,0,0,0-2.307.771A2.891,2.891,0,0,0,7,29.992a3.111,3.111,0,0,0,.463,1.768,2.554,2.554,0,0,0,1.1.964A4.218,4.218,0,0,0,10.212,33a3.565,3.565,0,0,0,1.367-.225,2.284,2.284,0,0,0,.9-0.667A2.808,2.808,0,0,0,13.01,31l-1.673-.473a1.732,1.732,0,0,1-.407.837,1.1,1.1,0,0,1-.828.288A1.1,1.1,0,0,1,9.226,31.3a2.059,2.059,0,0,1-.312-1.319A1.971,1.971,0,0,1,9.176,28.841Z"/>
</svg>
