<svg xmlns="http://www.w3.org/2000/svg" width="120" height="180" viewBox="0 0 120 180">
  <defs>
    <style>
      .cls-1 {
        fill: #001831;
      }

      .cls-1, .cls-2 {
        fill-rule: evenodd;
      }

      .cls-2 {
        fill: #fff;
      }
    </style>
  </defs>
  <path id="Layer_1" data-name="Layer 1" class="cls-1" d="M42,33a5.886,5.886,0,0,1-1.364,3.75L41.965,41l-4.631-2a13,13,0,0,1-3.242.428,8.384,8.384,0,0,1-7.116-3.314,17.637,17.637,0,0,1-2.85-.489l-6.078,2.625,1.744-5.572A7.711,7.711,0,0,1,18,27.755C18,22.7,22.954,19,28.5,19c5.512,0,10.5,3.67,10.5,8.756,0,0.013,0,.026,0,0.039A6.264,6.264,0,0,1,42,33ZM28.5,20c-5.238,0-9.5,3.479-9.5,7.756a6.836,6.836,0,0,0,1.909,4.7l-1.256,4.012,4.389-1.9a17.775,17.775,0,0,0,2.369.483A5.415,5.415,0,0,1,26,33c0-3.875,3.8-6.672,8-6.672a9.261,9.261,0,0,1,3.967.889C37.628,23.193,33.518,20,28.5,20ZM34,27.332c-3.86,0-7,2.544-7,5.672,0,3.358,3.626,5.423,7.091,5.423a12.475,12.475,0,0,0,3.324-.482l2.943,1.272-0.839-2.686A5.064,5.064,0,0,0,41,33C41,29.874,37.844,27.332,34,27.332ZM37,34a1,1,0,1,1,1-1A1,1,0,0,1,37,34Zm-3,0a1,1,0,1,1,1-1A1,1,0,0,1,34,34Zm-3,0a1,1,0,1,1,1-1A1,1,0,0,1,31,34Z"/>
  <path id="Layer_2" data-name="Layer 2" class="cls-1" d="M40,101H20a2,2,0,0,1-2-2V81h1V99.093a0.573,0.573,0,0,0,.508.607A0.509,0.509,0,0,0,20,99.143V79H42V99A2,2,0,0,1,40,101Zm1-21H21v20H40a1,1,0,0,0,1-1V80ZM23,97H39v1H23V97Zm0-3H39v1H23V94Zm10-3h6v1H33V91Zm0-3h6v1H33V88Zm3.6-4.164a1.154,1.154,0,0,1,1.07,1.086A1.093,1.093,0,0,1,36.432,86a1.309,1.309,0,0,1-1.331-.866l0.656-.4a0.7,0.7,0,0,0,.7.486c0.361,0,.452-0.15.452-0.285,0-.215-0.19-0.3-0.689-0.445a1.106,1.106,0,0,1-.979-1.067,1.064,1.064,0,0,1,1.117-1.067,1.286,1.286,0,0,1,1.217.792l-0.642.4a0.584,0.584,0,0,0-.575-0.406A0.3,0.3,0,0,0,36,83.4C36,83.56,36.08,83.669,36.6,83.835Zm-2.686,0a1.154,1.154,0,0,1,1.07,1.086A1.093,1.093,0,0,1,33.746,86a1.309,1.309,0,0,1-1.331-.866l0.656-.4a0.7,0.7,0,0,0,.7.486c0.361,0,.452-0.15.452-0.285,0-.215-0.19-0.3-0.689-0.445a1.106,1.106,0,0,1-.98-1.067,1.064,1.064,0,0,1,1.117-1.067,1.286,1.286,0,0,1,1.217.792l-0.642.4a0.584,0.584,0,0,0-.575-0.406,0.3,0.3,0,0,0-.357.266C33.313,83.56,33.394,83.669,33.912,83.835Zm-3.851-1.413h2.068v0.771H30.822v0.581H32.01v0.761H30.822v0.621h1.331v0.772H30.061V82.423Zm-1.174,3.507-0.628-1.152H27.9v1.152H27.137V82.423h1.331A1.183,1.183,0,0,1,29,84.642L29.7,85.929H28.887Zm-0.418-2.755H27.9v0.9h0.57A0.457,0.457,0,0,0,28.468,83.174Zm-2.876,1.653h-0.5v1.1H24.332V82.423h1.26A1.2,1.2,0,0,1,25.592,84.827Zm0-1.653h-0.5v0.9h0.5A0.453,0.453,0,0,0,25.592,83.174ZM31,92H23V88h8v4Zm-1-3H24v2h6V89Z"/>
  <path id="Layer_3" data-name="Layer 3" class="cls-1" d="M18,160V140H42v20H18Zm23-19H19v18H41V141Zm-16.779,4.607L26.773,143l0.711,0.7-3.25,3.3-2.25-2.136,0.7-.709Zm0,5L26.773,148l0.711,0.7-3.25,3.3-2.25-2.136,0.7-.709Zm0,5L26.773,153l0.711,0.7-3.25,3.3-2.25-2.136,0.7-.709ZM38,146H30v-1h8v1Zm0,5H30v-1h8v1Zm0,5H30v-1h8v1Z"/>
  <path id="Layer_4" data-name="Layer 4" class="cls-2" d="M102,33a5.887,5.887,0,0,1-1.365,3.75L101.964,41l-4.631-2a13,13,0,0,1-3.242.428,8.384,8.384,0,0,1-7.116-3.314,17.637,17.637,0,0,1-2.85-.489l-6.078,2.625,1.744-5.572A7.711,7.711,0,0,1,78,27.755C78,22.7,82.954,19,88.5,19c5.512,0,10.5,3.67,10.5,8.756,0,0.013,0,.026,0,0.039A6.265,6.265,0,0,1,102,33ZM88.5,20c-5.238,0-9.5,3.479-9.5,7.756a6.836,6.836,0,0,0,1.909,4.7l-1.256,4.012,4.389-1.9a17.775,17.775,0,0,0,2.369.483A5.415,5.415,0,0,1,86,33c0-3.875,3.8-6.672,8-6.672a9.261,9.261,0,0,1,3.967.889C97.628,23.193,93.518,20,88.5,20ZM94,27.332c-3.86,0-7,2.544-7,5.672,0,3.358,3.626,5.423,7.091,5.423a12.475,12.475,0,0,0,3.324-.482l2.943,1.272-0.839-2.686A5.066,5.066,0,0,0,101,33C101,29.874,97.844,27.332,94,27.332ZM97,34a1,1,0,1,1,1-1A1,1,0,0,1,97,34Zm-3,0a1,1,0,1,1,1-1A1,1,0,0,1,94,34Zm-3,0a1,1,0,1,1,1-1A1,1,0,0,1,91,34Z"/>
  <path id="Layer_5" data-name="Layer 5" class="cls-2" d="M100,101H80a2,2,0,0,1-2-2V81h1V99.093a0.573,0.573,0,0,0,.508.607A0.509,0.509,0,0,0,80,99.143V79h22V99A2,2,0,0,1,100,101Zm1-21H81v20h19a1,1,0,0,0,1-1V80ZM83,97H99v1H83V97Zm0-3H99v1H83V94Zm10-3h6v1H93V91Zm0-3h6v1H93V88Zm3.6-4.164a1.154,1.154,0,0,1,1.07,1.086A1.093,1.093,0,0,1,96.432,86a1.309,1.309,0,0,1-1.331-.866l0.656-.4a0.7,0.7,0,0,0,.7.486c0.361,0,.452-0.15.452-0.285,0-.215-0.19-0.3-0.689-0.445a1.106,1.106,0,0,1-.979-1.067,1.064,1.064,0,0,1,1.117-1.067,1.286,1.286,0,0,1,1.217.792l-0.642.4a0.584,0.584,0,0,0-.575-0.406A0.3,0.3,0,0,0,96,83.4C96,83.56,96.08,83.669,96.6,83.835Zm-2.686,0a1.154,1.154,0,0,1,1.07,1.086A1.093,1.093,0,0,1,93.746,86a1.309,1.309,0,0,1-1.331-.866l0.656-.4a0.7,0.7,0,0,0,.7.486c0.361,0,.452-0.15.452-0.285,0-.215-0.19-0.3-0.689-0.445a1.106,1.106,0,0,1-.98-1.067,1.064,1.064,0,0,1,1.117-1.067,1.286,1.286,0,0,1,1.217.792l-0.642.4a0.584,0.584,0,0,0-.575-0.406,0.3,0.3,0,0,0-.356.266C93.313,83.56,93.394,83.669,93.912,83.835Zm-3.851-1.413h2.068v0.771H90.822v0.581H92.01v0.761H90.822v0.621h1.331v0.772H90.061V82.423Zm-1.174,3.507-0.628-1.152H87.9v1.152H87.137V82.423h1.331A1.183,1.183,0,0,1,89,84.642L89.7,85.929H88.887Zm-0.418-2.755H87.9v0.9h0.571A0.457,0.457,0,0,0,88.468,83.174Zm-2.877,1.653h-0.5v1.1H84.332V82.423h1.26A1.2,1.2,0,0,1,85.592,84.827Zm0-1.653h-0.5v0.9h0.5A0.453,0.453,0,0,0,85.592,83.174ZM91,92H83V88h8v4Zm-1-3H84v2h6V89Z"/>
  <path id="Layer_6" data-name="Layer 6" class="cls-2" d="M78,160V140h24v20H78Zm23-19H79v18h22V141Zm-16.779,4.607L86.773,143l0.711,0.7-3.25,3.3-2.25-2.136,0.7-.709Zm0,5L86.773,148l0.711,0.7-3.25,3.3-2.25-2.136,0.7-.709Zm0,5L86.773,153l0.711,0.7-3.25,3.3-2.25-2.136,0.7-.709ZM98,146H90v-1h8v1Zm0,5H90v-1h8v1Zm0,5H90v-1h8v1Z"/>
</svg>
