<svg xmlns="http://www.w3.org/2000/svg" width="20" height="20" viewBox="0 0 20 20">
  <defs>
    <style>
      .cls-1 {
        fill: #001831;
        fill-rule: evenodd;
      }
    </style>
  </defs>
  <path id="icon" class="cls-1" d="M10,16a6,6,0,1,1,6-6A6,6,0,0,1,10,16ZM9.176,8.842a1.143,1.143,0,0,1,.994-0.489,1.191,1.191,0,0,1,.518.11,1.083,1.083,0,0,1,.392.316,1.316,1.316,0,0,1,.185.387l1.685-.351a2.6,2.6,0,0,0-.992-1.358,3.293,3.293,0,0,0-1.835-.442,3.226,3.226,0,0,0-2.307.771A2.893,2.893,0,0,0,7,9.994a3.108,3.108,0,0,0,.463,1.767,2.55,2.55,0,0,0,1.1.965A4.208,4.208,0,0,0,10.212,13a3.568,3.568,0,0,0,1.367-.225,2.284,2.284,0,0,0,.9-0.667,2.809,2.809,0,0,0,.531-1.1l-1.673-.474a1.734,1.734,0,0,1-.407.837,1.1,1.1,0,0,1-.828.288A1.1,1.1,0,0,1,9.226,11.3a2.059,2.059,0,0,1-.312-1.319A1.971,1.971,0,0,1,9.176,8.842Z"/>
</svg>
