<svg xmlns="http://www.w3.org/2000/svg" width="60" height="120" viewBox="0 0 60 120">
  <defs>
    <style>
      .cls-1 {
        fill: #001831;
      }

      .cls-1, .cls-2 {
        fill-rule: evenodd;
      }

      .cls-2 {
        fill: #fff;
      }
    </style>
  </defs>
  <path id="icon_mypage" class="cls-1" d="M22,48a9.879,9.879,0,0,0-4-2,6.7,6.7,0,0,0,3-5,6.173,6.173,0,0,0-6-6.01A6.173,6.173,0,0,0,9,41a6.7,6.7,0,0,0,3,5,9.88,9.88,0,0,0-4,2,9.832,9.832,0,0,0-3,7H7a7.713,7.713,0,0,1,8-8,7.713,7.713,0,0,1,8,8h2A9.832,9.832,0,0,0,22,48Zm-7-3a4,4,0,1,1,0-8A4,4,0,1,1,15,45Z"/>
  <path id="icon_COIN" class="cls-1" d="M15,85A10,10,0,1,1,25,75,10,10,0,0,1,15,85Zm0-18a8,8,0,1,0,8,8A8,8,0,0,0,15,67Zm2.755,7A3.592,3.592,0,0,0,15,72a3.427,3.427,0,0,0-3,3,3.427,3.427,0,0,0,3,3,3.592,3.592,0,0,0,2.755-2H19.9a5,5,0,1,1,0-2H17.755Z"/>
  <path id="delivery-8" class="cls-1" d="M26.121,21.121A3,3,0,0,1,24,22H23.152A9.457,9.457,0,0,1,15,27a9.457,9.457,0,0,1-8.152-5H6a3,3,0,0,1-3-3V16C3,8.825,8.377,3,15,3S27,8.825,27,16v3A3,3,0,0,1,26.121,21.121ZM7,19.895a2.855,2.855,0,0,0,1.041.594,0.9,0.9,0,0,1,.522.424C10.768,24.959,13.988,25,15,25a6.739,6.739,0,0,0,5.877-3.169,10.814,10.814,0,0,1-3.758.653A2.474,2.474,0,0,1,15,23.5a2.107,2.107,0,0,1-2.333-1.75A2.107,2.107,0,0,1,15,20a2.48,2.48,0,0,1,2.111,1c1.9-.026,4.337-0.334,5.889-2.645V16.123a0.913,0.913,0,0,1-1.269-.8,9.027,9.027,0,0,0-.053-0.914,4.455,4.455,0,0,1-3.7-3.723c-1.315,2-4.526,4.17-7.045,4.17a5.924,5.924,0,0,0,1.9-3.508,9.038,9.038,0,0,1-4.55,3.487c-0.009.163-.018,0.326-0.018,0.489a0.913,0.913,0,0,1-1.269.8v3.772ZM15,5c-4.9,0-8.979,3.882-9.835,9H6.522C7.042,9.977,9.933,6.278,15,6.278s7.958,3.7,8.479,7.722h1.356C23.979,8.882,19.9,5,15,5ZM12,15.5A1.391,1.391,0,0,1,13.242,17,1.39,1.39,0,0,1,12,18.5,1.39,1.39,0,0,1,10.757,17,1.391,1.391,0,0,1,12,15.5Zm6,0A1.391,1.391,0,0,1,19.242,17,1.39,1.39,0,0,1,18,18.5,1.39,1.39,0,0,1,16.757,17,1.391,1.391,0,0,1,18,15.5Z"/>
  <path id="icon_call" class="cls-1" d="M24,110a3,3,0,0,1-.548-0.055c-0.061-.012-0.119-0.029-0.178-0.044a2.669,2.669,0,0,1-.331-0.1c-0.07-.026-0.139-0.054-0.206-0.086-0.086-.041-0.168-0.087-0.249-0.135s-0.15-.085-0.22-0.135c-0.035-.025-0.065-0.055-0.1-0.082a2.976,2.976,0,0,1-.53-0.53c-0.009-.012-0.02-0.022-0.029-0.034a3.072,3.072,0,0,1-.222-0.348l-0.03-.055A3.013,3.013,0,0,1,21.184,108H20.9a5.978,5.978,0,0,0,.1-1v-4a6,6,0,1,0-12,0v2H9v2c0,2.962,1.358,5.408,4.011,5.9A2,2,0,0,1,15,111h2a2,2,0,0,1,0,4H15a1.987,1.987,0,0,1-1-.277V115c-3.045,0-6.369-2.277-6.893-5.217A2.989,2.989,0,0,1,3,107v-2a2.978,2.978,0,0,1,4.041-2.8,8,8,0,0,1,15.919,0,2.967,2.967,0,0,1,.5-0.141A2.772,2.772,0,0,1,24,102a3,3,0,0,1,3,3v2A3,3,0,0,1,24,110ZM7,105a1,1,0,0,0-2,0v2a1,1,0,0,0,2,0v-2Zm18,0a1,1,0,0,0-2,0v2a1,1,0,0,0,2,0v-2Z"/>
  <path id="icon_mypage-2" data-name="icon_mypage" class="cls-2" d="M52,48a9.879,9.879,0,0,0-4-2,6.7,6.7,0,0,0,3-5,6,6,0,1,0-12,0,6.7,6.7,0,0,0,3,5,9.879,9.879,0,0,0-4,2,9.832,9.832,0,0,0-3,7h2a7.713,7.713,0,0,1,8-8,7.713,7.713,0,0,1,8,8h2A9.832,9.832,0,0,0,52,48Zm-7-3a4,4,0,1,1,4-4A3.857,3.857,0,0,1,45,45Z"/>
  <path id="icon_COIN-2" data-name="icon_COIN" class="cls-2" d="M45,85A10,10,0,1,1,55,75,10,10,0,0,1,45,85Zm0-18a8,8,0,1,0,8,8A8,8,0,0,0,45,67Zm2.755,7A3.592,3.592,0,0,0,45,72a3.427,3.427,0,0,0-3,3,3.427,3.427,0,0,0,3,3,3.592,3.592,0,0,0,2.755-2H49.9a5,5,0,1,1,0-2H47.755Z"/>
  <path id="delivery-8-2" data-name="delivery-8" class="cls-2" d="M56.121,21.121A3,3,0,0,1,54,22H53.152a9.146,9.146,0,0,1-16.3,0H36a3,3,0,0,1-3-3V16C33,8.825,38.377,3,45,3S57,8.825,57,16v3A3,3,0,0,1,56.121,21.121ZM37,19.895a2.856,2.856,0,0,0,1.041.594,0.9,0.9,0,0,1,.521.424C40.768,24.959,43.988,25,45,25a6.739,6.739,0,0,0,5.877-3.169,10.814,10.814,0,0,1-3.758.653A2.474,2.474,0,0,1,45,23.5a2.107,2.107,0,0,1-2.333-1.75A2.107,2.107,0,0,1,45,20a2.48,2.48,0,0,1,2.112,1c1.9-.026,4.336-0.334,5.888-2.645V16.123a0.913,0.913,0,0,1-1.269-.8,9.027,9.027,0,0,0-.053-0.914,4.455,4.455,0,0,1-3.7-3.723c-1.315,2-4.526,4.17-7.045,4.17a5.924,5.924,0,0,0,1.9-3.508,9.038,9.038,0,0,1-4.55,3.487c-0.009.163-.018,0.326-0.018,0.489a0.913,0.913,0,0,1-1.269.8v3.772ZM45,5c-4.9,0-8.979,3.882-9.835,9h1.356C37.042,9.977,39.933,6.278,45,6.278s7.958,3.7,8.479,7.722h1.356C53.979,8.882,49.9,5,45,5ZM42,15.5A1.391,1.391,0,0,1,43.242,17a1.265,1.265,0,1,1-2.485,0A1.391,1.391,0,0,1,42,15.5Zm6,0A1.391,1.391,0,0,1,49.242,17a1.265,1.265,0,1,1-2.485,0A1.391,1.391,0,0,1,48,15.5Z"/>
  <path id="icon_call-2" data-name="icon_call" class="cls-2" d="M54,110a3,3,0,0,1-.548-0.055c-0.061-.012-0.119-0.029-0.178-0.044a2.669,2.669,0,0,1-.331-0.1c-0.07-.026-0.139-0.054-0.206-0.086-0.086-.041-0.168-0.087-0.249-0.135s-0.15-.085-0.22-0.135c-0.035-.025-0.065-0.055-0.1-0.082a2.976,2.976,0,0,1-.53-0.53c-0.009-.012-0.02-0.022-0.029-0.034a3.072,3.072,0,0,1-.222-0.348l-0.03-.055A3.013,3.013,0,0,1,51.184,108H50.9a5.978,5.978,0,0,0,.1-1v-4a6,6,0,1,0-12,0v2h0v2c0,2.962,1.358,5.408,4.011,5.9A2,2,0,0,1,45,111h2a2,2,0,0,1,0,4H45a1.987,1.987,0,0,1-1-.277V115c-3.045,0-6.369-2.277-6.893-5.217A2.989,2.989,0,0,1,33,107v-2a2.978,2.978,0,0,1,4.041-2.8,8,8,0,0,1,15.919,0,2.967,2.967,0,0,1,.5-0.141A2.772,2.772,0,0,1,54,102a3,3,0,0,1,3,3v2A3,3,0,0,1,54,110Zm-17-5a1,1,0,0,0-2,0v2a1,1,0,0,0,2,0v-2Zm18,0a1,1,0,0,0-2,0v2a1,1,0,0,0,2,0v-2Z"/>
</svg>
