<svg xmlns="http://www.w3.org/2000/svg" width="30" height="30" viewBox="0 0 30 30">
  <defs>
    <style>
      .cls-1 {
        fill: #001831;
        fill-rule: evenodd;
      }
    </style>
  </defs>
  <path id="trash-can-27" class="cls-1" d="M8,10V8h4V6a0.877,0.877,0,0,1,1-1h5a0.872,0.872,0,0,1,1,1c-0.035.056,0,2,0,2h4v2H8Zm9-3H14V8h3V7Zm5,17a2.332,2.332,0,0,1-2,2H11a2.332,2.332,0,0,1-2-2V11H22V24ZM14,14a1.166,1.166,0,0,0-1-1,1.166,1.166,0,0,0-1,1v8a1.166,1.166,0,0,0,1,1,1.166,1.166,0,0,0,1-1V14Zm5,0a1.166,1.166,0,0,0-1-1,1.166,1.166,0,0,0-1,1v8a1.166,1.166,0,0,0,1,1,1.166,1.166,0,0,0,1-1V14Z"/>
</svg>
