<svg xmlns="http://www.w3.org/2000/svg" width="90" height="50" viewBox="0 0 90 50">
  <defs>
    <style>
      .cls-1 {
        fill: #05172e;
      }

      .cls-1, .cls-2, .cls-3 {
        fill-rule: evenodd;
      }

      .cls-2 {
        fill: #d3393c;
      }

      .cls-3 {
        fill: #fff;
      }
    </style>
  </defs>
  <path id="신선" class="cls-1" d="M87.944,27.961a1.887,1.887,0,0,1-.232-0.415,0.694,0.694,0,0,0-.051.265,0.165,0.165,0,0,0,.1.2,0.357,0.357,0,0,1,.2.408c-0.022.3-.062,0.6-0.106,0.9-0.035.24-.086,0.474-0.142,0.707a0.7,0.7,0,0,1-.257.473,0.047,0.047,0,0,0-.02.023c-0.09.345-.438,0.547-0.5,0.91a0.212,0.212,0,0,1-.144.181,0.132,0.132,0,0,1-.017-0.057,1.227,1.227,0,0,0,.095-0.347,0.721,0.721,0,0,1-.206-0.247c0-.073-0.1-0.083-0.172-0.029a0.189,0.189,0,0,1-.147.082c0.051-.125.093-0.244,0.146-0.358a4.908,4.908,0,0,0,.449-1.953,1.316,1.316,0,0,0,.037-0.393c-0.015-.058.042-0.079,0.084-0.11,0.18-.135.19-0.165,0.028-0.28a0.337,0.337,0,0,1-.148-0.313,4.249,4.249,0,0,0-.121-0.906c-0.046-.241-0.1-0.478-0.133-0.723a6.131,6.131,0,0,0-.416-1.4A10.231,10.231,0,0,0,84.628,21.9c-0.3-.379-0.658-0.692-0.971-1.052-0.2-.228-0.463-0.379-0.661-0.61a5,5,0,0,0-.693-0.6c-0.269-.218-0.524-0.453-0.788-0.678a0.394,0.394,0,0,1-.109-0.179,0.108,0.108,0,0,0-.143-0.08,0.3,0.3,0,0,1-.325-0.117,3.766,3.766,0,0,1-.8-0.782,3.1,3.1,0,0,1-.3-0.275,6.707,6.707,0,0,1,1.091.662c0.4,0.271.818,0.534,1.2,0.835A15.184,15.184,0,0,1,83.8,20.4c0.119,0.125.246,0.242,0.375,0.357,0.042,0.037.1,0.087,0.16,0.022a0.119,0.119,0,0,0-.015-0.188,3.24,3.24,0,0,1-.374-0.393,3.321,3.321,0,0,1-.488-0.544,0.088,0.088,0,0,0-.045-0.039,2.273,2.273,0,0,1-.879-0.677,4.712,4.712,0,0,0-.63-0.477c-0.239-.14-0.429-0.34-0.662-0.484a0.308,0.308,0,0,1-.006-0.1,4.3,4.3,0,0,1,.974.66c0.3,0.229.611,0.443,0.9,0.694a1.436,1.436,0,0,0-.553-0.689,11.169,11.169,0,0,0-.95-0.718,0.137,0.137,0,0,1-.063-0.065,1.948,1.948,0,0,0-.57-0.661,0.415,0.415,0,0,1-.148-0.185,1.174,1.174,0,0,1,.413.269,3.7,3.7,0,0,0,.578.378,0.213,0.213,0,0,0,.116-0.007,0.254,0.254,0,0,0,.141.173,6.284,6.284,0,0,0,.581.395,0.712,0.712,0,0,1,.441.565,0.277,0.277,0,0,1,.414.134,1.823,1.823,0,0,1,.315.261c0.088-.088.061-0.142,0.011-0.185-0.124-.106-0.251-0.208-0.378-0.311-0.035-.028-0.058-0.06-0.022-0.1a0.08,0.08,0,0,1,.111-0.008q0.377,0.3.749,0.6a0.161,0.161,0,0,1,.086.18,0.527,0.527,0,0,0,0,.491c0.082,0,.078-0.078.105-0.123a0.13,0.13,0,0,1,.138-0.095c0.081,0.019.058,0.095,0.059,0.152s0.006,0.149.087,0.117c0.159-.063.186,0.05,0.243,0.142a0.4,0.4,0,0,0,.115.21,1.263,1.263,0,0,1,.465.538,0.163,0.163,0,0,0,.1.109c0.242-.013.234,0.2,0.272,0.329,0.108,0.355.352,0.641,0.467,0.989a0.1,0.1,0,0,0,.065.058c0.239-.008.249,0.149,0.245,0.325a0.18,0.18,0,0,0,.081.156,0.419,0.419,0,0,1,.214.577,0.087,0.087,0,0,0,.058.122,0.4,0.4,0,0,1,.213.4,1.39,1.39,0,0,0,.164.568,0.064,0.064,0,0,1,.012.028,9.548,9.548,0,0,0,.219,1.115,0.13,0.13,0,0,0,0,.059,1.1,1.1,0,0,1,.133.823c0.021,0.12.058,0.236,0.07,0.358a0.871,0.871,0,0,1-.013.291,0.928,0.928,0,0,0,.085.481A0.735,0.735,0,0,1,87.944,27.961Zm-3.83-8.775a0.091,0.091,0,0,0-.088.1c-0.008.088,0.068,0.083,0.124,0.087a0.067,0.067,0,0,0,.076-0.086A0.139,0.139,0,0,0,84.114,19.186Zm-2.183-1.64h0s0-.006,0-0.01Zm0-.011,0,0.011-0.008-.01h0Zm0.4,0.07a2.89,2.89,0,0,0-.4-0.07l-0.059-.181A1.044,1.044,0,0,1,82.325,17.6Zm0.547,0.306h0a1.635,1.635,0,0,1,.409.383A0.374,0.374,0,0,1,82.872,17.911Zm0,0h0v0h0Zm-0.391-.133a0.708,0.708,0,0,1,.391.133C82.688,18.035,82.644,17.824,82.478,17.779ZM79.971,37.885a0.051,0.051,0,0,1,.078.009,0.056,0.056,0,0,1-.007.081,0.21,0.21,0,0,0-.125.238,0.1,0.1,0,0,1-.2.018,0.237,0.237,0,0,1-.018-0.178h0A0.714,0.714,0,0,0,79.971,37.885Zm-0.572.263c0.092-.18.092-0.18,0.293-0.1h0A0.529,0.529,0,0,0,79.4,38.148Zm0.156,0.563a0.408,0.408,0,0,1-.382.257c-0.009,0-.016-0.015-0.025-0.016-0.245-.035-0.3.021-0.249,0.3-0.269-.09-0.353.123-0.475,0.292L78.237,39.4a0.065,0.065,0,0,0-.074.05,0.32,0.32,0,0,0-.046.143,1.424,1.424,0,0,1-.324.793,1.488,1.488,0,0,1-.57.362,0.141,0.141,0,0,0-.081.081,0.268,0.268,0,0,1-.3.153c-0.131-.014-0.155.049-0.206,0.157-0.172.366-.251,0.492-0.595,0.429A0.26,0.26,0,0,1,76.1,41.44c0.014-.134-0.046-0.2-0.173-0.172a0.7,0.7,0,0,0-.567.413,0.518,0.518,0,0,1-.327.326c-0.073.034-.153,0.056-0.226,0.092a0.144,0.144,0,0,0-.078.18c0.026,0.086.1,0.043,0.156,0.04a0.754,0.754,0,0,0,.547-0.149,0.233,0.233,0,0,1,.174-0.03A0.811,0.811,0,0,0,76,42a9.035,9.035,0,0,1,.874-0.423,0.452,0.452,0,0,0,.351-0.158,0.1,0.1,0,0,1,.154.028c0.052,0.095.088,0.244,0.007,0.282a1.443,1.443,0,0,1-.578.315,0.358,0.358,0,0,0-.333.116,0.189,0.189,0,0,1-.23.058,0.48,0.48,0,0,0-.459.173,0.3,0.3,0,0,1-.266.142,0.516,0.516,0,0,0-.356.13,1.239,1.239,0,0,1-.37.124,0.483,0.483,0,0,0-.279.127,0.087,0.087,0,0,1-.08.026,0.21,0.21,0,0,0-.336.125,0.131,0.131,0,0,1-.227.034,0.131,0.131,0,0,0-.21.035,0.24,0.24,0,0,1-.264.1,0.167,0.167,0,0,0-.216.117,0.118,0.118,0,0,1-.157.058,0.551,0.551,0,0,0-.507.078,0.239,0.239,0,0,1-.314-0.008c-0.046-.044-0.154-0.04-0.156.019-0.008.208-.182,0.153-0.287,0.2a1.912,1.912,0,0,1-.29.074c-0.055-.154.126-0.118,0.135-0.216a0.19,0.19,0,0,0-.069-0.032c-0.1.091-.332,0.012-0.329,0.261,0,0.089-.256.114-0.3,0.023a0.086,0.086,0,0,0-.137-0.054c-0.176.072-.353,0.14-0.529,0.212a0.359,0.359,0,0,1-.172.055c-0.047,0-.114.011-0.11-0.064,0-.053.065-0.033,0.1-0.05a0.3,0.3,0,0,0,.054-0.059,0.21,0.21,0,0,0-.232.078,0.4,0.4,0,0,1-.462.139,0.23,0.23,0,0,0-.189.016,0.893,0.893,0,0,1-.595.153,0.128,0.128,0,0,0-.1.05,0.819,0.819,0,0,1-.336.105,4.241,4.241,0,0,0-.637.194,0.213,0.213,0,0,0-.043.037c-0.19-.169-0.309,0-0.446.09a0.117,0.117,0,0,1-.086.022,2.518,2.518,0,0,0-.992.009,1.109,1.109,0,0,1-.675-0.046,0.209,0.209,0,0,0-.175-0.02,5.1,5.1,0,0,1-1.488.186,4.457,4.457,0,0,0-.638-0.031,2.906,2.906,0,0,0-.561.078,1.623,1.623,0,0,1-.741.083c-0.262-.032-0.543.007-0.813-0.008-0.59-.033-1.178-0.093-1.767-0.13a7.011,7.011,0,0,1-1.077-.191,0.851,0.851,0,0,1-.687-0.388c-0.017-.037-0.081-0.1-0.139-0.011-0.091.143-.2,0.026-0.293,0-0.108-.028-0.057-0.137-0.054-0.211a0.975,0.975,0,0,1,.041-0.175,0.433,0.433,0,0,0-.275-0.022,0.278,0.278,0,0,0-.016.058c-0.005.086,0.132,0.174,0.034,0.245a0.166,0.166,0,0,1-.226-0.1c-0.076-.119-0.229.011-0.309-0.12a0.692,0.692,0,0,1,.405-0.079c0.058-.262-0.187-0.171-0.265-0.263a0.35,0.35,0,0,0-.317-0.128c-0.029.111-.086,0.193-0.208,0.109a0.647,0.647,0,0,0-.6-0.1c-0.07.023-.052-0.015-0.07-0.043-0.122-.2-0.191-0.2-0.312-0.022a0.627,0.627,0,0,1-.157.17,0.485,0.485,0,0,0-.335-0.331,0.064,0.064,0,0,0-.08.02,0.11,0.11,0,0,0-.01.085,0.328,0.328,0,0,0,.13.165c0.084,0.043.019,0.067,0,.11a0.832,0.832,0,0,1-.218.029c-0.038.136-.132,0.084-0.212,0.108-0.349.108-.694-0.081-1.041,0a0.09,0.09,0,0,1-.078-0.024c-0.1-.312-0.339-0.157-0.492-0.111a2.612,2.612,0,0,1-.377.09,0.317,0.317,0,0,0-.169.042c-0.125.089-.128,0.141,0.006,0.215a0.486,0.486,0,0,1,.263.183c0.042,0.083.123,0.023,0.185-.014,0.1-.06.135,0.014,0.134,0.09,0,0.059.06,0.15-.1,0.158a1.228,1.228,0,0,0-.662.121,0.176,0.176,0,0,1-.176-0.014,0.743,0.743,0,0,0-.791.006c-0.033.021-.074,0.039-0.1-0.014-0.1-.21-0.282-0.09-0.43-0.1a0.968,0.968,0,0,1-.14.044,2.649,2.649,0,0,0-.821-0.159,1.364,1.364,0,0,0-.741-0.023,0.114,0.114,0,0,1-.149-0.067,0.291,0.291,0,0,0-.207-0.205,0.654,0.654,0,0,0-.24.119,0.472,0.472,0,0,1-.383,0,0.45,0.45,0,0,0-.553.067c-0.014-.231-0.1-0.3-0.3-0.232a1.186,1.186,0,0,1-.325-0.034,3.419,3.419,0,0,0-.534.049,1.2,1.2,0,0,1-.626-0.061,0.371,0.371,0,0,0-.4-0.017,0.087,0.087,0,0,1-.114-0.01,0.817,0.817,0,0,0-.706-0.156,2.671,2.671,0,0,1-.536-0.008,2.924,2.924,0,0,0-.833-0.074,2.209,2.209,0,0,1-.846-0.19,0.549,0.549,0,0,0-.447.008,0.3,0.3,0,0,1-.238.012,1.578,1.578,0,0,0-.737-0.105,6.224,6.224,0,0,1-1.106-.211,0.288,0.288,0,0,0-.221.009,0.659,0.659,0,0,1-.52-0.065,1.179,1.179,0,0,0-.523-0.121,0.95,0.95,0,0,1-.7-0.21,0.426,0.426,0,0,0-.369-0.09,0.409,0.409,0,0,1-.342-0.078,1.043,1.043,0,0,0-.438-0.041,0.368,0.368,0,0,1-.235-0.039,1.341,1.341,0,0,0-.695-0.284,1.013,1.013,0,0,1-.526-0.288,0.327,0.327,0,0,0-.176-0.114,0.586,0.586,0,0,1-.406-0.34c-0.05-.074-0.08-0.186-0.2-0.079a0.06,0.06,0,0,1-.082,0,1.428,1.428,0,0,1-.506-0.732,0.748,0.748,0,0,1-.055-0.475,0.039,0.039,0,0,0,.005-0.029,1.29,1.29,0,0,1-.123-0.786,1.361,1.361,0,0,1,.086-1.074,0.4,0.4,0,0,0,.025-0.409,0.183,0.183,0,0,1,.055-0.248,0.474,0.474,0,0,0,.174-0.369,1.428,1.428,0,0,1,.359-0.622,0.34,0.34,0,0,0,.113-0.265A0.363,0.363,0,0,1,34.11,36a0.2,0.2,0,0,1,.211.051,0.481,0.481,0,0,0,.449.2,0.1,0.1,0,0,1,.092.069,1.3,1.3,0,0,0,.446.426,0.358,0.358,0,0,1,.15.316,0.394,0.394,0,0,0,.227.4,0.127,0.127,0,0,1,.079.173,0.966,0.966,0,0,0,.361.865,0.635,0.635,0,0,1,.257.328c0.01,0.1.1,0.093,0.169,0.083a0.132,0.132,0,0,1,.164.1,0.405,0.405,0,0,0,.319.288,3.943,3.943,0,0,0,.377.225c0.181,0.027.238,0,.217-0.169a1.052,1.052,0,0,1,.094-0.682,0.2,0.2,0,0,0,0-.118,0.906,0.906,0,0,1,.071-0.5c0.046-.12.048-0.275,0.092-0.37a2.149,2.149,0,0,1,.135-0.511c0.092-.119-0.029-0.346.194-0.409a1.53,1.53,0,0,1,.075-0.459,0.214,0.214,0,0,1,.043-0.112,1.256,1.256,0,0,0,.135-0.648,1.674,1.674,0,0,1,.318-1,0.244,0.244,0,0,0,.06-0.277,1.607,1.607,0,0,0-.032-0.56,0.065,0.065,0,0,1,.031-0.038c0.228-.044.167-0.227,0.167-0.367a1.885,1.885,0,0,1,.227-0.831,0.2,0.2,0,0,0,.017-0.14c-0.03-.17-0.042-0.342-0.072-0.512a0.2,0.2,0,0,1,.087-0.211,0.284,0.284,0,0,0,.135-0.364,0.373,0.373,0,0,1,.073-0.309,1.084,1.084,0,0,0,.093-0.56,1.693,1.693,0,0,1,.119-0.813,1.158,1.158,0,0,0,.03-0.4,3.742,3.742,0,0,0,.258-0.734,0.262,0.262,0,0,1,.11-0.172,0.176,0.176,0,0,0,.051-0.261c-0.085-.175-0.069-0.22.128-0.272,0.154-.041.136-0.13,0.055-0.18a0.209,0.209,0,0,1-.1-0.205,1.013,1.013,0,0,0-.567-0.878,0.41,0.41,0,0,1-.166-0.122,0.212,0.212,0,0,0-.124-0.084,0.9,0.9,0,0,1-.612-0.3,0.317,0.317,0,0,0-.154-0.094A2.443,2.443,0,0,1,38,25.572c-0.043-.014-0.078-0.025-0.075-0.073,0.011-.2-0.195-0.311-0.2-0.5a0.065,0.065,0,0,0-.027-0.052,3.869,3.869,0,0,1-.528-0.423,0.506,0.506,0,0,1-.246-0.258c-0.117-.182-0.3-0.293-0.417-0.462s-0.218-.329-0.336-0.489c-0.05-.067.042-0.154-0.006-0.253-0.1-.215-0.164-0.451-0.261-0.669a4.29,4.29,0,0,1-.391-1.53A1.809,1.809,0,0,0,35.38,20.1c-0.041-.078-0.079-0.145.062-0.166,0.033-.006.022-0.1-0.007-0.139a1.771,1.771,0,0,1-.157-0.617,0.261,0.261,0,0,1,.161-0.349,0.175,0.175,0,0,0,.08-0.038,1.32,1.32,0,0,1,.392-0.526,0.134,0.134,0,0,1,.191-0.1,1.625,1.625,0,0,1,.279-0.089c0.163-.2.346-0.042,0.505,0l0.424,0.1a3.806,3.806,0,0,1,.562.176,0.541,0.541,0,0,0,.289.052,0.315,0.315,0,0,1,.206.038,1.557,1.557,0,0,0,.984.1,4.482,4.482,0,0,0,.555-0.043,0.933,0.933,0,0,1,.291,0,0.18,0.18,0,0,0,.2-0.055,0.424,0.424,0,0,1,.374-0.171,3.184,3.184,0,0,0,.542-0.24,0.25,0.25,0,0,1,.219,0,0.24,0.24,0,0,0,.377-0.135,0.435,0.435,0,0,1,.323-0.25,0.369,0.369,0,0,1,.179-0.018,1.258,1.258,0,0,0,.279-0.083c0.164,0.016.007-.136,0.06-0.2S42.8,17.2,42.9,17.27a0.19,0.19,0,0,0,.244-0.042,3.328,3.328,0,0,0,.657-0.578,1.065,1.065,0,0,1,.727-0.531,0.135,0.135,0,0,0,.1-0.1c0.021-.046.033-0.1,0.049-0.144a0.459,0.459,0,0,1,.35-0.347,0.545,0.545,0,0,1,.467.344,1.839,1.839,0,0,1,0,1.156,0.292,0.292,0,0,0-.017.179,0.886,0.886,0,0,1-.041.475,1.858,1.858,0,0,0-.021.566,0.32,0.32,0,0,1-.077.33,0.5,0.5,0,0,0-.017.335,0.27,0.27,0,0,1-.021.233,0.336,0.336,0,0,0-.039.348c0.094,0.262.045,0.54,0.12,0.805a0.373,0.373,0,0,1-.041.429,0.064,0.064,0,0,0-.015.057,1.813,1.813,0,0,1-.022.719,1.648,1.648,0,0,1-.088.858,2.394,2.394,0,0,0-.031.742,0.679,0.679,0,0,1-.052.25,0.547,0.547,0,0,0-.077.465,0.471,0.471,0,0,1-.115.408,1.02,1.02,0,0,0-.145.6c-0.022.109,0.038,0.25-.161,0.268-0.078.007-.05,0.122-0.043,0.189a0.467,0.467,0,0,1-.173.541,0.151,0.151,0,0,0-.041.194,0.261,0.261,0,0,1-.013.263,2.772,2.772,0,0,0-.3.605,0.319,0.319,0,0,0-.078.161,2.015,2.015,0,0,1,.02.42,1.839,1.839,0,0,0-.179.344,0.193,0.193,0,0,1-.084.186,0.1,0.1,0,0,0-.033.157,0.129,0.129,0,0,1-.052.2c-0.1.066-.1,0.182,0.057,0.221,0.043,0.011.092,0.033,0.071,0.075a1.321,1.321,0,0,1-.164.671,0.489,0.489,0,0,0-.185.54,0.108,0.108,0,0,1-.008.089,0.84,0.84,0,0,0-.1.556,1.035,1.035,0,0,1-.235.775,0.17,0.17,0,0,0-.016.2,0.321,0.321,0,0,1-.052.341,0.288,0.288,0,0,0-.085.252,0.18,0.18,0,0,1-.113.265,0.091,0.091,0,0,0-.043.107,0.9,0.9,0,0,1-.054.305c0,0.185-.106.339-0.1,0.516a1.933,1.933,0,0,1-.214.942,0.26,0.26,0,0,0,.012.358,0.154,0.154,0,0,1-.045.239,0.59,0.59,0,0,0-.186.491,0.278,0.278,0,0,1-.121.287,0.863,0.863,0,0,0-.064.281,0.307,0.307,0,0,0-.2.142,3.11,3.11,0,0,1-.115.406c-0.082.221-.174,0.439-0.266,0.657a0.764,0.764,0,0,0-.013.33,0.439,0.439,0,0,1-.188.47,0.2,0.2,0,0,0-.089.263,0.23,0.23,0,0,1-.032.226,0.4,0.4,0,0,0-.154.455c0.028,0.053-.049.045-0.074,0.068a0.7,0.7,0,0,0-.228.41,0.477,0.477,0,0,1-.466.479,0.5,0.5,0,0,1-.025.535,0.173,0.173,0,0,0,.1.25,1.568,1.568,0,0,0,.709.257,0.189,0.189,0,0,0,.088,0,2.222,2.222,0,0,1,.541-0.126c0.075-.048.037,0.031,0.048,0.052a0.354,0.354,0,0,0,.612.1,0.136,0.136,0,0,1,.181-0.054,0.362,0.362,0,0,0,.394.066,0.092,0.092,0,0,1,.087.014,0.332,0.332,0,0,0,.43.108,0.053,0.053,0,0,1,.069.043c0.027,0.2.177,0.185,0.323,0.191a1.069,1.069,0,0,1,.238.054,0.683,0.683,0,0,0,.484.014,0.27,0.27,0,0,1,.312.033,3.289,3.289,0,0,0,.544.132,0.84,0.84,0,0,0,.118-0.147,1.048,1.048,0,0,0,.633.281c0.183,0.047.373,0.057,0.557,0.123a0.683,0.683,0,0,0,.48.031,0.492,0.492,0,0,1,.274.042,1.994,1.994,0,0,0,1.44.159,0.224,0.224,0,0,1,.355.091,0.207,0.207,0,0,0,.233.113,0.967,0.967,0,0,1,.552.033c0.352,0.049.351,0.06,0.409-.265a0.108,0.108,0,0,1,.052.021c0.06,0.274.094,0.3,0.44,0.306a1.589,1.589,0,0,1,.377-0.059,2.853,2.853,0,0,0,.316.164,0.154,0.154,0,0,0,.168.012,0.065,0.065,0,0,1,.105.005,0.111,0.111,0,0,1-.005.141c-0.033.037-.086,0.055-0.123,0.089a0.105,0.105,0,0,0-.029.138,0.084,0.084,0,0,0,.15,0c0.042-.057.075-0.068,0.1,0a0.7,0.7,0,0,0,.6.457c0.12,0.019.133,0.086,0.083,0.308,0.1,0.005.182-.038,0.159-0.133a0.486,0.486,0,0,0-.207-0.385c-0.2-.111-0.2-0.148-0.045-0.366a0.115,0.115,0,0,0,0-.058,0.276,0.276,0,0,0-.235.007,0.136,0.136,0,0,1-.167-0.024,0.248,0.248,0,0,1,.037-0.2c0.02-.068.076-0.048,0.126-0.048a4.393,4.393,0,0,1,1.139.1c0.069,0.019.174,0.045,0.137-.109s0.079-.148.167-0.12a0.18,0.18,0,0,1,.157.128c0.007,0.1.058,0.108,0.139,0.113a0.366,0.366,0,0,1,.365.226,0.146,0.146,0,0,0,.118.088c0.053,0.011.109,0.016,0.107-.059,0-.058-0.051-0.127.015-0.166a0.247,0.247,0,0,1,.236-0.008c0.12,0.067.209,0.124,0.265-.069a0.121,0.121,0,0,1,.18-0.052c0.129,0.171.217,0.016,0.3-.03a0.158,0.158,0,0,1,.072.145c0.006,0.05.021,0.1,0.04,0.18a0.577,0.577,0,0,0-.315-0.008,0.085,0.085,0,0,0-.067.088,0.075,0.075,0,0,0,.089.065c0.123-.03.209-0.035,0.245,0.127a0.091,0.091,0,0,0,.179.018,0.345,0.345,0,0,1,.295-0.163,0.382,0.382,0,0,0,.331-0.4c0.128,0,.114.091,0.136,0.151,0.063,0.178.106,0.216,0.253,0.129a0.336,0.336,0,0,1,.257-0.032,3.394,3.394,0,0,1,.721.08,0.175,0.175,0,0,0,.12,0,0.591,0.591,0,0,1,.554.023,0.121,0.121,0,0,0,.141-0.022,0.441,0.441,0,0,1,.1-0.059c0.168,0.22.328-.023,0.491-0.007s0.343,0.024.515,0.035l0.061,0a0.784,0.784,0,0,1,.176-0.133,0.327,0.327,0,0,0,.207.093,3.076,3.076,0,0,0,.426-0.042,0.635,0.635,0,0,1,.542.033,0.13,0.13,0,0,0,.06-0.175,0.075,0.075,0,0,1,.092-0.088c0.013,0,.426.123,0.443,0.135a0.087,0.087,0,0,0,.129-0.034,0.48,0.48,0,0,1,.13-0.2C62,42.4,61.936,42.6,62.177,42.571c0.157-.015-0.02-0.162.069-0.224,0.065,0,.046.069,0.066,0.107a0.254,0.254,0,0,0,.441.069,1.209,1.209,0,0,1,.178-0.147c0.122-.109.21-0.2,0.262,0.052a0.1,0.1,0,0,0,.174.02,0.324,0.324,0,0,1,.44-0.045,0.428,0.428,0,0,0,.343-0.011,2.074,2.074,0,0,1,.786-0.084c0.192,0.01.412,0.11,0.522-.232,0.054,0.206.135,0.257,0.29,0.181s0.345-.023.5-0.106a0.1,0.1,0,0,1,.112.029,0.293,0.293,0,0,0,.407,0c0.182-.1.182-0.1,0.122-0.336a0.2,0.2,0,0,1,.3.1,0.191,0.191,0,0,0,.282.092,0.361,0.361,0,0,1,.339.02,0.519,0.519,0,0,0,.063-0.207,0.1,0.1,0,0,1,.055-0.008,0.811,0.811,0,0,0,.7,0,3.158,3.158,0,0,1,.446-0.089,1.925,1.925,0,0,0,.568-0.239,0.2,0.2,0,0,1,.22.016,1.017,1.017,0,0,0,.807.009,0.089,0.089,0,0,0,.066-0.117,0.2,0.2,0,0,1,.153-0.205c0.08,0.095-.083.127-0.043,0.22,0.082,0.024.17,0.049,0.206-.078a0.1,0.1,0,0,1,.129-0.087c0.256,0.041.256,0.038,0.369-.165a0.829,0.829,0,0,0,1,.006c-0.011-.123-0.186-0.114-0.2-0.245a0.19,0.19,0,0,1,.252.072c0.094,0.116.2,0.212,0.353,0.059a0.168,0.168,0,0,1,.116-0.032,0.83,0.83,0,0,0,.658-0.4,0.371,0.371,0,0,0-.215-0.052,1.137,1.137,0,0,1,.156-0.126c0.121-.069.157-0.038,0.147,0.123-0.007.109,0.061,0.143,0.126,0.087a1.247,1.247,0,0,1,.523-0.215,4.124,4.124,0,0,1,.9-0.3c0.155-.008.179-0.095,0.168-0.356a0.642,0.642,0,0,0,.225.231,2.376,2.376,0,0,1-.355.227,0.173,0.173,0,0,0,.233.153,0.216,0.216,0,0,0,.2-0.164,0.663,0.663,0,0,1,.591-0.608,0.293,0.293,0,0,1,.165-0.042c-0.026.118,0.136,0.254-.058,0.358a0.062,0.062,0,0,0,.1.031,1.536,1.536,0,0,1,.554-0.259,0.17,0.17,0,0,0,.126-0.228,0.44,0.44,0,0,1,.354-0.452c0.1-.027.121,0.031,0.16,0.088,0.05,0.073.006,0.105-.048,0.146a0.354,0.354,0,0,0-.17.123c-0.008.018-.015,0.037-0.028,0.07a0.177,0.177,0,0,0,.188-0.008c0.247-.119.505-0.208,0.761-0.3a0.4,0.4,0,0,0,.328-0.408,0.076,0.076,0,0,1,.078-0.1c0.041,0,.082-0.008.122-0.016a0.215,0.215,0,0,0,.236-0.149,0.176,0.176,0,0,0-.2-0.158c0.045-.091.119-0.143,0.168-0.077a0.706,0.706,0,0,1,.217.238A0.5,0.5,0,0,0,79.555,38.712ZM46.908,43.234a0.694,0.694,0,0,0-.419.088,0.384,0.384,0,0,0,.462.109,0.121,0.121,0,0,0,.071-0.123A0.1,0.1,0,0,0,46.908,43.234Zm4.118-.906a0.093,0.093,0,0,0-.071.032c-0.017.047,0.021,0.068,0.062,0.07a0.057,0.057,0,0,0,.061-0.046A0.051,0.051,0,0,0,51.026,42.328Zm0.992,1.113a0.536,0.536,0,0,0-.013-0.089c-0.019-.058-0.047-0.129-0.12-0.091a0.118,0.118,0,0,0,.113.2c-0.03.07,0,.141,0.065,0.13a0.151,0.151,0,0,0,.128-0.222Zm0.687-.948a0.089,0.089,0,0,0-.04.025,0.091,0.091,0,0,0,.041.1c0.037,0.024.053,0,.054-0.033A0.09,0.09,0,0,0,52.706,42.493ZM55.913,43.4a0.081,0.081,0,0,0-.127-0.008,0.06,0.06,0,0,0,0,.054,0.089,0.089,0,0,0,.1.042,0.408,0.408,0,0,0,.076-0.019A0.31,0.31,0,0,0,55.913,43.4ZM67.371,42.13c-0.079,0-.169-0.005-0.18.106a0.075,0.075,0,0,0,.078.075,0.205,0.205,0,0,0,.2-0.105C67.49,42.15,67.422,42.128,67.371,42.13Zm2.644,1.191a0.256,0.256,0,0,1-.027.013,0.115,0.115,0,0,0-.1.128,0.112,0.112,0,0,0,.136.087,1.52,1.52,0,0,0,.632-0.176A1.122,1.122,0,0,0,70.014,43.32ZM71.9,41.341a0.049,0.049,0,0,0-.049.06c0.005,0.054.018,0.1,0.085,0.093a0.143,0.143,0,0,0,.042-0.068C71.958,41.382,71.949,41.337,71.9,41.341Zm3.247-1.074-0.209.13a0.314,0.314,0,0,0,.247.169A0.627,0.627,0,0,0,75.143,40.267Zm4.166-1.687a0.09,0.09,0,0,0-.088.1c-0.008.075,0.022,0.1,0.1,0.106,0.061,0.005.1,0,.109-0.064A0.13,0.13,0,0,0,79.309,38.58Zm-0.994.293a0.172,0.172,0,0,1-.059-0.02c0.048-.056.123-0.129,0.167-0.052S78.368,38.871,78.315,38.873Zm-1.332.383a0.1,0.1,0,0,1-.068-0.14,0.291,0.291,0,0,1,.187-0.191,0.429,0.429,0,0,1-.021.257A0.07,0.07,0,0,1,76.983,39.256Zm-0.895.105c0.019-.117.114-0.039,0.161-0.068,0.047,0.023.144-.022,0.112,0.052a0.318,0.318,0,0,1-.2.125A0.09,0.09,0,0,1,76.089,39.362Zm-1.2.663a0.06,0.06,0,0,1,0-.027,0.218,0.218,0,0,1,.163-0.145,0.057,0.057,0,0,1,.028.046A0.142,0.142,0,0,1,74.893,40.025Zm-5.865,1.566c-0.006-.027,0-0.061.042-0.047a0.164,0.164,0,0,1,.05.054c0,0.044-.022.065-0.05,0.055A0.092,0.092,0,0,1,69.028,41.591ZM58.3,42.506a0.1,0.1,0,0,1-.044-0.066,0.042,0.042,0,0,1,.06-0.042,0.159,0.159,0,0,1,.044.06C58.349,42.5,58.336,42.528,58.3,42.506Zm-2.455.073a0.045,0.045,0,0,1,.05-0.057c0.052,0.007.053,0.052,0.055,0.093a0.3,0.3,0,0,1-.026.047A0.109,0.109,0,0,1,55.845,42.579Zm-5.916-.591a0.048,0.048,0,0,1-.043-0.063,0.111,0.111,0,0,1,.107-0.088,0.053,0.053,0,0,1,.06.052C50.057,41.978,49.977,41.965,49.93,41.988ZM36.54,8.06a0.3,0.3,0,0,0-.084.281c0.032,0.25-.168.449-0.139,0.695a0.666,0.666,0,0,0-.309.491,0.323,0.323,0,0,0-.26.3,1.374,1.374,0,0,1-.271.4,1.4,1.4,0,0,0-.308.788,0.482,0.482,0,0,1-.215.4,0.579,0.579,0,0,0-.186.3,0.447,0.447,0,0,0-.05.144,0.815,0.815,0,0,1-.232.328,0.63,0.63,0,0,1-.111.39,0.86,0.86,0,0,0-.085.287,0.781,0.781,0,0,1-.167.566c-0.042.21-.083,0.42-0.125,0.631a1.974,1.974,0,0,1-.27.571,0.42,0.42,0,0,0-.076.315,0.3,0.3,0,0,1-.115.373c-0.083.048,0.024,0.142,0,.191a0.335,0.335,0,0,0-.1.369c-0.273.109-.089,0.39-0.188,0.527a4.561,4.561,0,0,0-.2.631,2.344,2.344,0,0,0-.3.883,0.29,0.29,0,0,1-.171.2,0.491,0.491,0,0,0-.111.034,0.9,0.9,0,0,0,.091.631,0.543,0.543,0,0,1,.264.236,0.7,0.7,0,0,0,.28.272,0.5,0.5,0,0,1,.064.064,3.109,3.109,0,0,1,.137.338,0.313,0.313,0,0,1,.194.28,0.265,0.265,0,0,0,.088.156,0.44,0.44,0,0,1,.093.244,2.3,2.3,0,0,0,.187.872,0.129,0.129,0,0,1,.023.084c-0.05.346,0.172,0.656,0.136,1a0.166,0.166,0,0,0,.087.181c0.042,0.021.071,0.073,0.045,0.1-0.149.14-.009,0.229,0.047,0.338a0.477,0.477,0,0,1,.077.229c-0.028.3,0.114,0.573,0.113,0.865a3.452,3.452,0,0,0,.234,1.157,0.228,0.228,0,0,1,.026.115,1.543,1.543,0,0,0,.183.837,0.67,0.67,0,0,1,.041.33,0.767,0.767,0,0,0,.178.443,1.077,1.077,0,0,1,.145.347,1.609,1.609,0,0,0,.16.455,0.6,0.6,0,0,1,0,.727,0.11,0.11,0,0,0-.024.114,2.393,2.393,0,0,1,.019.864c0.012,0.174.067,0.344,0.093,0.519a1.38,1.38,0,0,1-.087.829,0.327,0.327,0,0,0-.059.14,1.075,1.075,0,0,1-.524.8,0.233,0.233,0,0,1-.3.049,0.727,0.727,0,0,0-.516-0.033,0.575,0.575,0,0,1-.634-0.181,1.56,1.56,0,0,0-.3-0.2,1.369,1.369,0,0,1-.42-0.649A0.431,0.431,0,0,0,32.48,30.5a0.836,0.836,0,0,1-.336-0.564,0.452,0.452,0,0,0-.231-0.4,0.215,0.215,0,0,1-.076-0.271c0.034-.116.064-0.212-0.082-0.277a0.12,0.12,0,0,1-.053-0.16c0.049-.085.06-0.13-0.048-0.172a0.111,0.111,0,0,1-.04-0.16,0.39,0.39,0,0,0,.075-0.456c-0.1-.329.005-0.673-0.1-1a0.123,0.123,0,0,1-.013-0.057,0.564,0.564,0,0,0,.062-0.435,0.116,0.116,0,0,0,0-.09c-0.18-.292-0.035-0.648-0.186-0.944-0.049-.1-0.016-0.12.083-0.12,0.07,0,.069-0.063.054-0.114a1.951,1.951,0,0,1-.066-0.736,0.818,0.818,0,0,0-.077-0.356A0.312,0.312,0,0,1,31.4,23.96a0.456,0.456,0,0,0-.1-0.449,1.026,1.026,0,0,1-.206-0.531,0.178,0.178,0,0,0-.11-0.171,0.554,0.554,0,0,1-.277-0.382,0.223,0.223,0,0,0-.209-0.192,0.237,0.237,0,0,0-.257.165,2.081,2.081,0,0,1-.441.5,0.851,0.851,0,0,0-.348.607,0.075,0.075,0,0,1-.023.056,1.3,1.3,0,0,1-.892.576,0.6,0.6,0,0,0-.2.06,0.35,0.35,0,0,1-.457-0.28c-0.022-.162-0.234-0.3-0.07-0.486a1.015,1.015,0,0,1,0-.54,1.083,1.083,0,0,1,.2-0.593,0.391,0.391,0,0,0,.094-0.354,0.6,0.6,0,0,1,.167-0.617,0.2,0.2,0,0,0,.037-0.249c-0.038-.1-0.078-0.227.114-0.238a0.166,0.166,0,0,0,.126-0.155,4.648,4.648,0,0,0,.166-0.515,4.076,4.076,0,0,1,.142-0.449,0.286,0.286,0,0,0,.029-0.188,0.964,0.964,0,0,1,.16-0.5,0.706,0.706,0,0,1,.169-0.039,0.961,0.961,0,0,1,.608-0.363c0.047,0,.05-0.05.069-0.084a2.23,2.23,0,0,1,.353-0.552,0.088,0.088,0,0,0,.036-0.107,0.28,0.28,0,0,1,.083-0.327,7.255,7.255,0,0,1,.389-0.778,2,2,0,0,0,.273-0.617,0.138,0.138,0,0,0,.03-0.048,1.233,1.233,0,0,1,.129-0.732,2.37,2.37,0,0,1,.232-0.8c0.1-.17.071-0.385,0.185-0.557,0.068-.1.208-0.2,0.08-0.356,0.234-.3.022-0.719,0.289-1.006a1.023,1.023,0,0,0,.074-0.638,0.106,0.106,0,0,1,.043-0.135,0.678,0.678,0,0,0,.214-0.544,0.616,0.616,0,0,1,.224-0.506,0.507,0.507,0,0,0,.121-0.446,0.509,0.509,0,0,1,.072-0.275,0.763,0.763,0,0,0,.055-0.823c-0.054-.076-0.073-0.131.025-0.2,0.061-.042.071-0.139,0.14-0.194A0.241,0.241,0,0,0,33,8.576a0.272,0.272,0,0,1,0-.361,0.031,0.031,0,0,0,0-.03A0.423,0.423,0,0,1,33.1,7.7a2.247,2.247,0,0,1,.184-0.531,0.36,0.36,0,0,0,.029-0.238,1.461,1.461,0,0,1,.056-0.569c0.012-.026,0-0.082.009-0.087a0.7,0.7,0,0,0,.276-0.536c0.047-.111.072-0.213,0.235-0.152,0.1,0.036.128-.081,0.185-0.131,0.137-.121.335-0.053,0.477-0.16a0.317,0.317,0,0,0,.253-0.22c0.01-.1.139-0.088,0.21-0.059a2.7,2.7,0,0,1,.853.294,0.1,0.1,0,0,0,.056.025,0.544,0.544,0,0,1,.5.489,5.471,5.471,0,0,1,.288.735,1.287,1.287,0,0,1,.1.22,1.647,1.647,0,0,1-.015.164,1.393,1.393,0,0,0,.054.5,0.345,0.345,0,0,1,.009.114C36.55,7.594,36.788,7.973,36.54,8.06Zm-7.9,31.412a4.819,4.819,0,0,0,.351-0.361c0.314-.32.634-0.631,0.928-0.972a6.328,6.328,0,0,0,.7-0.874,0.739,0.739,0,0,0,.262-0.162,0.515,0.515,0,0,1,.062-0.286,10.646,10.646,0,0,0,.718-1.2c0.183-.338.311-0.706,0.46-1.061a1.584,1.584,0,0,1,.329-0.577c-0.044.131-.091,0.261-0.132,0.394a0.652,0.652,0,0,0,.009.616,0.129,0.129,0,0,1,.011.118c-0.064.2-.112,0.414-0.2,0.61a13.37,13.37,0,0,1-.666,1.31,1.134,1.134,0,0,1-.271.368,1.147,1.147,0,0,0-.362.615,1.57,1.57,0,0,1-.382.712,0.459,0.459,0,0,0-.153.444,0.962,0.962,0,0,1-.386.879,3.889,3.889,0,0,1-.675.511,8.1,8.1,0,0,1-1.575.785,1.414,1.414,0,0,1-.921.12,0.246,0.246,0,0,0-.274.091,0.849,0.849,0,0,1-.848.349,0.44,0.44,0,0,0-.176.037,4.116,4.116,0,0,1-1.595.122,0.3,0.3,0,0,0-.23.018,0.543,0.543,0,0,1-.3.019,9.026,9.026,0,0,1-1.819-.216,2.8,2.8,0,0,1-1.176-.381,0.359,0.359,0,0,0-.236-0.054,1.425,1.425,0,0,1-.715-0.232,3.847,3.847,0,0,0-.916-0.358,0.244,0.244,0,0,1-.189-0.087,0.6,0.6,0,0,0-.512-0.284,1.306,1.306,0,0,1-.539-0.27,5.48,5.48,0,0,0-.9-0.549,0.2,0.2,0,0,1-.091-0.079,4.324,4.324,0,0,0-.523-0.642,1.628,1.628,0,0,1-.114-0.4,0.288,0.288,0,0,0-.133-0.189,3.323,3.323,0,0,1-.314-0.34c-0.044-.017-0.024-0.07-0.013-0.109a0.148,0.148,0,0,0-.037-0.169,1.3,1.3,0,0,1-.35-0.932,6.755,6.755,0,0,1,.038-1.894,11.31,11.31,0,0,1,.256-1.224c0.108-.37.188-0.75,0.3-1.12a6.746,6.746,0,0,1,.6-1.372,2.363,2.363,0,0,0,.295-0.48,0.378,0.378,0,0,1,.45-0.17,2.673,2.673,0,0,1,.822.384,0.442,0.442,0,0,1,.1.763,3.861,3.861,0,0,1-.554.625,0.724,0.724,0,0,0-.224.493,8.524,8.524,0,0,1-.307.857c-0.1.327-.246,0.64-0.372,0.959a0.2,0.2,0,0,0-.009.149,0.388,0.388,0,0,1-.034.324,0.469,0.469,0,0,0-.031.44,0.107,0.107,0,0,1,0,.114,2.2,2.2,0,0,0-.1.9,1.469,1.469,0,0,0,.122.4,4.486,4.486,0,0,0,.259.745,3.459,3.459,0,0,0,.671,1.014,5.95,5.95,0,0,0,1.7,1.284,0.205,0.205,0,0,1,.081.039,0.7,0.7,0,0,0,.516.275c0.358,0.122.687,0.307,1.045,0.429a5.4,5.4,0,0,0,1.693.363,0.473,0.473,0,0,1,.238.042,1.284,1.284,0,0,0,.683.109,2.258,2.258,0,0,1,.778.062,0.2,0.2,0,0,0,.149-0.011,6.57,6.57,0,0,1,1.1-.223,4.917,4.917,0,0,0,1.9-.613,4.934,4.934,0,0,1,.736-0.35c0.184-.089.335-0.219,0.511-0.314A3.226,3.226,0,0,0,28.641,39.473Zm-4.8-13.015c-0.136.334,0.145,0.651,0.014,1.009-0.086.237-.054,0.527-0.143,0.783a0.065,0.065,0,0,0,.008.054c0.316,0.119.113,0.333,0.076,0.5a0.432,0.432,0,0,0-.028.374c0.051,0.083-.2.1-0.055,0.213s-0.01.173-.018,0.259a0.223,0.223,0,0,0,.029.2c0.112,0.075.064,0.113,0.026,0.215a0.936,0.936,0,0,0-.114.7,0.211,0.211,0,0,1-.06.192c-0.127.224-.126,0.224,0.039,0.433a0.5,0.5,0,0,0-.358.284,0.159,0.159,0,0,0,0,.166,0.313,0.313,0,0,1,.008.44,1.03,1.03,0,0,0-.1.35,0.269,0.269,0,0,0,.083.3,0.306,0.306,0,0,1,.066.255,1.734,1.734,0,0,1-.142.737c-0.083.164-.267,0.338-0.068,0.548a0.136,0.136,0,0,1-.028.077,1.722,1.722,0,0,0-.264.859,0.953,0.953,0,0,1-.45.577c-0.031.032-.123,0.006-0.131,0.089a0.168,0.168,0,0,0,.128.15c0.046,0.032.131-.018,0.152,0.093a0.326,0.326,0,0,1-.353.039c-0.1-.026-0.137.005-0.142,0.09a2.037,2.037,0,0,0-.076.323,0.376,0.376,0,0,1-.329.5,0.654,0.654,0,0,0-.324.136,0.144,0.144,0,0,1-.109.044,2.843,2.843,0,0,0-.806-0.065,0.326,0.326,0,0,0-.287.022,0.228,0.228,0,0,1-.368-0.212c0.009-.137.017-0.163-0.135-0.175a0.452,0.452,0,0,1-.376-0.557,0.375,0.375,0,0,0-.05-0.263c-0.076-.155-0.157-0.307-0.237-0.46-0.033-.062-0.085-0.117-0.018-0.191a0.083,0.083,0,0,0-.01-0.113c-0.175-.121-0.166-0.362-0.342-0.491-0.2-.147-0.193-0.306.006-0.464,0.079-.062.116-0.1,0.066-0.193a0.165,0.165,0,0,1,.022-0.2,0.522,0.522,0,0,0,.119-0.5c0.006-.111-0.044-0.223.092-0.29a0.106,0.106,0,0,0,.04-0.135,0.188,0.188,0,0,1,.117-0.247,0.108,0.108,0,0,0,.075-0.118,0.2,0.2,0,0,1,.158-0.192c0.13-.069.275-0.14,0.192-0.346a0.675,0.675,0,0,1,.054-0.214c0.019-.22.094-0.435,0.114-0.655a0.338,0.338,0,0,1,.121-0.151,0.5,0.5,0,0,0,.121-0.415c-0.077-.214.271-0.138,0.267-0.3a2.977,2.977,0,0,0,.177-0.844c0.194-.216.049-0.529,0.221-0.757a0.624,0.624,0,0,0,.044-0.266A0.415,0.415,0,0,1,20.7,28.3a0.129,0.129,0,0,0,.02-0.21,0.1,0.1,0,0,1,0-.158,0.154,0.154,0,0,0,.044-0.269c-0.049-.063.034-0.08,0.07-0.1a0.481,0.481,0,0,0,.213-0.394,5.509,5.509,0,0,0,.11-0.824,2.3,2.3,0,0,0,.012-0.822,0.348,0.348,0,0,1-.006-0.21,2.429,2.429,0,0,0,.1-1.047c-0.054-.389,0-0.777-0.065-1.165a2.87,2.87,0,0,1,0-.959c0.034-.2.037-0.414,0.088-0.617a0.39,0.39,0,0,1,.385-0.332,0.17,0.17,0,0,0,.141.022c0.192-.167.314-0.027,0.441,0.094,0.081,0.077.174,0.146,0.246,0.226a0.885,0.885,0,0,1,.381.693,0.255,0.255,0,0,0,.132.2,0.343,0.343,0,0,1,.141.229c0.042,0.384.243,0.721,0.314,1.1h0a1.406,1.406,0,0,1,.133.583,0.94,0.94,0,0,1-.029.271,0.357,0.357,0,0,0-.027.149c0.006,0.172.27,0.3,0.09,0.507a1.383,1.383,0,0,0,.23.521,0.237,0.237,0,0,1-.016.305C23.786,26.216,23.69,26.326,23.837,26.458Zm-0.67,4.815a0.092,0.092,0,0,0,.121.053c0.026-.005.061-0.015,0.04-0.058a0.094,0.094,0,0,0-.118-0.06A0.05,0.05,0,0,0,23.167,31.272Zm0.1-7.6c0.033,0.136.117,0.107,0.2,0.078C23.383,23.781,23.362,23.641,23.267,23.674Zm-7.258-.216a0.651,0.651,0,0,1-.195.375,0.242,0.242,0,0,0-.124.2,0.543,0.543,0,0,1-.258.473,0.431,0.431,0,0,1-.295.1,1.454,1.454,0,0,0-.1.29c-0.044.027-.086,0.055-0.128,0.084a0.481,0.481,0,0,0-.122.089,1.223,1.223,0,0,1-.7.532c-0.135.22-.427,0.273-0.545,0.51a0.5,0.5,0,0,1-.209.214,1.359,1.359,0,0,0-.721.852,0.242,0.242,0,0,1-.122.13,0.694,0.694,0,0,0-.348.445,0.264,0.264,0,0,1-.278.222,0.209,0.209,0,0,0-.234.239,1.528,1.528,0,0,1-.266.433c-0.029.064-.144,0.1-0.057,0.188a0.165,0.165,0,0,0,.248,0,0.422,0.422,0,0,1,.193-0.139,0.435,0.435,0,0,1,.461.047,0.446,0.446,0,0,1,.16.49,1.325,1.325,0,0,1-.187.474,0.685,0.685,0,0,0-.141.458A11.375,11.375,0,0,1,11.97,31.4c-0.021.135,0.076,0.252,0.043,0.39a0.849,0.849,0,0,1-.1.519,0.2,0.2,0,0,0,.02.174,1.014,1.014,0,0,1,0,.63,0.2,0.2,0,0,0,.012.17,0.552,0.552,0,0,1-.03.606,0.116,0.116,0,0,0,.008.165,1.01,1.01,0,0,1,.065.673c0.012,0.118-.153.007-0.2,0.118a1.833,1.833,0,0,1,.248.386,0.4,0.4,0,0,1-.158.61,2.965,2.965,0,0,0,.268.284c0.134,0.11.244,0.2,0.125,0.4-0.045.074-.019,0.09,0.149,0.168a0.373,0.373,0,0,1-.034.048c-0.249.244-.253,0.247-0.015,0.532,0.083,0.1.229,0.163,0.079,0.317a0.153,0.153,0,0,0,.025.113,1.462,1.462,0,0,0,.242.387,0.807,0.807,0,0,1,.228.632,3.685,3.685,0,0,0,.044.487,0.6,0.6,0,0,0,.241.481,0.493,0.493,0,0,1-.131.2,0.184,0.184,0,0,0,.007.227,0.773,0.773,0,0,1,.173.476A0.474,0.474,0,0,1,13.3,41a1.019,1.019,0,0,1,.044.653,4.066,4.066,0,0,1-.109.552,0.1,0.1,0,0,1-.061.059,1.164,1.164,0,0,0-.333.246,0.264,0.264,0,0,1-.22.092,0.3,0.3,0,0,0-.345.213,0.614,0.614,0,0,0-.2.425c0.008,0.065-.093.149-0.152,0.08a0.456,0.456,0,0,0-.565-0.048,0.378,0.378,0,0,1-.078,0,0.459,0.459,0,0,0-.11-0.263,0.529,0.529,0,0,0-.317-0.1c-0.126.006-.237,0.04-0.258-0.152a0.274,0.274,0,0,0-.228-0.131c-0.113-.042-0.233-0.066-0.363-0.1a0.226,0.226,0,0,0-.04-0.3,0.642,0.642,0,0,1-.192-0.336,0.312,0.312,0,0,0-.214-0.3c-0.039-.013-0.093-0.034-0.078-0.077a0.4,0.4,0,0,0-.106-0.349A1.069,1.069,0,0,1,9.3,40.8a0.2,0.2,0,0,0-.067-0.132,0.528,0.528,0,0,1-.172-0.547,0.258,0.258,0,0,0-.146-0.3,0.183,0.183,0,0,1-.11-0.266,0.227,0.227,0,0,0,0-.18,0.455,0.455,0,0,1,.06-0.557c0.077-.093,0-0.169-0.08-0.225-0.04-.027-0.091-0.05-0.037-0.115a3.93,3.93,0,0,0,.2-0.715,0.035,0.035,0,0,0,0-.028c-0.2-.123-0.044-0.3-0.059-0.447a1.261,1.261,0,0,1,.046-0.47c0.031-.108-0.172-0.129-0.063-0.224a0.163,0.163,0,0,0,.017-0.241,0.069,0.069,0,0,1,0-.059,2.566,2.566,0,0,0,.172-0.967,0.258,0.258,0,0,1,.09-0.185,0.128,0.128,0,0,0,.033-0.224,0.1,0.1,0,0,1-.015-0.086,3.344,3.344,0,0,0,.167-0.883,0.666,0.666,0,0,1,.154-0.45,0.329,0.329,0,0,0,.036-0.232,0.377,0.377,0,0,1,.119-0.409,0.958,0.958,0,0,0,.04-0.257c0.154-.391.237-0.817,0.424-1.18a12.563,12.563,0,0,0,.441-1.244,0.247,0.247,0,0,1,.1-0.1,0.142,0.142,0,0,0,.026-0.235,0.2,0.2,0,0,0-.275-0.031,0.187,0.187,0,0,0-.063.067,0.879,0.879,0,0,1-.546.407,0.162,0.162,0,0,0-.108.161,1.182,1.182,0,0,1-.446.759,0.18,0.18,0,0,0-.087.153,0.341,0.341,0,0,1-.255.365,0.271,0.271,0,0,0-.192.216,0.267,0.267,0,0,1-.136.194,1.693,1.693,0,0,1-.268.477,0.408,0.408,0,0,0-.34.374,0.129,0.129,0,0,1-.108.1,0.252,0.252,0,0,0-.192.328,0.239,0.239,0,0,1-.13.3,0.065,0.065,0,0,0-.034.049,0.754,0.754,0,0,1-.364.569,0.221,0.221,0,0,0-.081.273,0.27,0.27,0,0,1-.076.325,2.122,2.122,0,0,0-.435.66,0.4,0.4,0,0,1-.154.186,0.538,0.538,0,0,0-.188.271,0.6,0.6,0,0,1-.408.315A0.533,0.533,0,0,0,5.4,36.8c-0.085-.057-0.142-0.1-0.2-0.136a0.163,0.163,0,0,0-.174-0.011c-0.1.05-.125,0.216-0.313,0.151a0.871,0.871,0,0,0-.367.119A0.376,0.376,0,0,1,4,36.881a1.689,1.689,0,0,1-.33-0.219,0.185,0.185,0,0,0-.161-0.075,0.414,0.414,0,0,1-.432-0.221,0.58,0.58,0,0,1-.264-0.377,0.209,0.209,0,0,0-.141-0.147,0.713,0.713,0,0,1-.406-0.35,0.54,0.54,0,0,1-.082-0.477,0.369,0.369,0,0,0,0-.292c-0.049-.089-0.077-0.161.044-0.224,0.065-.034.026-0.1,0.007-0.164A1.212,1.212,0,0,0,2,33.949a1.1,1.1,0,0,1,.25-0.2,0.511,0.511,0,0,0-.094-0.317c0.115-.072.3-0.13,0.185-0.341a0.06,0.06,0,0,1,.02-0.054c0.229-.094.16-0.283,0.118-0.437a0.906,0.906,0,0,1,.1-0.3c-0.025-.16.073-0.176,0.173-0.221a0.371,0.371,0,0,0,.213-0.441c-0.017-.078-0.049-0.153-0.081-0.248a0.4,0.4,0,0,0,.265-0.319,2.109,2.109,0,0,0,.233-0.415,0.142,0.142,0,0,1,.126-0.072,0.617,0.617,0,0,0,.313-0.153,0.292,0.292,0,0,1,.05-0.418,0.31,0.31,0,0,0,.119-0.322,0.2,0.2,0,0,1,.121-0.222,0.294,0.294,0,0,0,.226-0.291,0.169,0.169,0,0,1,.151-0.163,0.429,0.429,0,0,0,.284-0.3,0.786,0.786,0,0,1,.359-0.432,0.607,0.607,0,0,0,.256-0.323,0.5,0.5,0,0,1,.349-0.325,1.289,1.289,0,0,1-.09-0.239,0.18,0.18,0,0,1,.072-0.181,1.017,1.017,0,0,0,.361-0.472,0.6,0.6,0,0,1,.164-0.216,3.732,3.732,0,0,0,.677-0.807,0.4,0.4,0,0,1,.293-0.2,0.225,0.225,0,0,0,.18-0.1A1.068,1.068,0,0,1,7.8,25a0.36,0.36,0,0,0,.23-0.359,0.159,0.159,0,0,1,.092-0.13,6.8,6.8,0,0,0,.67-0.528,1.378,1.378,0,0,1,.517-0.418,0.225,0.225,0,0,0,.146-0.178,0.145,0.145,0,0,1,.153-0.154,0.074,0.074,0,0,0,.075-0.08,0.4,0.4,0,0,1,.358-0.409,0.347,0.347,0,0,0,.14-0.2,3.013,3.013,0,0,1,.891-0.475c0.092-.037.241,0.011,0.226-0.173,0-.038.064-0.052,0.1-0.046a2.485,2.485,0,0,0,.756-0.213,0.091,0.091,0,0,0,.064-0.055c0-.231.187-0.191,0.322-0.235a1.623,1.623,0,0,1,.681-0.012,0.217,0.217,0,0,0,.3-0.165,0.274,0.274,0,0,1,.313-0.2,0.937,0.937,0,0,0,.729-0.216,0.659,0.659,0,0,1,.061-0.028,1.723,1.723,0,0,0,.8.526,0.336,0.336,0,0,0,.21,0,0.377,0.377,0,0,1,.463.381,0.115,0.115,0,0,0,0,.029,1.405,1.405,0,0,1,.193.688,0.643,0.643,0,0,1-.09.632A1.047,1.047,0,0,0,16.009,23.457Zm-5,5.57a0.124,0.124,0,0,0-.154.1,0.193,0.193,0,0,0,.2.176,0.116,0.116,0,0,0,.136-0.123A0.168,0.168,0,0,0,11.006,29.027ZM52.66,44.336a0.071,0.071,0,0,1,.092.043,0.052,0.052,0,0,1-.054.058,0.076,0.076,0,0,1-.092-0.052C52.6,44.343,52.633,44.338,52.66,44.336Zm0.751,0.1-0.45.055C53.146,44.306,53.146,44.306,53.411,44.435Zm0.8,0.038a0.315,0.315,0,0,1-.346-0.035A0.382,0.382,0,0,1,54.215,44.473ZM77.631,41.26a3.091,3.091,0,0,0,.749-0.4,0.18,0.18,0,0,1,.288.129c0.005,0.029.009,0.075-.027,0.075a0.346,0.346,0,0,0-.295.224,0.209,0.209,0,0,1-.186.074c-0.174-.1-0.238.01-0.316,0.128a0.784,0.784,0,0,1-.143.125L77.444,41.4A0.242,0.242,0,0,1,77.631,41.26Z"/>
  <path id="지장" class="cls-2" d="M49.77,36.029a0.691,0.691,0,0,0-.377-0.8c-0.264-.108-0.216-0.4.046-0.523a0.623,0.623,0,0,0,.521-0.328,1.663,1.663,0,0,0-.105-1.25,0.373,0.373,0,0,1,.006-0.515,0.508,0.508,0,0,0,.1-0.483,1.691,1.691,0,0,1,.2-1.348,0.759,0.759,0,0,0,.122-0.489,0.428,0.428,0,0,1,0-.143,1.1,1.1,0,0,0-.049-1.005,0.8,0.8,0,0,1,.176-0.779c0.109-.145.07-0.222-0.065-0.283a1.53,1.53,0,0,1-.334-0.267,0.315,0.315,0,0,1-.051-0.515,0.844,0.844,0,0,0,.05-0.77,3.285,3.285,0,0,1,.018-1c0.084-.468-0.015-0.939.055-1.4a2.1,2.1,0,0,1,.187-1.048,0.278,0.278,0,0,0,0-.328,0.99,0.99,0,0,1-.135-0.682c0-.432,0-0.864.008-1.3a3.606,3.606,0,0,1,.168-0.749,4,4,0,0,0,.179-0.805,0.3,0.3,0,0,1,.241-0.253,0.557,0.557,0,0,0,.239-0.081,9.16,9.16,0,0,0,1.061-1.054c0.2-.42.366-0.458,0.811-0.3,0.164,0.059.318,0.175,0.45-.074A0.37,0.37,0,0,1,53.64,17.4c0.285,0,.571.01,0.856,0.021a0.838,0.838,0,0,0,.417-0.072,0.51,0.51,0,0,1,.414-0.012,1.756,1.756,0,0,0,.814.043,11.048,11.048,0,0,1,1.724-.193,2,2,0,0,0,.529-0.1,0.705,0.705,0,0,1,.878.322,0.666,0.666,0,0,0,.161.16c0.153,0.13.218,0.059,0.231-.109,0.008-.1-0.051-0.277.053-0.283a1.685,1.685,0,0,1,.618-0.2,5.033,5.033,0,0,0,1.314.226,0.561,0.561,0,0,0,.142,0,1.861,1.861,0,0,1,1.382.071,1.49,1.49,0,0,0,.619-0.047,2.728,2.728,0,0,1,1.655.121,0.567,0.567,0,0,0,.394-0.017,2.505,2.505,0,0,1,1.051.008,6.084,6.084,0,0,0,1.314.052,0.261,0.261,0,0,1,.326.286,0.487,0.487,0,0,0,.145.364,0.3,0.3,0,0,1,.1.232,3.625,3.625,0,0,1,.035,1.131,0.313,0.313,0,0,0,.023.251,0.879,0.879,0,0,1-.065.867,0.663,0.663,0,0,0,.064.67c0.051,0.073.148,0.143,0.063,0.251a0.909,0.909,0,0,0-.093.765,9.539,9.539,0,0,1,.153,1.441A16.541,16.541,0,0,0,69,25.886a1.984,1.984,0,0,1-.162.716,5.165,5.165,0,0,0-.028,1.108c-0.049,1.277.218,2.541,0.133,3.813-0.034.5,0.217,0.941,0.179,1.437s0.019,0.98-.008,1.468a4.035,4.035,0,0,0,.129,1.253,0.771,0.771,0,0,1-.173.608,1.567,1.567,0,0,1-.569.586c-0.591.178-.692,0.832-1.172,1.091-0.142.076-.273,0.173-0.419,0.237a0.375,0.375,0,0,1-.406-0.029,0.289,0.289,0,0,0-.48.063,0.133,0.133,0,0,1-.055.064,3.835,3.835,0,0,1-1.1.3,0.744,0.744,0,0,0-.653.1,0.1,0.1,0,0,1-.051.025,8.192,8.192,0,0,1-1.872.159,0.634,0.634,0,0,1-.231-0.105,0.329,0.329,0,0,0-.3-0.036,4.432,4.432,0,0,1-2.177.185,5.288,5.288,0,0,0-1.14.026,1.844,1.844,0,0,1-1.162-.27,0.888,0.888,0,0,0-.937-0.011,1.6,1.6,0,0,1-.974.228,2.807,2.807,0,0,0-.88.073,2.42,2.42,0,0,1-1.336-.316,2.071,2.071,0,0,0-1.5-.341,0.247,0.247,0,0,1-.3-0.108,4.084,4.084,0,0,0-1-.944A1.8,1.8,0,0,1,49.77,36.029Z"/>
  <path id="운세" class="cls-3" d="M65.79,27.62a1.526,1.526,0,0,1-.177.633,0.046,0.046,0,0,0,.008.08c0.012,0.009.08,0.007,0.03,0.039-0.124.081-.034,0.193-0.047,0.287a0.511,0.511,0,0,0-.035.07c0.014,0.044-.127.069-0.007,0.137,0.04,0.022-.037.127-0.117,0.14s-0.1.029-.059,0.114c0.02,0.045.079,0.152-.042,0.191-0.023.008-.021,0.02,0,0.046,0.079,0.12.076,0.121-.03,0.194a0.072,0.072,0,0,0-.016.026c-0.021.041,0.158,0.086-.006,0.135-0.044.013-.064,0.107-0.143,0.063a0.4,0.4,0,0,1-.069.176c-0.01.052-.015,0.1-0.021,0.16a0.087,0.087,0,0,0,.039,0c0.036-.04-0.008-0.149.077-0.132,0.066,0.013,0,.093,0,0.14a0.948,0.948,0,0,1-.246.707,0.083,0.083,0,0,0-.015.132c0.044,0.056.072,0.139-.04,0.176s-0.071.172-.07,0.235a0.346,0.346,0,0,1-.138.343,0.228,0.228,0,0,0-.036.178c-0.013.074,0.08,0.171-.057,0.218-0.029.009,0.016,0.023,0.026,0.033,0.038,0.043.051,0.084-.025,0.069-0.124-.025-0.1.024-0.066,0.1,0.053,0.125-.011.165-0.127,0.159a0.52,0.52,0,0,0,.021-0.234,0.4,0.4,0,0,0-.124.382c-0.045-.029-0.093-0.045-0.114.021a0.065,0.065,0,0,0,.076.092c0.088-.013.061,0.047,0.051,0.08-0.037.12-.079,0.239-0.124,0.356-0.032.086-.051-0.014-0.063-0.008a0.157,0.157,0,0,0-.071.194c0.062,0.009.043-.09,0.106-0.078a1.123,1.123,0,0,0-.049.437,0.519,0.519,0,0,1-.088.177c-0.1.262-.084,0.547-0.2,0.8a1.1,1.1,0,0,0-.015.3c-0.017.181-.081,0.363-0.079,0.537a1.971,1.971,0,0,1-.276.6,0.317,0.317,0,0,1-.038-0.251,2.576,2.576,0,0,0,.048-0.491c0.021-.348.126-0.682,0.176-1.026a0.338,0.338,0,0,1,.152-0.331A0.063,0.063,0,0,0,63.8,33.98a1.365,1.365,0,0,1,.1-0.722c0-.076.047-0.152,0.049-0.233,0-.048,0-0.092.074-0.085,0.062,0.005.055-.074,0.046-0.1a0.938,0.938,0,0,1,.055-0.409c0-.033,0-0.081.065-0.059,0.047,0.016.047-.038,0.047-0.062a2.771,2.771,0,0,1,.127-0.641,4.375,4.375,0,0,0,.246-0.82,0.173,0.173,0,0,1,.016-0.079,1.046,1.046,0,0,0,.141-0.469,2.186,2.186,0,0,1,.217-0.542l-0.129.109a5.187,5.187,0,0,0,.214-0.938,3.335,3.335,0,0,0,.09-1c-0.027-.3-0.038-0.606-0.081-0.9-0.071-.494-0.15-0.986-0.263-1.474a6.375,6.375,0,0,1-.094-0.819,0.166,0.166,0,0,1,.052-0.174,0.174,0.174,0,0,1,.2.058,2.126,2.126,0,0,1,.414.669,6.344,6.344,0,0,1,.306.768,2.567,2.567,0,0,1,.144,1.011A2.876,2.876,0,0,1,65.79,27.62Zm-1.337,1.05a5.951,5.951,0,0,1-.144.618c-0.032.142-.16,0.221-0.2,0.361-0.094.3-.306,0.544-0.4,0.848a0.751,0.751,0,0,0-.044.182,1.306,1.306,0,0,1-.17.536,0.3,0.3,0,0,0-.049.151,0.3,0.3,0,0,1-.2.324,0.072,0.072,0,0,0-.028.08c-0.028-.015-0.066-0.038-0.078,0a1.348,1.348,0,0,0-.053.6A0.519,0.519,0,0,1,63.17,32.3a0.3,0.3,0,0,1-.16.315c-0.082.03-.1,0-0.112-0.051a1.06,1.06,0,0,1,.008-0.312c0.006-.4-0.006-0.806,0-1.208a4.271,4.271,0,0,1,.118-0.8,7.009,7.009,0,0,1,.212-0.905c0.105-.3.086-0.607,0.164-0.9a1.8,1.8,0,0,0-.043-0.221,0.707,0.707,0,0,0-.168.067c-0.128.08-.205,0.211-0.341,0.283a1.2,1.2,0,0,1-1.092.156,0.673,0.673,0,0,1-.4-0.279,0.036,0.036,0,0,0-.064.007,1.247,1.247,0,0,0-.12.591,4.872,4.872,0,0,0,.15.6,1.678,1.678,0,0,1,.057.3,0.793,0.793,0,0,0,.181.32,0.2,0.2,0,0,1,.043.167,0.237,0.237,0,0,0,.045.242,0.053,0.053,0,0,1-.008.093c-0.1.034-.066,0.111-0.047,0.16a2.684,2.684,0,0,1-.014.756,0.417,0.417,0,0,1-.157.267,0.816,0.816,0,0,0-.165.226,0.43,0.43,0,0,1-.394.058,2.579,2.579,0,0,1-.476-0.526c-0.156-.231-0.148-0.519-0.309-0.742a1.482,1.482,0,0,1-.018-0.171c-0.012-.028.031-0.071-0.035-0.087a0.1,0.1,0,0,0-.109.043,0.607,0.607,0,0,1-.63.245,0.67,0.67,0,0,1-.242-0.114,1.77,1.77,0,0,1-.4-0.323,1.044,1.044,0,0,1-.253-0.588,0.349,0.349,0,0,1,.075-0.306c0.115-.112.112-0.3,0.221-0.42a4.8,4.8,0,0,0,.377-0.451,0.762,0.762,0,0,0,.108-0.237,2.309,2.309,0,0,1,.281-0.367,1.573,1.573,0,0,0,.156-0.248,0.208,0.208,0,0,1,.093-0.065c0.093-.186.192-0.369,0.281-0.558a0.7,0.7,0,0,1,.162-0.223,1.3,1.3,0,0,0,.2-0.352c0.01-.018.009-0.059,0.015-0.06,0.278-.021.172-0.279,0.255-0.419a3.4,3.4,0,0,1,.282-0.387,0.309,0.309,0,0,0,.039-0.058,0.769,0.769,0,0,1,.474-0.418,0.1,0.1,0,0,0,.078-0.048,0.2,0.2,0,0,1,.266-0.1,0.307,0.307,0,0,1,.229.172,1.1,1.1,0,0,0,.153.369,0.767,0.767,0,0,1-.049.75c-0.082.166-.09,0.349-0.169,0.515a0.717,0.717,0,0,1-.168.238,0.137,0.137,0,0,0-.048.088,0.556,0.556,0,0,1-.126.4c-0.026.024-.023,0.058,0.02,0.076a1.239,1.239,0,0,0,.638.156,3.049,3.049,0,0,0,.878-0.223,0.436,0.436,0,0,0,.28-0.437c-0.006-.351.058-0.7,0.07-1.044a4.362,4.362,0,0,1,.093-0.822c0.02-.087.009-0.2,0.126-0.2a0.352,0.352,0,0,1,.3.132,1.256,1.256,0,0,1,.243.542,1.558,1.558,0,0,1,.06.408,2.869,2.869,0,0,0,.073.491,2.987,2.987,0,0,1,.081.981,0.114,0.114,0,0,0,.013.063A1.381,1.381,0,0,1,64.454,28.67Zm-1.237,3.106h0s0,0,0-.006h0v0Zm0.084,0.1a1.006,1.006,0,0,0-.06.208,0.257,0.257,0,0,1-.024-0.307C63.3,31.759,63.377,31.739,63.3,31.874Zm-4.482-4.538a1.675,1.675,0,0,1-.481.285c-0.11.05-.2,0.121-0.308,0.177a2.9,2.9,0,0,1-1.231.368,3.084,3.084,0,0,1-.686.021,2.608,2.608,0,0,1-1.3-.488,2,2,0,0,1-.532-0.683,0.4,0.4,0,0,1,.191-0.561,0.348,0.348,0,0,1,.416.255,0.124,0.124,0,0,1-.046.093c-0.04.039-.135,0.048-0.113,0.118a0.68,0.68,0,0,0,.118.332,2.315,2.315,0,0,0,1.845.637,3.747,3.747,0,0,0,1.568-.524,3.291,3.291,0,0,0,1.066-.828,0.088,0.088,0,0,1,.1-0.05,0.445,0.445,0,0,1-.094.237A2.255,2.255,0,0,1,58.819,27.336ZM58.6,24.9a0.5,0.5,0,0,0-.025.248,0.5,0.5,0,0,1-.134.441,1.357,1.357,0,0,1-.428.527,0.637,0.637,0,0,0-.081.194c-0.248.267-.472,0.556-0.7,0.838a0.358,0.358,0,0,1-.445.17,0.352,0.352,0,0,0-.4.074c-0.044-.148.106-0.142,0.148-0.215,0.018-.032.065-0.073,0.1-0.115a2.147,2.147,0,0,0,.349-0.69,0.144,0.144,0,0,1,.005-0.03,0.237,0.237,0,0,0,.044-0.274,0.259,0.259,0,0,0-.3.046,1.109,1.109,0,0,1-.517.12,2.908,2.908,0,0,1-.849-0.062,5.032,5.032,0,0,0-.572-0.06,1.314,1.314,0,0,1-.659-0.33,2.332,2.332,0,0,1-.7-0.594c-0.052-.074-0.133-0.131-0.188-0.21a0.145,0.145,0,0,1-.06-0.15,0.074,0.074,0,0,0,0-.045,1.375,1.375,0,0,1,.068-0.883,0.333,0.333,0,0,1,.273-0.278,0.184,0.184,0,0,1,.232.119,0.435,0.435,0,0,0,.292.313,1.624,1.624,0,0,0,.465.149c0.258,0.05.518,0.04,0.776,0.076a2.221,2.221,0,0,0,.562-0.039,3.026,3.026,0,0,0,.886-0.25,0.5,0.5,0,0,0,.265-0.152,0.22,0.22,0,0,1,.147-0.066,0.356,0.356,0,0,0,.228-0.148,1.545,1.545,0,0,1,.526-0.431,0.372,0.372,0,0,1,.324.033,0.794,0.794,0,0,1,.147.345,0.284,0.284,0,0,0,.06.234,1.153,1.153,0,0,0,.185.379,0.551,0.551,0,0,0,.014.3,0.1,0.1,0,0,0,0,.044A0.446,0.446,0,0,1,58.6,24.9Zm-0.717-3.562a1.824,1.824,0,0,1-.372.606,4.894,4.894,0,0,0-.3.585,1.241,1.241,0,0,1-.159.2,2.177,2.177,0,0,1-.766.681,0.327,0.327,0,0,1-.161.027,0.45,0.45,0,0,1-.427-0.3,2.284,2.284,0,0,1-.062-1.408,6.112,6.112,0,0,1,.192-0.821,2.1,2.1,0,0,1,.284-0.725,0.5,0.5,0,0,0,.082-0.227,1.852,1.852,0,0,1,.261-0.508,0.434,0.434,0,0,1,.136-0.177,0.34,0.34,0,0,1,.412.066c0.135,0.117.225,0.271,0.347,0.4a0.566,0.566,0,0,1,.09.288c0.041,0.153.193,0.21,0.239,0.352a0.469,0.469,0,0,0,.174.255,0.207,0.207,0,0,1,.06.22,1.631,1.631,0,0,0,.017.266A1.015,1.015,0,0,1,57.882,21.336Zm-0.792.024a0.3,0.3,0,0,0-.325-0.162,0.607,0.607,0,0,0-.239.244,2.019,2.019,0,0,1-.235.445,1.53,1.53,0,0,0-.222.714,0.382,0.382,0,0,0,.077.21,0.208,0.208,0,0,0,.248-0.05c0.02-.015.042-0.028,0.061-0.045a2.531,2.531,0,0,0,.56-0.632A0.765,0.765,0,0,0,57.091,21.36ZM63.136,38.9c0.066-.466.044-0.939,0.108-1.406a7.376,7.376,0,0,0,.069-0.866c0-.13.052-0.252,0.044-0.385-0.006-.1.1-0.108,0.174-0.109s0.074,0.051.036,0.1a0.316,0.316,0,0,0,0,.112,0.709,0.709,0,0,1,.014.493,0.118,0.118,0,0,0-.031.082,1.967,1.967,0,0,1,.043.8c-0.023.4,0,.8,0,1.195a10.136,10.136,0,0,0,.073,1.165,1.038,1.038,0,0,1-.051.541c-0.04.1-.088,0.139-0.172,0.043-0.013-.015-0.017-0.045-0.043-0.032a0.187,0.187,0,0,1-.236,0,0.519,0.519,0,0,1-.154-0.4c0-.145.027-0.29,0.04-0.435Q63.1,39.351,63.136,38.9Z"/>
</svg>
